<svg width="128" height="128" viewBox="0 0 128 128" fill="none" xmlns="http://www.w3.org/2000/svg">
<g clip-path="url(#clip0_1_2)">
<mask id="path-1-outside-1_1_2" maskUnits="userSpaceOnUse" x="5.06959" y="2.40156" width="119" height="113" fill="black">
<rect fill="white" x="5.06959" y="2.40156" width="119" height="113"/>
<path d="M61.6823 8.23984C63.2566 5.7888 66.8394 5.78879 68.4137 8.23984L85.0016 34.066C85.5433 34.9092 86.3819 35.5185 87.3512 35.773L117.039 43.568C119.856 44.3078 120.963 47.7156 119.119 49.9703L99.6832 73.7271C99.0486 74.5029 98.7283 75.4883 98.7858 76.4889L100.546 107.132C100.713 110.041 97.8145 112.147 95.1002 111.089L66.4996 99.9459C65.5658 99.5821 64.5292 99.582 63.5953 99.9459L34.9957 111.089C32.2814 112.147 29.3834 110.041 29.5504 107.132L31.3102 76.4889C31.3676 75.4884 31.0472 74.5028 30.4127 73.7271L10.9762 49.9703C9.13174 47.7157 10.239 44.308 13.0563 43.568L42.7448 35.773C43.7141 35.5185 44.5527 34.9092 45.0944 34.066L61.6823 8.23984ZM68.4137 32.2398C66.8394 29.7888 63.2566 29.7888 61.6823 32.2398L53.276 45.3268C52.7343 46.1701 51.8958 46.7802 50.9264 47.0348L35.8825 50.985C33.0649 51.7248 31.9578 55.1316 33.8024 57.3863L43.651 69.4254C44.2856 70.2011 44.6059 71.1866 44.5485 72.1871L43.6569 87.7164C43.4899 90.6246 46.3879 92.7299 49.1022 91.6725L63.5953 86.026C64.5292 85.6621 65.5658 85.6622 66.4996 86.026L80.9928 91.6725C83.7071 92.73 86.606 90.6246 86.4391 87.7164L85.5465 72.1871C85.4891 71.1867 85.8095 70.201 86.444 69.4254L96.2936 57.3863C98.1381 55.1317 97.031 51.7248 94.2135 50.985L79.1686 47.0348C78.1993 46.7801 77.3606 46.17 76.819 45.3268L68.4137 32.2398Z"/>
</mask>
<path d="M61.6823 8.23984C63.2566 5.7888 66.8394 5.78879 68.4137 8.23984L85.0016 34.066C85.5433 34.9092 86.3819 35.5185 87.3512 35.773L117.039 43.568C119.856 44.3078 120.963 47.7156 119.119 49.9703L99.6832 73.7271C99.0486 74.5029 98.7283 75.4883 98.7858 76.4889L100.546 107.132C100.713 110.041 97.8145 112.147 95.1002 111.089L66.4996 99.9459C65.5658 99.5821 64.5292 99.582 63.5953 99.9459L34.9957 111.089C32.2814 112.147 29.3834 110.041 29.5504 107.132L31.3102 76.4889C31.3676 75.4884 31.0472 74.5028 30.4127 73.7271L10.9762 49.9703C9.13174 47.7157 10.239 44.308 13.0563 43.568L42.7448 35.773C43.7141 35.5185 44.5527 34.9092 45.0944 34.066L61.6823 8.23984ZM68.4137 32.2398C66.8394 29.7888 63.2566 29.7888 61.6823 32.2398L53.276 45.3268C52.7343 46.1701 51.8958 46.7802 50.9264 47.0348L35.8825 50.985C33.0649 51.7248 31.9578 55.1316 33.8024 57.3863L43.651 69.4254C44.2856 70.2011 44.6059 71.1866 44.5485 72.1871L43.6569 87.7164C43.4899 90.6246 46.3879 92.7299 49.1022 91.6725L63.5953 86.026C64.5292 85.6621 65.5658 85.6622 66.4996 86.026L80.9928 91.6725C83.7071 92.73 86.606 90.6246 86.4391 87.7164L85.5465 72.1871C85.4891 71.1867 85.8095 70.201 86.444 69.4254L96.2936 57.3863C98.1381 55.1317 97.031 51.7248 94.2135 50.985L79.1686 47.0348C78.1993 46.7801 77.3606 46.17 76.819 45.3268L68.4137 32.2398Z" fill="url(#paint0_linear_1_2)"/>
<path d="M61.6823 8.23984L58.3167 6.07811L58.3167 6.07816L61.6823 8.23984ZM68.4137 8.23984L71.7793 6.07816L71.7793 6.07813L68.4137 8.23984ZM85.0016 34.066L81.636 36.2277L81.6363 36.2281L85.0016 34.066ZM87.3512 35.773L86.3353 39.6419L86.3354 39.6419L87.3512 35.773ZM117.039 43.568L118.055 39.6991L118.055 39.6991L117.039 43.568ZM119.119 49.9703L116.023 47.4375L116.023 47.4375L119.119 49.9703ZM99.6832 73.7271L96.5873 71.1943L96.5872 71.1944L99.6832 73.7271ZM98.7858 76.4889L94.7924 76.7181V76.7182L98.7858 76.4889ZM100.546 107.132L96.5521 107.362L96.5521 107.362L100.546 107.132ZM95.1002 111.089L93.6481 114.817L93.6483 114.817L95.1002 111.089ZM66.4996 99.9459L67.9518 96.2188L67.9516 96.2187L66.4996 99.9459ZM63.5953 99.9459L62.1432 96.2188L62.1431 96.2188L63.5953 99.9459ZM34.9957 111.089L36.4479 114.817L36.448 114.817L34.9957 111.089ZM29.5504 107.132L33.5438 107.362L33.5438 107.362L29.5504 107.132ZM31.3102 76.4889L35.3036 76.7182L35.3036 76.7181L31.3102 76.4889ZM30.4127 73.7271L33.5089 71.1946L33.5086 71.1943L30.4127 73.7271ZM10.9762 49.9703L7.88023 52.5031L7.88032 52.5032L10.9762 49.9703ZM13.0563 43.568L12.0405 39.6991L12.0401 39.6992L13.0563 43.568ZM42.7448 35.773L43.7606 39.6419L43.7608 39.6418L42.7448 35.773ZM45.0944 34.066L48.4598 36.2279L48.4599 36.2277L45.0944 34.066ZM68.4137 32.2398L71.7793 30.0782L71.7793 30.0781L68.4137 32.2398ZM61.6823 32.2398L65.0478 34.4016L65.0478 34.4016L61.6823 32.2398ZM53.276 45.3267L49.9105 43.165L49.9104 43.165L53.276 45.3267ZM50.9264 47.0348L51.9423 50.9036L51.9423 50.9036L50.9264 47.0348ZM35.8825 50.985L34.8666 47.1161L34.8666 47.1161L35.8825 50.985ZM33.8024 57.3863L36.8984 54.8536L36.8983 54.8535L33.8024 57.3863ZM43.651 69.4254L40.555 71.9581L40.5551 71.9582L43.651 69.4254ZM44.5485 72.1871L48.5419 72.4164L48.5419 72.4161L44.5485 72.1871ZM43.6569 87.7164L39.6634 87.4871L39.6634 87.4871L43.6569 87.7164ZM49.1022 91.6725L50.5542 95.3996L50.5543 95.3996L49.1022 91.6725ZM63.5953 86.026L65.0474 89.7531L65.0475 89.7531L63.5953 86.026ZM66.4996 86.026L67.9517 82.2988L67.9516 82.2988L66.4996 86.026ZM80.9928 91.6725L82.445 87.9454L82.4449 87.9453L80.9928 91.6725ZM86.4391 87.7164L90.4325 87.4872L90.4325 87.4869L86.4391 87.7164ZM85.5465 72.1871L81.5531 72.4161L81.5531 72.4166L85.5465 72.1871ZM86.444 69.4254L83.3481 66.8925L83.3479 66.8928L86.444 69.4254ZM96.2936 57.3863L99.3895 59.9192L99.3896 59.9191L96.2936 57.3863ZM94.2135 50.985L95.2295 47.1161L95.2293 47.1161L94.2135 50.985ZM79.1686 47.0348L78.1524 50.9035L78.1528 50.9036L79.1686 47.0348ZM76.819 45.3267L73.4534 47.4884L73.4534 47.4885L76.819 45.3267ZM61.6823 8.23984L65.0478 10.4016L65.0481 10.4015L68.4137 8.23984L71.7793 6.07813C68.6306 1.17601 61.4653 1.17606 58.3167 6.07811L61.6823 8.23984ZM68.4137 8.23984L65.0481 10.4015L81.636 36.2277L85.0016 34.066L88.3672 31.9043L71.7793 6.07816L68.4137 8.23984ZM85.0016 34.066L81.6363 36.2281C82.7195 37.9141 84.3964 39.1328 86.3353 39.6419L87.3512 35.773L88.3671 31.9042L88.3669 31.9039L85.0016 34.066ZM87.3512 35.773L86.3354 39.6419L116.023 47.4368L117.039 43.568L118.055 39.6991L88.367 31.9042L87.3512 35.773ZM117.039 43.568L116.023 47.4368L116.023 47.4375L119.119 49.9703L122.215 52.5031C125.904 47.994 123.69 41.1789 118.055 39.6991L117.039 43.568ZM119.119 49.9703L116.023 47.4375L96.5873 71.1943L99.6832 73.7271L102.779 76.2599L122.215 52.5031L119.119 49.9703ZM99.6832 73.7271L96.5872 71.1944C95.3183 72.7456 94.6774 74.7166 94.7924 76.7181L98.7858 76.4889L102.779 76.2596L102.779 76.2599L99.6832 73.7271ZM98.7858 76.4889L94.7924 76.7182L96.5521 107.362L100.546 107.132L104.539 106.903L102.779 76.2595L98.7858 76.4889ZM100.546 107.132L96.5521 107.362L96.5521 107.362L95.1002 111.089L93.6483 114.817C99.0775 116.932 104.873 112.719 104.539 106.903L100.546 107.132ZM95.1002 111.089L96.5524 107.362L67.9518 96.2188L66.4996 99.9459L65.0475 103.673L93.6481 114.817L95.1002 111.089ZM66.4996 99.9459L67.9516 96.2187C66.0841 95.4912 64.0111 95.491 62.1432 96.2188L63.5953 99.9459L65.0475 103.673L65.0477 103.673L66.4996 99.9459ZM63.5953 99.9459L62.1431 96.2188L33.5435 107.362L34.9957 111.089L36.448 114.817L65.0476 103.673L63.5953 99.9459ZM34.9957 111.089L33.5436 107.362L33.5438 107.362L29.5504 107.132L25.557 106.903C25.223 112.718 31.0181 116.932 36.4479 114.817L34.9957 111.089ZM29.5504 107.132L33.5438 107.362L35.3036 76.7182L31.3102 76.4889L27.3168 76.2595L25.557 106.903L29.5504 107.132ZM31.3102 76.4889L35.3036 76.7181C35.4185 74.7165 34.7774 72.7455 33.5089 71.1946L30.4127 73.7271L27.3165 76.2597L27.3168 76.2596L31.3102 76.4889ZM30.4127 73.7271L33.5086 71.1943L14.0721 47.4374L10.9762 49.9703L7.88032 52.5032L27.3168 76.26L30.4127 73.7271ZM10.9762 49.9703L14.0722 47.4375L14.0725 47.4367L13.0563 43.568L12.0401 39.6992C6.40554 41.1792 4.19123 47.9938 7.88023 52.5031L10.9762 49.9703ZM13.0563 43.568L14.0721 47.4368L43.7606 39.6419L42.7448 35.773L41.729 31.9042L12.0405 39.6991L13.0563 43.568ZM42.7448 35.773L43.7608 39.6418C45.6993 39.1327 47.3765 37.9144 48.4598 36.2279L45.0944 34.066L41.7289 31.9041L41.7287 31.9042L42.7448 35.773ZM45.0944 34.066L48.4599 36.2277L65.0478 10.4015L61.6823 8.23984L58.3167 6.07816L41.7288 31.9043L45.0944 34.066ZM68.4137 32.2398L71.7793 30.0781C68.6306 25.176 61.4653 25.1761 58.3167 30.0781L61.6823 32.2398L65.0478 34.4016L65.0481 34.4015L68.4137 32.2398ZM61.6823 32.2398L58.3168 30.078L49.9105 43.165L53.276 45.3267L56.6415 47.4885L65.0478 34.4016L61.6823 32.2398ZM53.276 45.3267L49.9104 43.165L49.9105 43.1659L50.9264 47.0348L51.9423 50.9036C53.8833 50.3939 55.5594 49.1733 56.6416 47.4885L53.276 45.3267ZM50.9264 47.0348L49.9105 43.1659L34.8666 47.1161L35.8825 50.985L36.8983 54.8538L51.9423 50.9036L50.9264 47.0348ZM35.8825 50.985L34.8666 47.1161C29.2317 48.5957 27.0171 55.4096 30.7064 59.9192L33.8024 57.3863L36.8983 54.8535L36.8983 54.8538L35.8825 50.985ZM33.8024 57.3863L30.7064 59.919L40.555 71.9581L43.651 69.4254L46.747 66.8927L36.8984 54.8536L33.8024 57.3863ZM43.651 69.4254L40.5551 71.9582L40.555 71.9581L44.5485 72.1871L48.5419 72.4161C48.6567 70.4151 48.0161 68.4439 46.7469 66.8925L43.651 69.4254ZM44.5485 72.1871L40.555 71.9578L39.6634 87.4871L43.6569 87.7164L47.6503 87.9457L48.5419 72.4164L44.5485 72.1871ZM43.6569 87.7164L39.6634 87.4871C39.3295 93.3039 45.126 97.5144 50.5542 95.3996L49.1022 91.6725L47.6501 87.9453L47.6503 87.9457L43.6569 87.7164ZM49.1022 91.6725L50.5543 95.3996L65.0474 89.7531L63.5953 86.026L62.1433 82.2988L47.6501 87.9453L49.1022 91.6725ZM63.5953 86.026L65.0475 89.7531L65.0477 89.7531L66.4996 86.026L67.9516 82.2988C66.0841 81.5713 64.0111 81.5711 62.1432 82.2989L63.5953 86.026ZM66.4996 86.026L65.0476 89.7531L79.5407 95.3996L80.9928 91.6725L82.4449 87.9453L67.9517 82.2988L66.4996 86.026ZM80.9928 91.6725L79.5406 95.3995C84.9681 97.5142 90.7665 93.3048 90.4325 87.4872L86.4391 87.7164L82.4457 87.9456L82.445 87.9454L80.9928 91.6725ZM86.4391 87.7164L90.4325 87.4869L89.5399 71.9576L85.5465 72.1871L81.5531 72.4166L82.4457 87.9459L86.4391 87.7164ZM85.5465 72.1871L89.54 71.9581L89.5401 71.958L86.444 69.4254L83.3479 66.8928C82.0791 68.4438 81.4383 70.415 81.5531 72.4161L85.5465 72.1871ZM86.444 69.4254L89.5399 71.9582L99.3895 59.9192L96.2936 57.3863L93.1977 54.8535L83.3481 66.8925L86.444 69.4254ZM96.2936 57.3863L99.3896 59.9191C103.079 55.4096 100.864 48.5958 95.2295 47.1161L94.2135 50.985L93.1975 54.8538L93.1976 54.8536L96.2936 57.3863ZM94.2135 50.985L95.2293 47.1161L80.1844 43.1659L79.1686 47.0348L78.1528 50.9036L93.1977 54.8538L94.2135 50.985ZM79.1686 47.0348L80.1848 43.166C80.1859 43.1663 80.1862 43.1666 80.1857 43.1663C80.1852 43.1659 80.1848 43.1655 80.1845 43.165L76.819 45.3267L73.4534 47.4885C74.5357 49.1734 76.212 50.3938 78.1524 50.9035L79.1686 47.0348ZM76.819 45.3267L80.1846 43.1651L71.7793 30.0782L68.4137 32.2398L65.0481 34.4015L73.4534 47.4884L76.819 45.3267Z" fill="#151953" mask="url(#path-1-outside-1_1_2)"/>
<path d="M59.999 39.1592C62.3604 35.4826 67.7351 35.4826 70.0966 39.1592L75.7753 48C76.0462 48.4216 76.4654 48.7262 76.9501 48.8535L87.1132 51.5225C91.3394 52.6323 93 57.743 90.2333 61.125L83.579 69.2578C83.2618 69.6456 83.1021 70.1385 83.1308 70.6387L83.7333 81.1299C83.9836 85.4921 79.6358 88.6508 75.5644 87.0645L65.7743 83.249C65.3074 83.0671 64.7882 83.0671 64.3212 83.249L54.5312 87.0645C50.4598 88.6508 46.112 85.4921 46.3622 81.1299L46.9648 70.6387C46.9934 70.1385 46.8337 69.6456 46.5165 69.2578L39.8622 61.125C37.0955 57.743 38.7562 52.6323 42.9823 51.5225L53.1454 48.8535C53.6301 48.7262 54.0494 48.4216 54.3202 48L59.999 39.1592Z" fill="url(#paint1_linear_1_2)" stroke="#151953" stroke-width="4"/>
<g filter="url(#filter0_d_1_2)">
<path d="M8.34017 76.809C8.34017 76.809 16.3785 72.6905 21.9045 72.9887C25.4888 73.1821 28.4993 72.6951 30.7685 75.382C32.4841 77.4133 32.1181 79.292 32.3533 81.8892C32.7937 86.7516 28.7589 89.4045 29.9746 94.1495C30.9116 97.8067 31.8456 100.609 35.3467 102.318C38.1372 103.68 40.246 103.124 43.3296 102.691C46.0976 102.302 47.3476 100.879 50.1223 100.534C55.3966 99.8782 63.3941 103.628 63.3941 103.628C63.3941 103.628 67.0921 113.698 64.9297 116.071C62.7674 118.444 61.9922 119.903 58.9103 120.847C54.8559 122.089 49.9185 123.383 45.6578 123.545C38.7065 123.808 38.6396 122.706 31.7116 122.021C27.2114 121.576 21.6284 119.898 17.41 118.306C13.2012 116.716 10.6932 115.354 7.91147 111.924C5.69016 109.184 4.55561 107.263 4.10423 103.828C3.61948 100.14 4.43724 97.8825 6.04461 94.5166C6.90699 92.7107 7.66187 91.8305 8.83074 90.193C11.569 86.3568 18.5766 85.5698 16.9191 81.1684C15.631 77.748 8.34017 76.809 8.34017 76.809Z" fill="url(#paint2_radial_1_2)"/>
<path d="M121.771 46.8992C125.227 46.8719 125.886 48.9067 125.682 51.2748C125.479 53.6429 81.8723 90.4335 83.9278 96.2641C85.9833 102.095 78.2242 89.8831 78.2242 89.8831C78.2242 89.8831 68.866 81.1705 72.0454 82.9703C80.5635 87.7922 118.316 46.9266 121.771 46.8992Z" fill="url(#paint3_linear_1_2)"/>
<g filter="url(#filter1_d_1_2)">
<rect x="71.3534" y="82.0089" width="20.3594" height="14.0469" transform="rotate(48.2088 71.3534 82.0089)" fill="url(#paint4_radial_1_2)"/>
</g>
<path d="M60.8803 91.37L74.4482 106.549L63.4413 117.948L53.9183 111.246L47.9352 100.6L60.8803 91.37Z" fill="url(#paint5_linear_1_2)"/>
<mask id="mask0_1_2" style="mask-type:alpha" maskUnits="userSpaceOnUse" x="3" y="72" width="63" height="52">
<path d="M8.34017 76.809C8.34017 76.809 16.3785 72.6905 21.9045 72.9887C25.4888 73.1821 28.4993 72.6951 30.7685 75.382C32.4841 77.4133 32.1181 79.292 32.3533 81.8892C32.7937 86.7516 28.7589 89.4045 29.9746 94.1495C30.9116 97.8067 31.8456 100.609 35.3467 102.318C38.1372 103.68 40.246 103.124 43.3296 102.691C46.0976 102.302 47.3476 100.879 50.1223 100.534C55.3966 99.8782 63.3941 103.628 63.3941 103.628C63.3941 103.628 67.0921 113.698 64.9297 116.071C62.7674 118.444 61.9922 119.903 58.9103 120.847C54.8559 122.089 49.9185 123.383 45.6577 123.545C38.7065 123.808 38.6396 122.706 31.7116 122.021C27.2114 121.576 21.6284 119.898 17.41 118.306C13.2012 116.716 10.6932 115.354 7.91147 111.924C5.69016 109.184 4.5556 107.263 4.10423 103.828C3.61948 100.14 4.43723 97.8825 6.04461 94.5166C6.90699 92.7107 7.66187 91.8305 8.83074 90.193C11.569 86.3567 18.5766 85.5698 16.9191 81.1684C15.631 77.748 8.34017 76.809 8.34017 76.809Z" fill="url(#paint6_radial_1_2)"/>
</mask>
<g mask="url(#mask0_1_2)">
<g opacity="0.5" filter="url(#filter2_f_1_2)">
<path opacity="0.5" d="M13.6485 67.3496C14.0985 66.6768 15.1192 66.7883 15.412 67.5422L16.3631 69.9914C16.4289 70.1609 16.5397 70.3092 16.6836 70.4203L18.8331 72.0804C19.4247 72.5373 19.3232 73.4584 18.6461 73.7767L16.1861 74.9331C16.0215 75.0106 15.881 75.1314 15.7798 75.2826L14.3179 77.4681C13.8679 78.1409 12.8471 78.0294 12.5544 77.2754L11.6033 74.8263C11.5375 74.6568 11.4267 74.5085 11.2828 74.3974L9.13326 72.7373C8.54167 72.2804 8.64321 71.3593 9.32024 71.041L11.7802 69.8845C11.9449 69.8071 12.0854 69.6863 12.1865 69.5351L13.6485 67.3496Z" fill="white"/>
<path opacity="0.5" d="M13.3498 69.6974C13.7765 68.9069 14.9478 69.0349 15.1921 69.8986L15.371 70.5307C15.4185 70.6985 15.509 70.851 15.6337 70.9729L16.5831 71.9013C17.0468 72.3548 16.9621 73.1231 16.4107 73.4656L15.2816 74.167C15.1334 74.2591 15.0117 74.3884 14.9288 74.5419L14.6166 75.1203C14.1899 75.9108 13.0186 75.7828 12.7742 74.919L12.5954 74.287C12.5479 74.1192 12.4574 73.9667 12.3327 73.8448L11.3833 72.9163C10.9196 72.4629 11.0043 71.6946 11.5557 71.352L12.6848 70.6507C12.833 70.5586 12.9546 70.4293 13.0375 70.2758L13.3498 69.6974Z" fill="white"/>
<path opacity="0.5" d="M3.77714 94.9277C3.61696 94.2188 4.18555 93.5663 4.86687 93.6772L6.60894 93.9606C6.78192 93.9887 6.9587 93.9671 7.12064 93.8978L8.48654 93.3138C9.24727 92.9886 10.0261 93.7473 9.78169 94.5755L9.34286 96.0626C9.29083 96.2389 9.28483 96.427 9.3255 96.607L9.73507 98.4196C9.89525 99.1285 9.32665 99.781 8.64533 99.6701L6.90326 99.3867C6.73029 99.3585 6.5535 99.3802 6.39156 99.4495L5.02566 100.033C4.26493 100.359 3.4861 99.6 3.73051 98.7717L4.16934 97.2847C4.22137 97.1083 4.22737 96.9203 4.1867 96.7403L3.77714 94.9277Z" fill="white"/>
<path opacity="0.5" d="M4.9497 96.1483C4.68559 95.3684 5.35649 94.5985 6.11325 94.813L6.36818 94.8853C6.53917 94.9338 6.71927 94.9321 6.88906 94.8804L7.29363 94.7571C7.99486 94.5436 8.66272 95.1942 8.51871 95.9506L8.43561 96.387C8.40074 96.5701 8.41385 96.76 8.47353 96.9363L8.5625 97.199C8.82662 97.9789 8.15571 98.7488 7.39895 98.5343L7.14402 98.462C6.97303 98.4135 6.79294 98.4152 6.62314 98.4669L6.21857 98.5901C5.51734 98.8037 4.84948 98.1531 4.9935 97.3967L5.07659 96.9603C5.11146 96.7772 5.09835 96.5872 5.03867 96.411L4.9497 96.1483Z" fill="white"/>
<path opacity="0.5" d="M32.1433 77.7086C32.8188 77.2627 33.716 77.7613 33.6934 78.57L33.6199 81.1972C33.6148 81.379 33.6594 81.5587 33.7489 81.717L35.0856 84.0812C35.4535 84.7319 35.0027 85.542 34.2555 85.5729L31.5404 85.6855C31.3586 85.6931 31.1824 85.75 31.0305 85.8502L28.8359 87.2987C28.1603 87.7446 27.2631 87.246 27.2858 86.4373L27.3593 83.8101C27.3644 83.6283 27.3198 83.4486 27.2303 83.2903L25.8936 80.9261C25.5257 80.2754 25.9765 79.4653 26.7237 79.4344L29.4388 79.3218C29.6205 79.3142 29.7968 79.2573 29.9487 79.1571L32.1433 77.7086Z" fill="white"/>
<path opacity="0.5" d="M30.9576 79.7577C31.6573 79.1943 32.6868 79.7664 32.577 80.6576L32.4966 81.3099C32.4753 81.483 32.4996 81.6587 32.5672 81.8195L33.0819 83.0437C33.3333 83.6416 32.9572 84.3173 32.3164 84.4194L31.0041 84.6284C30.8318 84.6558 30.6696 84.7278 30.5337 84.8373L30.0216 85.2496C29.3219 85.8131 28.2924 85.2409 28.4022 84.3497L28.4825 83.6974C28.5039 83.5243 28.4795 83.3486 28.412 83.1879L27.8973 81.9636C27.6459 81.3657 28.0219 80.69 28.6628 80.5879L29.9751 80.379C30.1474 80.3515 30.3096 80.2795 30.4455 80.17L30.9576 79.7577Z" fill="white"/>
<path opacity="0.5" d="M24.246 95.3934C24.3258 94.604 25.2006 94.1765 25.8096 94.6293L29.5657 97.4221C29.7087 97.5285 29.8783 97.5911 30.0562 97.6033L34.7287 97.9226C35.4906 97.9746 35.8747 98.8763 35.4121 99.5268L32.575 103.516C32.467 103.668 32.4 103.846 32.3812 104.032L31.889 108.901C31.8092 109.69 30.9344 110.117 30.3254 109.665L26.5693 106.872C26.4263 106.765 26.2567 106.703 26.0788 106.691L21.4063 106.371C20.6444 106.319 20.2603 105.418 20.7229 104.767L23.56 100.778C23.668 100.626 23.735 100.448 23.7538 100.262L24.246 95.3934Z" fill="white"/>
<path opacity="0.5" d="M25.3864 98.1847C25.3908 97.3001 26.4039 96.805 27.0306 97.3812L28.6398 98.8607C28.7683 98.9787 28.9259 99.058 29.0965 99.0901L31.5363 99.55C32.191 99.6734 32.5143 100.432 32.1722 101.043L30.8975 103.318C30.8084 103.477 30.7609 103.656 30.76 103.838L30.7486 106.109C30.7442 106.994 29.7312 107.489 29.1044 106.913L27.4952 105.433C27.3667 105.315 27.2091 105.236 27.0385 105.204L24.5987 104.744C23.944 104.621 23.6207 103.862 23.9628 103.251L25.2375 100.976C25.3266 100.817 25.3741 100.637 25.375 100.456L25.3864 98.1847Z" fill="white"/>
<path opacity="0.5" d="M49.6294 108.174C50.2338 107.669 51.1498 107.966 51.2775 108.707L52.1536 113.799C52.1838 113.975 52.2634 114.137 52.3838 114.268L55.8782 118.083C56.398 118.651 56.0442 119.576 55.2527 119.72L49.9321 120.681C49.7488 120.714 49.5763 120.795 49.4333 120.915L45.2856 124.38C44.6813 124.885 43.7652 124.589 43.6375 123.847L42.7614 118.755C42.7312 118.579 42.6516 118.417 42.5312 118.286L39.0368 114.471C38.517 113.903 38.8709 112.978 39.6623 112.835L44.9829 111.873C45.1662 111.84 45.3387 111.759 45.4818 111.64L49.6294 108.174Z" fill="white"/>
<path opacity="0.5" d="M48.4553 111.117C49.0726 110.491 50.1353 110.835 50.1906 111.679L50.3562 114.208C50.3676 114.383 50.4273 114.549 50.529 114.691L52.1483 116.939C52.5414 117.484 52.243 118.265 51.5653 118.464L48.7732 119.283C48.5977 119.335 48.4378 119.431 48.3101 119.56L46.4598 121.437C45.8424 122.064 44.7797 121.72 44.7244 120.876L44.5589 118.346C44.5474 118.171 44.4877 118.005 44.386 117.863L42.7667 115.616C42.3737 115.07 42.672 114.29 43.3498 114.091L46.1418 113.271C46.3173 113.219 46.4772 113.124 46.605 112.994L48.4553 111.117Z" fill="white"/>
</g>
</g>
</g>
</g>
<defs>
<filter id="filter0_d_1_2" x="-0.0345786" y="46.899" width="129.75" height="84.6856" filterUnits="userSpaceOnUse" color-interpolation-filters="sRGB">
<feFlood flood-opacity="0" result="BackgroundImageFix"/>
<feColorMatrix in="SourceAlpha" type="matrix" values="0 0 0 0 0 0 0 0 0 0 0 0 0 0 0 0 0 0 127 0" result="hardAlpha"/>
<feOffset dy="4"/>
<feGaussianBlur stdDeviation="2"/>
<feComposite in2="hardAlpha" operator="out"/>
<feColorMatrix type="matrix" values="0 0 0 0 0 0 0 0 0 0 0 0 0 0 0 0 0 0 0.25 0"/>
<feBlend mode="normal" in2="BackgroundImageFix" result="effect1_dropShadow_1_2"/>
<feBlend mode="normal" in="SourceGraphic" in2="effect1_dropShadow_1_2" result="shape"/>
</filter>
<filter id="filter1_d_1_2" x="56.8803" y="82.0089" width="32.0409" height="32.5406" filterUnits="userSpaceOnUse" color-interpolation-filters="sRGB">
<feFlood flood-opacity="0" result="BackgroundImageFix"/>
<feColorMatrix in="SourceAlpha" type="matrix" values="0 0 0 0 0 0 0 0 0 0 0 0 0 0 0 0 0 0 127 0" result="hardAlpha"/>
<feOffset dy="4"/>
<feGaussianBlur stdDeviation="2"/>
<feComposite in2="hardAlpha" operator="out"/>
<feColorMatrix type="matrix" values="0 0 0 0 0 0 0 0 0 0 0 0 0 0 0 0 0 0 0.25 0"/>
<feBlend mode="normal" in2="BackgroundImageFix" result="effect1_dropShadow_1_2"/>
<feBlend mode="normal" in="SourceGraphic" in2="effect1_dropShadow_1_2" result="shape"/>
</filter>
<filter id="filter2_f_1_2" x="3.18477" y="66.4048" width="53.4384" height="58.7264" filterUnits="userSpaceOnUse" color-interpolation-filters="sRGB">
<feFlood flood-opacity="0" result="BackgroundImageFix"/>
<feBlend mode="normal" in="SourceGraphic" in2="BackgroundImageFix" result="shape"/>
<feGaussianBlur stdDeviation="0.25" result="effect1_foregroundBlur_1_2"/>
</filter>
<linearGradient id="paint0_linear_1_2" x1="65.0476" y1="6.40156" x2="65.0476" y2="111.367" gradientUnits="userSpaceOnUse">
<stop stop-color="#4C4CFF"/>
<stop offset="0.509615" stop-color="#4949F5"/>
<stop offset="0.745192" stop-color="#3030A3"/>
<stop offset="1" stop-color="#2E2E99"/>
</linearGradient>
<linearGradient id="paint1_linear_1_2" x1="65.0478" y1="93" x2="65.0478" y2="35" gradientUnits="userSpaceOnUse">
<stop stop-color="#2C2A77"/>
<stop offset="0.557692" stop-color="#292771"/>
<stop offset="0.778846" stop-color="#191851"/>
<stop offset="1" stop-color="#121142"/>
</linearGradient>
<radialGradient id="paint2_radial_1_2" cx="0" cy="0" r="1" gradientTransform="matrix(58.2914 -0.524541 0.689263 85.669 -4.48021 111.997)" gradientUnits="userSpaceOnUse">
<stop stop-color="#7961FF"/>
<stop offset="0.476887" stop-color="#5A43C8"/>
<stop offset="1" stop-color="#13004B"/>
</radialGradient>
<linearGradient id="paint3_linear_1_2" x1="125.222" y1="48.6214" x2="91.0183" y2="40.0329" gradientUnits="userSpaceOnUse">
<stop stop-color="#465BE0"/>
<stop offset="0.552885" stop-color="#4255D2"/>
<stop offset="1" stop-color="#26317A"/>
</linearGradient>
<radialGradient id="paint4_radial_1_2" cx="0" cy="0" r="1" gradientTransform="matrix(18.0576 3.00871 -5.61605 33.7712 73.6551 86.0236)" gradientUnits="userSpaceOnUse">
<stop stop-color="#E6E6E6"/>
<stop offset="1" stop-color="#808080"/>
</radialGradient>
<linearGradient id="paint5_linear_1_2" x1="68.186" y1="99.5435" x2="56.1947" y2="113.056" gradientUnits="userSpaceOnUse">
<stop stop-color="#332822"/>
<stop offset="1" stop-color="#37170C"/>
</linearGradient>
<radialGradient id="paint6_radial_1_2" cx="0" cy="0" r="1" gradientTransform="matrix(58.2914 -0.52454 0.689263 85.669 -4.48021 111.997)" gradientUnits="userSpaceOnUse">
<stop stop-color="#7961FF"/>
<stop offset="0.476887" stop-color="#5A43C8"/>
<stop offset="1" stop-color="#13004B"/>
</radialGradient>
<clipPath id="clip0_1_2">
<rect width="128" height="128" fill="white"/>
</clipPath>
</defs>
</svg>
