<svg width="32" height="32" viewBox="0 0 32 32" fill="none" xmlns="http://www.w3.org/2000/svg">
<mask id="path-1-outside-1_71_30" maskUnits="userSpaceOnUse" x="1.79785" y="5.80078" width="28" height="21" fill="black">
<rect fill="white" x="1.79785" y="5.80078" width="28" height="21"/>
<path d="M18.6299 10.584H10.1943L9.15723 15.9062H17.3115L16.7744 18.6895H8.62012L7.38672 25H3.79785L7.13086 7.7998H19.167L18.6299 10.584ZM28 25H16V23H28V25Z"/>
</mask>
<path d="M18.6299 10.584H10.1943L9.15723 15.9062H17.3115L16.7744 18.6895H8.62012L7.38672 25H3.79785L7.13086 7.7998H19.167L18.6299 10.584ZM28 25H16V23H28V25Z" fill="url(#paint0_linear_71_30)"/>
<path d="M18.6299 10.584V11.584H19.4554L19.6118 10.7734L18.6299 10.584ZM10.1943 10.584V9.58398H9.37039L9.2128 10.3927L10.1943 10.584ZM9.15723 15.9062L8.17569 15.715L7.94356 16.9062H9.15723V15.9062ZM17.3115 15.9062L18.2934 16.0957L18.523 14.9062H17.3115V15.9062ZM16.7744 18.6895V19.6895H17.5999L17.7563 18.8789L16.7744 18.6895ZM8.62012 18.6895V17.6895H7.79665L7.63869 18.4976L8.62012 18.6895ZM7.38672 25V26H8.21019L8.36815 25.1918L7.38672 25ZM3.79785 25L2.81611 24.8098L2.58547 26H3.79785V25ZM7.13086 7.7998V6.7998H6.30603L6.14912 7.60957L7.13086 7.7998ZM19.167 7.7998L20.1489 7.98923L20.3783 6.7998H19.167V7.7998ZM28 25V26H29V25H28ZM16 25H15V26H16V25ZM16 23V22H15V23H16ZM28 23H29V22H28V23ZM18.6299 10.584V9.58398H10.1943V10.584V11.584H18.6299V10.584ZM10.1943 10.584L9.2128 10.3927L8.17569 15.715L9.15723 15.9062L10.1388 16.0975L11.1759 10.7752L10.1943 10.584ZM9.15723 15.9062V16.9062H17.3115V15.9062V14.9062H9.15723V15.9062ZM17.3115 15.9062L16.3296 15.7168L15.7925 18.5L16.7744 18.6895L17.7563 18.8789L18.2934 16.0957L17.3115 15.9062ZM16.7744 18.6895V17.6895H8.62012V18.6895V19.6895H16.7744V18.6895ZM8.62012 18.6895L7.63869 18.4976L6.40529 24.8082L7.38672 25L8.36815 25.1918L9.60155 18.8813L8.62012 18.6895ZM7.38672 25V24H3.79785V25V26H7.38672V25ZM3.79785 25L4.77959 25.1902L8.1126 7.99004L7.13086 7.7998L6.14912 7.60957L2.81611 24.8098L3.79785 25ZM7.13086 7.7998V8.7998H19.167V7.7998V6.7998H7.13086V7.7998ZM19.167 7.7998L18.1851 7.61038L17.648 10.3946L18.6299 10.584L19.6118 10.7734L20.1489 7.98923L19.167 7.7998ZM28 25V24H16V25V26H28V25ZM16 25H17V23H16H15V25H16ZM16 23V24H28V23V22H16V23ZM28 23H27V25H28H29V23H28Z" fill="white" mask="url(#path-1-outside-1_71_30)"/>
<path d="M25.629 3.54427C26.0116 2.86596 26.9884 2.86596 27.371 3.54427L28.3465 5.27377C28.4361 5.43261 28.5674 5.56392 28.7262 5.65351L30.4557 6.62899C31.134 7.01157 31.134 7.98842 30.4557 8.37101L28.7262 9.34649C28.5674 9.43608 28.4361 9.56739 28.3465 9.72623L27.371 11.4557C26.9884 12.134 26.0116 12.134 25.629 11.4557L24.6535 9.72623C24.5639 9.56739 24.4326 9.43608 24.2738 9.34649L22.5443 8.37101C21.866 7.98843 21.866 7.01158 22.5443 6.62899L24.2738 5.65351C24.4326 5.56392 24.5639 5.43261 24.6535 5.27377L25.629 3.54427Z" fill="white"/>
<defs>
<linearGradient id="paint0_linear_71_30" x1="15.8989" y1="7.80078" x2="15.8989" y2="25" gradientUnits="userSpaceOnUse">
<stop stop-color="#427EFF"/>
<stop offset="1" stop-color="#3931A7"/>
</linearGradient>
</defs>
</svg>
