<svg width="32" height="32" viewBox="0 0 32 32" fill="none" xmlns="http://www.w3.org/2000/svg">
<path d="M4 20C4.55228 20 5 20.4477 5 21V27H11C11.5523 27 12 27.4477 12 28V29C12 29.5523 11.5523 30 11 30H3C2.44772 30 2 29.5523 2 29V21C2 20.4477 2.44772 20 3 20H4ZM29 20C29.5523 20 30 20.4477 30 21V29C30 29.5523 29.5523 30 29 30H21C20.4477 30 20 29.5523 20 29V28C20 27.4477 20.4477 27 21 27H27V21C27 20.4477 27.4477 20 28 20H29ZM17.3047 10.9922C18.5859 10.9922 19.5807 11.2839 20.2891 11.8672C21.0026 12.4505 21.3594 13.2578 21.3594 14.2891C21.3594 15.0703 21.1771 15.75 20.8125 16.3281C20.4531 16.901 19.9427 17.3438 19.2812 17.6562C18.625 17.9688 17.849 18.125 16.9531 18.125H14.0078L13.2422 22H10.9453L13.0781 10.9922H17.3047ZM14.3438 16.3516H16.6016C17.4089 16.3516 18.013 16.2005 18.4141 15.8984C18.8203 15.5964 19.0234 15.1016 19.0234 14.4141C19.0234 13.8828 18.8568 13.4792 18.5234 13.2031C18.1901 12.9219 17.7109 12.7812 17.0859 12.7812H15.0391L14.3438 16.3516ZM11 2C11.5523 2 12 2.44772 12 3V4C12 4.55228 11.5523 5 11 5H5V11C5 11.5523 4.55228 12 4 12H3C2.44772 12 2 11.5523 2 11V3C2 2.44772 2.44772 2 3 2H11ZM29 2C29.5523 2 30 2.44772 30 3V11C30 11.5523 29.5523 12 29 12H28C27.4477 12 27 11.5523 27 11V5H21C20.4477 5 20 4.55228 20 4V3C20 2.44772 20.4477 2 21 2H29Z" fill="url(#paint0_linear_71_2)"/>
<defs>
<linearGradient id="paint0_linear_71_2" x1="16" y1="2" x2="16" y2="30" gradientUnits="userSpaceOnUse">
<stop stop-color="#D9D9D9"/>
<stop offset="1" stop-color="#737373"/>
</linearGradient>
</defs>
</svg>
