<svg width="32" height="32" viewBox="0 0 32 32" fill="none" xmlns="http://www.w3.org/2000/svg">
<mask id="path-1-outside-1_43_3" maskUnits="userSpaceOnUse" x="3" y="3" width="26" height="25" fill="black">
<rect fill="white" x="3" y="3" width="26" height="25"/>
<path fill-rule="evenodd" clip-rule="evenodd" d="M20.2969 6.28809H27.9443V26.7305H4V6.28809H11.6484V4H20.2969V6.28809Z"/>
</mask>
<path fill-rule="evenodd" clip-rule="evenodd" d="M20.2969 6.28809H27.9443V26.7305H4V6.28809H11.6484V4H20.2969V6.28809Z" fill="url(#paint0_linear_43_3)"/>
<path d="M20.2969 6.28809H19.7969V6.78809H20.2969V6.28809ZM27.9443 6.28809H28.4443V5.78809H27.9443V6.28809ZM27.9443 26.7305V27.2305H28.4443V26.7305H27.9443ZM4 26.7305H3.5V27.2305H4V26.7305ZM4 6.28809V5.78809H3.5V6.28809H4ZM11.6484 6.28809V6.78809H12.1484V6.28809H11.6484ZM11.6484 4V3.5H11.1484V4H11.6484ZM20.2969 4H20.7969V3.5H20.2969V4ZM20.2969 6.28809V6.78809H27.9443V6.28809V5.78809H20.2969V6.28809ZM27.9443 6.28809H27.4443V26.7305H27.9443H28.4443V6.28809H27.9443ZM27.9443 26.7305V26.2305H4V26.7305V27.2305H27.9443V26.7305ZM4 26.7305H4.5V6.28809H4H3.5V26.7305H4ZM4 6.28809V6.78809H11.6484V6.28809V5.78809H4V6.28809ZM11.6484 6.28809H12.1484V4H11.6484H11.1484V6.28809H11.6484ZM11.6484 4V4.5H20.2969V4V3.5H11.6484V4ZM20.2969 4H19.7969V6.28809H20.2969H20.7969V4H20.2969Z" fill="black" mask="url(#path-1-outside-1_43_3)"/>
<circle cx="16" cy="17" r="7.25" fill="url(#paint1_linear_43_3)" stroke="#0B0B0B" stroke-width="0.5"/>
<circle cx="24" cy="10" r="1.25" fill="black" stroke="black" stroke-width="0.5"/>
<defs>
<linearGradient id="paint0_linear_43_3" x1="15.9722" y1="26.7305" x2="15.9722" y2="4" gradientUnits="userSpaceOnUse">
<stop stop-color="#242424"/>
<stop offset="0.394231" stop-color="#2A2A2A"/>
<stop offset="1" stop-color="#8A8A8A"/>
</linearGradient>
<linearGradient id="paint1_linear_43_3" x1="12.5" y1="11.4" x2="19.5" y2="23.3" gradientUnits="userSpaceOnUse">
<stop stop-color="white"/>
<stop offset="0.475962" stop-color="#F7F7F7"/>
<stop offset="1" stop-color="#999999"/>
</linearGradient>
</defs>
</svg>
