<svg width="32" height="32" viewBox="0 0 32 32" fill="none" xmlns="http://www.w3.org/2000/svg">
<path d="M4 20C4.55228 20 5 20.4477 5 21V27H11C11.5523 27 12 27.4477 12 28V29C12 29.5523 11.5523 30 11 30H3C2.44772 30 2 29.5523 2 29V21C2 20.4477 2.44772 20 3 20H4ZM29 20C29.5523 20 30 20.4477 30 21V29C30 29.5523 29.5523 30 29 30H21C20.4477 30 20 29.5523 20 29V28C20 27.4477 20.4477 27 21 27H27V21C27 20.4477 27.4477 20 28 20H29ZM12.5703 10.8281C13.7682 10.8281 14.75 11.0859 15.5156 11.6016C16.2865 12.112 16.8047 12.875 17.0703 13.8906L14.9297 14.4453C14.7786 13.888 14.4896 13.4479 14.0625 13.125C13.6354 12.8021 13.1146 12.6406 12.5 12.6406C11.3958 12.6406 10.4974 12.9818 9.80469 13.6641C9.3724 14.0859 9.03906 14.625 8.80469 15.2812C8.57552 15.9323 8.46094 16.6797 8.46094 17.5234C8.46094 18.4245 8.68229 19.1224 9.125 19.6172C9.57292 20.1068 10.2109 20.3516 11.0391 20.3516C11.7318 20.3516 12.349 20.1849 12.8906 19.8516C13.4375 19.513 13.9089 19.0078 14.3047 18.3359L16.0781 19.25C15.5312 20.2188 14.8229 20.9453 13.9531 21.4297C13.0885 21.9141 12.0651 22.1562 10.8828 22.1562C9.88802 22.1562 9.03125 21.9688 8.3125 21.5938C7.58854 21.2188 7.03906 20.6849 6.66406 19.9922C6.29427 19.2943 6.10938 18.4818 6.10938 17.5547C6.10938 16.2422 6.38281 15.0677 6.92969 14.0312C7.47656 13 8.23958 12.2083 9.21875 11.6562C10.2031 11.1042 11.3203 10.8281 12.5703 10.8281ZM22.3906 13.3984C23.6146 13.3984 24.5469 13.6849 25.1875 14.2578C25.8281 14.8255 26.1484 15.6276 26.1484 16.6641C26.1484 17.2005 26.0964 17.7109 25.9922 18.1953C25.888 18.6745 25.7292 19.1224 25.5156 19.5391C25.0885 20.3776 24.4844 21.0234 23.7031 21.4766C22.9271 21.9297 22.0495 22.1562 21.0703 22.1562C19.9349 22.1562 19.0365 21.8516 18.375 21.2422C17.7135 20.6276 17.3828 19.7891 17.3828 18.7266C17.3828 17.6797 17.5911 16.7526 18.0078 15.9453C18.4245 15.138 19.013 14.513 19.7734 14.0703C20.5391 13.6224 21.4115 13.3984 22.3906 13.3984ZM22.2266 14.8984C21.638 14.8984 21.1667 15.0547 20.8125 15.3672C20.5781 15.5755 20.375 15.862 20.2031 16.2266C20.0365 16.5859 19.9089 16.9792 19.8203 17.4062C19.7318 17.8281 19.6875 18.237 19.6875 18.6328C19.6875 19.3099 19.8229 19.8177 20.0938 20.1562C20.3646 20.4896 20.7708 20.6562 21.3125 20.6562C21.6042 20.6562 21.8646 20.6198 22.0938 20.5469C22.3281 20.4688 22.5312 20.3568 22.7031 20.2109C23.0417 19.9193 23.3073 19.474 23.5 18.875C23.6979 18.276 23.8151 17.5938 23.8516 16.8281C23.8516 15.5417 23.3099 14.8984 22.2266 14.8984ZM11 2C11.5523 2 12 2.44772 12 3V4C12 4.55228 11.5523 5 11 5H5V11C5 11.5523 4.55228 12 4 12H3C2.44772 12 2 11.5523 2 11V3C2 2.44772 2.44772 2 3 2H11ZM29 2C29.5523 2 30 2.44772 30 3V11C30 11.5523 29.5523 12 29 12H28C27.4477 12 27 11.5523 27 11V5H21C20.4477 5 20 4.55228 20 4V3C20 2.44772 20.4477 2 21 2H29Z" fill="url(#paint0_linear_71_65)"/>
<defs>
<linearGradient id="paint0_linear_71_65" x1="16" y1="2" x2="16" y2="30" gradientUnits="userSpaceOnUse">
<stop stop-color="#D9D9D9"/>
<stop offset="1" stop-color="#737373"/>
</linearGradient>
</defs>
</svg>
