<svg width="32" height="32" viewBox="0 0 32 32" fill="none" xmlns="http://www.w3.org/2000/svg">
<mask id="path-1-outside-1_19_2" maskUnits="userSpaceOnUse" x="0" y="0" width="28" height="25" fill="black">
<rect fill="white" width="28" height="25"/>
<path d="M7.05566 19.8125C7.43735 19.4135 8.07063 19.3988 8.46973 19.7803C8.86878 20.162 8.88269 20.7953 8.50098 21.1943L6.42773 23.3623C6.04596 23.7614 5.41275 23.7753 5.01367 23.3936C4.61459 23.0118 4.60064 22.3786 4.98242 21.9795L7.05566 19.8125ZM14 7C17.866 7 21 10.134 21 14C21 17.866 17.866 21 14 21C10.134 21 7 17.866 7 14C7 10.134 10.134 7 14 7ZM5 13C5.55228 13 6 13.4477 6 14C6 14.5523 5.55228 15 5 15H2C1.44772 15 1 14.5523 1 14C1 13.4477 1.44772 13 2 13H5ZM26 13C26.5523 13 27 13.4477 27 14C27 14.5523 26.5523 15 26 15H23C22.4477 15 22 14.5523 22 14C22 13.4477 22.4477 13 23 13H26ZM4.60645 5.01367C4.98822 4.61459 5.62143 4.60064 6.02051 4.98242L8.1875 7.05566C8.58648 7.43735 8.60122 8.07063 8.21973 8.46973C7.83797 8.86878 7.20475 8.88269 6.80566 8.50098L4.6377 6.42773C4.23862 6.04596 4.22468 5.41275 4.60645 5.01367ZM21.5723 4.6377C21.954 4.23862 22.5872 4.22468 22.9863 4.60645C23.3854 4.98822 23.3994 5.62143 23.0176 6.02051L20.9443 8.1875C20.5627 8.58648 19.9294 8.60122 19.5303 8.21973C19.1312 7.83797 19.1173 7.20475 19.499 6.80566L21.5723 4.6377ZM14 1C14.5523 1 15 1.44772 15 2V5C15 5.55228 14.5523 6 14 6C13.4477 6 13 5.55228 13 5V2C13 1.44772 13.4477 1 14 1Z"/>
</mask>
<path d="M7.05566 19.8125C7.43735 19.4135 8.07063 19.3988 8.46973 19.7803C8.86878 20.162 8.88269 20.7953 8.50098 21.1943L6.42773 23.3623C6.04596 23.7614 5.41275 23.7753 5.01367 23.3936C4.61459 23.0118 4.60064 22.3786 4.98242 21.9795L7.05566 19.8125ZM14 7C17.866 7 21 10.134 21 14C21 17.866 17.866 21 14 21C10.134 21 7 17.866 7 14C7 10.134 10.134 7 14 7ZM5 13C5.55228 13 6 13.4477 6 14C6 14.5523 5.55228 15 5 15H2C1.44772 15 1 14.5523 1 14C1 13.4477 1.44772 13 2 13H5ZM26 13C26.5523 13 27 13.4477 27 14C27 14.5523 26.5523 15 26 15H23C22.4477 15 22 14.5523 22 14C22 13.4477 22.4477 13 23 13H26ZM4.60645 5.01367C4.98822 4.61459 5.62143 4.60064 6.02051 4.98242L8.1875 7.05566C8.58648 7.43735 8.60122 8.07063 8.21973 8.46973C7.83797 8.86878 7.20475 8.88269 6.80566 8.50098L4.6377 6.42773C4.23862 6.04596 4.22468 5.41275 4.60645 5.01367ZM21.5723 4.6377C21.954 4.23862 22.5872 4.22468 22.9863 4.60645C23.3854 4.98822 23.3994 5.62143 23.0176 6.02051L20.9443 8.1875C20.5627 8.58648 19.9294 8.60122 19.5303 8.21973C19.1312 7.83797 19.1173 7.20475 19.499 6.80566L21.5723 4.6377ZM14 1C14.5523 1 15 1.44772 15 2V5C15 5.55228 14.5523 6 14 6C13.4477 6 13 5.55228 13 5V2C13 1.44772 13.4477 1 14 1Z" fill="url(#paint0_linear_19_2)"/>
<path d="M7.05566 19.8125L7.41695 20.1582L7.41696 20.1581L7.05566 19.8125ZM8.46973 19.7803L8.81536 19.419L8.81522 19.4188L8.46973 19.7803ZM8.50098 21.1943L8.13965 20.8487L8.13962 20.8488L8.50098 21.1943ZM6.42773 23.3623L6.78903 23.7079L6.78909 23.7079L6.42773 23.3623ZM5.01367 23.3936L4.66804 23.7549L4.66804 23.7549L5.01367 23.3936ZM4.98242 21.9795L4.62114 21.6338L4.62112 21.6339L4.98242 21.9795ZM5 15V15.5V15ZM2 13V12.5V13ZM26 15V15.5V15ZM23 13V12.5V13ZM4.60645 5.01367L4.24515 4.66804L4.24514 4.66805L4.60645 5.01367ZM6.02051 4.98242L6.36616 4.62114L6.36614 4.62112L6.02051 4.98242ZM8.1875 7.05566L7.84185 7.41695L7.84186 7.41696L8.1875 7.05566ZM8.21973 8.46973L8.58102 8.81536L8.58116 8.81522L8.21973 8.46973ZM6.80566 8.50098L7.15127 8.13965L7.15123 8.13962L6.80566 8.50098ZM4.6377 6.42773L4.29206 6.78903L4.29212 6.78909L4.6377 6.42773ZM21.5723 4.6377L21.211 4.29206L21.2109 4.29212L21.5723 4.6377ZM22.9863 4.60645L23.332 4.24515L23.332 4.24514L22.9863 4.60645ZM23.0176 6.02051L23.3789 6.36616L23.3789 6.36614L23.0176 6.02051ZM20.9443 8.1875L20.5831 7.84185L20.583 7.84186L20.9443 8.1875ZM19.5303 8.21973L19.1846 8.58102L19.1848 8.58116L19.5303 8.21973ZM19.499 6.80566L19.8604 7.15127L19.8604 7.15123L19.499 6.80566ZM15 2H15.5H15ZM13 5H12.5H13ZM7.05566 19.8125L7.41696 20.1581C7.60819 19.9582 7.9251 19.9514 8.12423 20.1417L8.46973 19.7803L8.81522 19.4188C8.21617 18.8462 7.26651 18.8688 6.69437 19.4669L7.05566 19.8125ZM8.46973 19.7803L8.12409 20.1416C8.32352 20.3324 8.3306 20.6491 8.13965 20.8487L8.50098 21.1943L8.8623 21.5399C9.43479 20.9414 9.41404 19.9917 8.81536 19.419L8.46973 19.7803ZM8.50098 21.1943L8.13962 20.8488L6.06637 23.0167L6.42773 23.3623L6.78909 23.7079L8.86234 21.5399L8.50098 21.1943ZM6.42773 23.3623L6.06644 23.0167C5.87561 23.2161 5.5589 23.2232 5.3593 23.0322L5.01367 23.3936L4.66804 23.7549C5.2666 24.3274 6.21631 24.3066 6.78903 23.7079L6.42773 23.3623ZM5.01367 23.3936L5.35931 23.0323C5.15982 22.8414 5.15278 22.5247 5.34372 22.3251L4.98242 21.9795L4.62112 21.6339C4.04851 22.2324 4.06937 23.1821 4.66804 23.7549L5.01367 23.3936ZM4.98242 21.9795L5.3437 22.3251L7.41695 20.1582L7.05566 19.8125L6.69438 19.4668L4.62114 21.6338L4.98242 21.9795ZM14 7V7.5C17.5899 7.5 20.5 10.4101 20.5 14H21H21.5C21.5 9.85786 18.1421 6.5 14 6.5V7ZM21 14H20.5C20.5 17.5899 17.5899 20.5 14 20.5V21V21.5C18.1421 21.5 21.5 18.1421 21.5 14H21ZM14 21V20.5C10.4101 20.5 7.5 17.5899 7.5 14H7H6.5C6.5 18.1421 9.85786 21.5 14 21.5V21ZM7 14H7.5C7.5 10.4101 10.4101 7.5 14 7.5V7V6.5C9.85786 6.5 6.5 9.85786 6.5 14H7ZM5 13V13.5C5.27614 13.5 5.5 13.7239 5.5 14H6H6.5C6.5 13.1716 5.82843 12.5 5 12.5V13ZM6 14H5.5C5.5 14.2761 5.27614 14.5 5 14.5V15V15.5C5.82843 15.5 6.5 14.8284 6.5 14H6ZM5 15V14.5H2V15V15.5H5V15ZM2 15V14.5C1.72386 14.5 1.5 14.2761 1.5 14H1H0.5C0.5 14.8284 1.17157 15.5 2 15.5V15ZM1 14H1.5C1.5 13.7239 1.72386 13.5 2 13.5V13V12.5C1.17157 12.5 0.5 13.1716 0.5 14H1ZM2 13V13.5H5V13V12.5H2V13ZM26 13V13.5C26.2761 13.5 26.5 13.7239 26.5 14H27H27.5C27.5 13.1716 26.8284 12.5 26 12.5V13ZM27 14H26.5C26.5 14.2761 26.2761 14.5 26 14.5V15V15.5C26.8284 15.5 27.5 14.8284 27.5 14H27ZM26 15V14.5H23V15V15.5H26V15ZM23 15V14.5C22.7239 14.5 22.5 14.2761 22.5 14H22H21.5C21.5 14.8284 22.1716 15.5 23 15.5V15ZM22 14H22.5C22.5 13.7239 22.7239 13.5 23 13.5V13V12.5C22.1716 12.5 21.5 13.1716 21.5 14H22ZM23 13V13.5H26V13V12.5H23V13ZM4.60645 5.01367L4.96774 5.35931C5.15858 5.15982 5.47528 5.15278 5.67487 5.34372L6.02051 4.98242L6.36614 4.62112C5.76758 4.04851 4.81787 4.06937 4.24515 4.66804L4.60645 5.01367ZM6.02051 4.98242L5.67486 5.3437L7.84185 7.41695L8.1875 7.05566L8.53315 6.69438L6.36616 4.62114L6.02051 4.98242ZM8.1875 7.05566L7.84186 7.41696C8.04176 7.60819 8.04865 7.9251 7.85829 8.12423L8.21973 8.46973L8.58116 8.81522C9.15379 8.21617 9.1312 7.26651 8.53314 6.69437L8.1875 7.05566ZM8.21973 8.46973L7.85843 8.12409C7.66764 8.32352 7.3509 8.3306 7.15127 8.13965L6.80566 8.50098L6.46006 8.8623C7.05859 9.43479 8.0083 9.41404 8.58102 8.81536L8.21973 8.46973ZM6.80566 8.50098L7.15123 8.13962L4.98327 6.06637L4.6377 6.42773L4.29212 6.78909L6.46009 8.86234L6.80566 8.50098ZM4.6377 6.42773L4.98333 6.06644C4.78386 5.87561 4.77681 5.5589 4.96775 5.3593L4.60645 5.01367L4.24514 4.66805C3.67256 5.2666 3.69339 6.21631 4.29206 6.78903L4.6377 6.42773ZM21.5723 4.6377L21.9336 4.98333C22.1244 4.78386 22.4411 4.77681 22.6407 4.96775L22.9863 4.60645L23.332 4.24514C22.7334 3.67256 21.7837 3.69339 21.211 4.29206L21.5723 4.6377ZM22.9863 4.60645L22.6407 4.96774C22.8402 5.15858 22.8472 5.47528 22.6563 5.67487L23.0176 6.02051L23.3789 6.36614C23.9515 5.76758 23.9306 4.81787 23.332 4.24515L22.9863 4.60645ZM23.0176 6.02051L22.6563 5.67486L20.5831 7.84185L20.9443 8.1875L21.3056 8.53315L23.3789 6.36616L23.0176 6.02051ZM20.9443 8.1875L20.583 7.84186C20.3918 8.04176 20.0749 8.04865 19.8758 7.85829L19.5303 8.21973L19.1848 8.58116C19.7838 9.15379 20.7335 9.1312 21.3056 8.53314L20.9443 8.1875ZM19.5303 8.21973L19.8759 7.85843C19.6765 7.66764 19.6694 7.3509 19.8604 7.15127L19.499 6.80566L19.1377 6.46006C18.5652 7.05859 18.586 8.0083 19.1846 8.58102L19.5303 8.21973ZM19.499 6.80566L19.8604 7.15123L21.9336 4.98327L21.5723 4.6377L21.2109 4.29212L19.1377 6.46009L19.499 6.80566ZM14 1V1.5C14.2761 1.5 14.5 1.72386 14.5 2H15H15.5C15.5 1.17157 14.8284 0.5 14 0.5V1ZM15 2H14.5V5H15H15.5V2H15ZM15 5H14.5C14.5 5.27614 14.2761 5.5 14 5.5V6V6.5C14.8284 6.5 15.5 5.82843 15.5 5H15ZM14 6V5.5C13.7239 5.5 13.5 5.27614 13.5 5H13H12.5C12.5 5.82843 13.1716 6.5 14 6.5V6ZM13 5H13.5V2H13H12.5V5H13ZM13 2H13.5C13.5 1.72386 13.7239 1.5 14 1.5V1V0.5C13.1716 0.5 12.5 1.17157 12.5 2H13Z" fill="#FFBA58" mask="url(#path-1-outside-1_19_2)"/>
<mask id="path-3-outside-2_19_2" maskUnits="userSpaceOnUse" x="3" y="15" width="28" height="14" fill="black">
<rect fill="white" x="3" y="15" width="28" height="14"/>
<path d="M17 16C20.7608 16 23.8096 18.4624 23.8096 21.5C23.8096 21.7034 23.7942 21.9039 23.7676 22.1016C24.1759 22.0356 24.6052 22 25.0479 22C27.7829 22.0001 30 23.3432 30 25V28H4V24H4.03516C4.01267 23.8358 4 23.6691 4 23.5C4 21.0148 6.49434 19.0001 9.57129 19C10.0143 19 10.4452 19.0431 10.8584 19.1221C11.9565 17.2752 14.2938 16 17 16Z"/>
</mask>
<path d="M17 16C20.7608 16 23.8096 18.4624 23.8096 21.5C23.8096 21.7034 23.7942 21.9039 23.7676 22.1016C24.1759 22.0356 24.6052 22 25.0479 22C27.7829 22.0001 30 23.3432 30 25V28H4V24H4.03516C4.01267 23.8358 4 23.6691 4 23.5C4 21.0148 6.49434 19.0001 9.57129 19C10.0143 19 10.4452 19.0431 10.8584 19.1221C11.9565 17.2752 14.2938 16 17 16Z" fill="url(#paint1_linear_19_2)"/>
<path d="M23.7676 22.1016L23.2721 22.0348L23.1821 22.7027L23.8474 22.5952L23.7676 22.1016ZM25.0479 22L25.0479 21.5H25.0479V22ZM30 28V28.5H30.5V28H30ZM4 28H3.5V28.5H4V28ZM4 24V23.5H3.5V24H4ZM4.03516 24V24.5H4.60827L4.53054 23.9322L4.03516 24ZM9.57129 19V18.5H9.57128L9.57129 19ZM10.8584 19.1221L10.7646 19.6132L11.109 19.679L11.2882 19.3776L10.8584 19.1221ZM17 16V16.5C20.5897 16.5 23.3096 18.833 23.3096 21.5H23.8096H24.3096C24.3096 18.0918 20.9319 15.5 17 15.5V16ZM23.8096 21.5H23.3096C23.3096 21.6782 23.2961 21.8563 23.2721 22.0348L23.7676 22.1016L24.2631 22.1683C24.2923 21.9516 24.3096 21.7285 24.3096 21.5H23.8096ZM23.7676 22.1016L23.8474 22.5952C24.2293 22.5334 24.6319 22.5 25.0479 22.5V22V21.5C24.5785 21.5 24.1226 21.5377 23.6878 21.608L23.7676 22.1016ZM25.0479 22L25.0478 22.5C26.3395 22.5 27.4847 22.8182 28.2905 23.3064C29.1055 23.8001 29.5 24.4139 29.5 25H30H30.5C30.5 23.9293 29.7859 23.0431 28.8086 22.4511C27.8221 21.8534 26.4913 21.5 25.0479 21.5L25.0479 22ZM30 25H29.5V28H30H30.5V25H30ZM30 28V27.5H4V28V28.5H30V28ZM4 28H4.5V24H4H3.5V28H4ZM4 24V24.5H4.03516V24V23.5H4V24ZM4.03516 24L4.53054 23.9322C4.5108 23.788 4.5 23.644 4.5 23.5H4H3.5C3.5 23.6941 3.51455 23.8836 3.53978 24.0678L4.03516 24ZM4 23.5H4.5C4.5 21.3853 6.66546 19.5001 9.5713 19.5L9.57129 19L9.57128 18.5C6.32321 18.5001 3.5 20.6442 3.5 23.5H4ZM9.57129 19V19.5C9.98187 19.5 10.3813 19.54 10.7646 19.6132L10.8584 19.1221L10.9522 18.631C10.5091 18.5463 10.0468 18.5 9.57129 18.5V19ZM10.8584 19.1221L11.2882 19.3776C12.2815 17.707 14.4394 16.5 17 16.5V16V15.5C14.1482 15.5 11.6316 16.8434 10.4286 18.8665L10.8584 19.1221Z" fill="#AAB6CE" mask="url(#path-3-outside-2_19_2)"/>
<defs>
<linearGradient id="paint0_linear_19_2" x1="14" y1="1" x2="14" y2="23.671" gradientUnits="userSpaceOnUse">
<stop stop-color="#FCFFA3"/>
<stop offset="0.524038" stop-color="#FAFBA0"/>
<stop offset="1" stop-color="#D8AC66"/>
</linearGradient>
<linearGradient id="paint1_linear_19_2" x1="17" y1="16" x2="17" y2="28" gradientUnits="userSpaceOnUse">
<stop stop-color="white"/>
<stop offset="1" stop-color="#AAB6CE"/>
</linearGradient>
</defs>
</svg>
