<svg width="32" height="32" viewBox="0 0 32 32" fill="none" xmlns="http://www.w3.org/2000/svg">
<g clip-path="url(#clip0_72_80)">
<g filter="url(#filter0_d_72_80)">
<path d="M13 5C14.1046 5 15 5.89543 15 7V9H28C28.5523 9 29 9.44772 29 10V25L27.0215 26.9785L27 26.957V27H25V25H6C5.44772 25 5 24.5523 5 24V7C5 5.89543 5.89543 5 7 5H13Z" fill="url(#paint0_linear_72_80)"/>
<path d="M11 7C12.1046 7 13 7.89543 13 9V11H26C26.5523 11 27 11.4477 27 12V26C27 26.5523 26.5523 27 26 27H4C3.44772 27 3 26.5523 3 26V9C3 7.89543 3.89543 7 5 7H11Z" fill="url(#paint1_linear_72_80)"/>
</g>
</g>
<defs>
<filter id="filter0_d_72_80" x="-1" y="5" width="34" height="30" filterUnits="userSpaceOnUse" color-interpolation-filters="sRGB">
<feFlood flood-opacity="0" result="BackgroundImageFix"/>
<feColorMatrix in="SourceAlpha" type="matrix" values="0 0 0 0 0 0 0 0 0 0 0 0 0 0 0 0 0 0 127 0" result="hardAlpha"/>
<feOffset dy="4"/>
<feGaussianBlur stdDeviation="2"/>
<feComposite in2="hardAlpha" operator="out"/>
<feColorMatrix type="matrix" values="0 0 0 0 0 0 0 0 0 0 0 0 0 0 0 0 0 0 0.25 0"/>
<feBlend mode="normal" in2="BackgroundImageFix" result="effect1_dropShadow_72_80"/>
<feBlend mode="normal" in="SourceGraphic" in2="effect1_dropShadow_72_80" result="shape"/>
</filter>
<linearGradient id="paint0_linear_72_80" x1="17" y1="5" x2="17" y2="27" gradientUnits="userSpaceOnUse">
<stop stop-color="#FFB33A"/>
<stop offset="1" stop-color="#FF7B42"/>
</linearGradient>
<linearGradient id="paint1_linear_72_80" x1="15" y1="7" x2="15" y2="27" gradientUnits="userSpaceOnUse">
<stop stop-color="#FFE867"/>
<stop offset="1" stop-color="#FFBD43"/>
</linearGradient>
<clipPath id="clip0_72_80">
<rect width="32" height="32" fill="white"/>
</clipPath>
</defs>
</svg>
