<svg width="32" height="32" viewBox="0 0 32 32" fill="none" xmlns="http://www.w3.org/2000/svg">
<rect x="1.75" y="0.75" width="15.5" height="16.5" fill="white" stroke="black" stroke-width="0.5"/>
<rect x="2" y="1" width="15" height="0.615385" fill="#434343"/>
<rect x="2" y="1" width="0.576923" height="0.615385" fill="#FF3737"/>
<rect x="2.57692" y="1" width="0.576923" height="0.615385" fill="#FFB937"/>
<rect x="3.15385" y="1" width="0.576923" height="0.615385" fill="#37FF5C"/>
<rect x="11.75" y="2.75" width="19.5" height="21.5" fill="white" stroke="black" stroke-width="0.5"/>
<rect x="12" y="3" width="19" height="0.807692" fill="#434343"/>
<rect x="12" y="3" width="0.730769" height="0.807692" fill="#FF3737"/>
<rect x="12.7308" y="3" width="0.730769" height="0.807692" fill="#FFB937"/>
<rect x="13.4615" y="3" width="0.730769" height="0.807692" fill="#37FF5C"/>
<rect x="3.75" y="6.75" width="17.5" height="19.5" fill="white" stroke="black" stroke-width="0.5"/>
<rect x="4" y="7" width="17" height="0.730769" fill="#434343"/>
<rect x="4" y="7" width="0.653846" height="0.730769" fill="#FF3737"/>
<rect x="4.65385" y="7" width="0.653846" height="0.730769" fill="#FFB937"/>
<rect x="5.30769" y="7" width="0.653846" height="0.730769" fill="#37FF5C"/>
<mask id="path-16-outside-1_41_39" maskUnits="userSpaceOnUse" x="20.861" y="22.8425" width="9.96956" height="9.82276" fill="black">
<rect fill="white" x="20.861" y="22.8425" width="9.96956" height="9.82276"/>
<path d="M27.3694 27.237L26.7501 27.8893L28.4328 29.4869L27.6582 30.3027L25.9755 28.7052L25.3562 29.3574L24.0066 26.0602L27.3694 27.237Z"/>
</mask>
<path d="M27.3694 27.237L26.7501 27.8893L28.4328 29.4869L27.6582 30.3027L25.9755 28.7052L25.3562 29.3574L24.0066 26.0602L27.3694 27.237Z" fill="black"/>
<path d="M27.3694 27.237L27.732 27.5813L28.2644 27.0205L27.5345 26.7651L27.3694 27.237ZM26.7501 27.8893L26.3875 27.545L26.0432 27.9076L26.4058 28.2519L26.7501 27.8893ZM28.4328 29.4869L28.7954 29.8311L29.1397 29.4685L28.7771 29.1243L28.4328 29.4869ZM27.6582 30.3027L27.314 30.6653L27.6766 31.0096L28.0209 30.647L27.6582 30.3027ZM25.9755 28.7052L26.3198 28.3425L25.9572 27.9983L25.6129 28.3609L25.9755 28.7052ZM25.3562 29.3574L24.8935 29.5468L25.1865 30.2625L25.7189 29.7017L25.3562 29.3574ZM24.0066 26.0602L24.1717 25.5883L23.1229 25.2212L23.5438 26.2496L24.0066 26.0602ZM27.3694 27.237L27.0068 26.8928L26.3875 27.545L26.7501 27.8893L27.1127 28.2335L27.732 27.5813L27.3694 27.237ZM26.7501 27.8893L26.4058 28.2519L28.0886 29.8495L28.4328 29.4869L28.7771 29.1243L27.0944 27.5267L26.7501 27.8893ZM28.4328 29.4869L28.0702 29.1426L27.2956 29.9585L27.6582 30.3027L28.0209 30.647L28.7954 29.8311L28.4328 29.4869ZM27.6582 30.3027L28.0025 29.9401L26.3198 28.3425L25.9755 28.7052L25.6313 29.0678L27.314 30.6653L27.6582 30.3027ZM25.9755 28.7052L25.6129 28.3609L24.9936 29.0132L25.3562 29.3574L25.7189 29.7017L26.3381 29.0494L25.9755 28.7052ZM25.3562 29.3574L25.819 29.168L24.4693 25.8708L24.0066 26.0602L23.5438 26.2496L24.8935 29.5468L25.3562 29.3574ZM24.0066 26.0602L23.8414 26.5321L27.2042 27.709L27.3694 27.237L27.5345 26.7651L24.1717 25.5883L24.0066 26.0602Z" fill="white" mask="url(#path-16-outside-1_41_39)"/>
</svg>
