<svg width="32" height="32" viewBox="0 0 32 32" fill="none" xmlns="http://www.w3.org/2000/svg">
<g clip-path="url(#clip0_73_121)">
<g filter="url(#filter0_d_73_121)">
<rect x="4" y="7" width="18" height="18" fill="url(#paint0_radial_73_121)" stroke="#373737" stroke-width="2"/>
</g>
<g filter="url(#filter1_d_73_121)">
<rect x="4" y="5" width="18" height="18" fill="url(#paint1_radial_73_121)" stroke="url(#paint2_linear_73_121)" stroke-width="2"/>
</g>
<mask id="path-3-outside-1_73_121" maskUnits="userSpaceOnUse" x="4.61508" y="5.61509" width="8" height="8" fill="black">
<rect fill="white" x="4.61508" y="5.61509" width="8" height="8"/>
<path d="M8.73535 11.291C8.86748 11.2956 8.97441 11.4059 8.97461 11.5381L8.97559 12.1719C8.97562 12.304 8.86835 12.4076 8.73633 12.4033C8.60421 12.3988 8.49631 12.2884 8.49609 12.1562V11.5215C8.49632 11.3895 8.60337 11.2866 8.73535 11.291ZM7.10059 10.8262C7.19052 10.7357 7.33969 10.733 7.43359 10.8193C7.5274 10.9057 7.53113 11.0491 7.44141 11.1396L6.9541 11.6299C6.86418 11.7204 6.715 11.724 6.62109 11.6377C6.5273 11.5513 6.5236 11.408 6.61328 11.3174L7.10059 10.8262ZM10.0674 10.792C10.166 10.7102 10.3207 10.7159 10.4131 10.8047L10.9121 11.2842C11.0042 11.373 10.9987 11.511 10.9004 11.5928C10.8018 11.6746 10.647 11.6689 10.5547 11.5801L10.0566 11.1006C9.96436 11.0118 9.96896 10.8739 10.0674 10.792ZM8.73535 7.92383C9.64486 7.92394 10.3818 8.63403 10.3818 9.50977C10.3818 10.3854 9.64482 11.0956 8.73535 11.0957C7.82578 11.0957 7.08796 10.3855 7.08789 9.50977C7.08789 8.63395 7.82574 7.92383 8.73535 7.92383ZM6.60156 9.29395C6.7241 9.29384 6.81994 9.3931 6.81543 9.51562C6.8107 9.63804 6.70749 9.73782 6.58496 9.73828L5.8291 9.74023C5.70646 9.74046 5.61073 9.64115 5.61523 9.51855C5.6198 9.39593 5.72298 9.29625 5.8457 9.2959L6.60156 9.29395ZM11.6406 9.2793C11.7634 9.27894 11.86 9.3783 11.8555 9.50098C11.8508 9.62335 11.7475 9.72305 11.625 9.72363L10.8691 9.72559C10.7464 9.72593 10.6508 9.62658 10.6553 9.50391C10.6599 9.38132 10.763 9.2816 10.8857 9.28125L11.6406 9.2793ZM6.57031 7.42578C6.66895 7.34429 6.8238 7.34974 6.91602 7.43848L7.41406 7.91797C7.50641 8.00683 7.50096 8.1457 7.40234 8.22754C7.30371 8.30918 7.14891 8.30363 7.05664 8.21484L6.55859 7.73535C6.46625 7.64649 6.47169 7.50762 6.57031 7.42578ZM10.5166 7.38867C10.6066 7.29824 10.7558 7.29539 10.8496 7.38184C10.9433 7.46834 10.9464 7.61164 10.8564 7.70215L10.3691 8.19238C10.2792 8.28294 10.13 8.28668 10.0361 8.2002C9.94231 8.11375 9.93948 7.97044 10.0293 7.87988L10.5166 7.38867ZM8.73437 6.61523C8.86658 6.61977 8.97355 6.73101 8.97363 6.86328V7.49707C8.97367 7.62938 8.86661 7.73306 8.73437 7.72852C8.60229 7.72381 8.49515 7.61267 8.49512 7.48047V6.84668C8.49522 6.7145 8.60225 6.61073 8.73437 6.61523Z"/>
</mask>
<path d="M8.73535 11.291C8.86748 11.2956 8.97441 11.4059 8.97461 11.5381L8.97559 12.1719C8.97562 12.304 8.86835 12.4076 8.73633 12.4033C8.60421 12.3988 8.49631 12.2884 8.49609 12.1562V11.5215C8.49632 11.3895 8.60337 11.2866 8.73535 11.291ZM7.10059 10.8262C7.19052 10.7357 7.33969 10.733 7.43359 10.8193C7.5274 10.9057 7.53113 11.0491 7.44141 11.1396L6.9541 11.6299C6.86418 11.7204 6.715 11.724 6.62109 11.6377C6.5273 11.5513 6.5236 11.408 6.61328 11.3174L7.10059 10.8262ZM10.0674 10.792C10.166 10.7102 10.3207 10.7159 10.4131 10.8047L10.9121 11.2842C11.0042 11.373 10.9987 11.511 10.9004 11.5928C10.8018 11.6746 10.647 11.6689 10.5547 11.5801L10.0566 11.1006C9.96436 11.0118 9.96896 10.8739 10.0674 10.792ZM8.73535 7.92383C9.64486 7.92394 10.3818 8.63403 10.3818 9.50977C10.3818 10.3854 9.64482 11.0956 8.73535 11.0957C7.82578 11.0957 7.08796 10.3855 7.08789 9.50977C7.08789 8.63395 7.82574 7.92383 8.73535 7.92383ZM6.60156 9.29395C6.7241 9.29384 6.81994 9.3931 6.81543 9.51562C6.8107 9.63804 6.70749 9.73782 6.58496 9.73828L5.8291 9.74023C5.70646 9.74046 5.61073 9.64115 5.61523 9.51855C5.6198 9.39593 5.72298 9.29625 5.8457 9.2959L6.60156 9.29395ZM11.6406 9.2793C11.7634 9.27894 11.86 9.3783 11.8555 9.50098C11.8508 9.62335 11.7475 9.72305 11.625 9.72363L10.8691 9.72559C10.7464 9.72593 10.6508 9.62658 10.6553 9.50391C10.6599 9.38132 10.763 9.2816 10.8857 9.28125L11.6406 9.2793ZM6.57031 7.42578C6.66895 7.34429 6.8238 7.34974 6.91602 7.43848L7.41406 7.91797C7.50641 8.00683 7.50096 8.1457 7.40234 8.22754C7.30371 8.30918 7.14891 8.30363 7.05664 8.21484L6.55859 7.73535C6.46625 7.64649 6.47169 7.50762 6.57031 7.42578ZM10.5166 7.38867C10.6066 7.29824 10.7558 7.29539 10.8496 7.38184C10.9433 7.46834 10.9464 7.61164 10.8564 7.70215L10.3691 8.19238C10.2792 8.28294 10.13 8.28668 10.0361 8.2002C9.94231 8.11375 9.93948 7.97044 10.0293 7.87988L10.5166 7.38867ZM8.73437 6.61523C8.86658 6.61977 8.97355 6.73101 8.97363 6.86328V7.49707C8.97367 7.62938 8.86661 7.73306 8.73437 7.72852C8.60229 7.72381 8.49515 7.61267 8.49512 7.48047V6.84668C8.49522 6.7145 8.60225 6.61073 8.73437 6.61523Z" fill="url(#paint3_linear_73_121)"/>
<path d="M8.73535 11.291L8.75251 10.7913L8.75209 10.7913L8.73535 11.291ZM8.97461 11.5381L8.47461 11.5388V11.5389L8.97461 11.5381ZM8.97559 12.1719L9.47559 12.1718L9.47559 12.1711L8.97559 12.1719ZM8.73633 12.4033L8.71917 12.903L8.72013 12.9031L8.73633 12.4033ZM8.49609 12.1562H7.99609L7.99609 12.1571L8.49609 12.1562ZM8.49609 11.5215L7.99609 11.5206V11.5215H8.49609ZM7.10059 10.8262L6.74589 10.4738L6.74562 10.474L7.10059 10.8262ZM7.43359 10.8193L7.77234 10.4516L7.77204 10.4513L7.43359 10.8193ZM7.44141 11.1396L7.79602 11.4921L7.79663 11.4915L7.44141 11.1396ZM6.9541 11.6299L6.59949 11.2774L6.59941 11.2775L6.9541 11.6299ZM6.62109 11.6377L6.28235 12.0055L6.28275 12.0058L6.62109 11.6377ZM6.61328 11.3174L6.25832 10.9652L6.25797 10.9656L6.61328 11.3174ZM10.0674 10.792L9.74808 10.4072L9.74765 10.4076L10.0674 10.792ZM10.4131 10.8047L10.0666 11.1652L10.0667 11.1652L10.4131 10.8047ZM10.9121 11.2842L11.2592 10.9243L11.2585 10.9236L10.9121 11.2842ZM10.9004 11.5928L11.2197 11.9775L11.2201 11.9772L10.9004 11.5928ZM10.5547 11.5801L10.2079 11.9403L10.208 11.9404L10.5547 11.5801ZM10.0566 11.1006L10.4034 10.7404L10.4033 10.7403L10.0566 11.1006ZM8.73535 7.92383L8.73542 7.42383H8.73535V7.92383ZM10.3818 9.50977L10.8818 9.5098V9.50977H10.3818ZM8.73535 11.0957V11.5957H8.73542L8.73535 11.0957ZM7.08789 9.50977H6.58789V9.5098L7.08789 9.50977ZM6.60156 9.29395L6.60114 8.79394L6.60027 8.79395L6.60156 9.29395ZM6.81543 9.51562L7.31506 9.53493L7.31509 9.534L6.81543 9.51562ZM6.58496 9.73828L6.58625 10.2383L6.58685 10.2383L6.58496 9.73828ZM5.8291 9.74023L5.83 10.2402L5.83039 10.2402L5.8291 9.74023ZM5.61523 9.51855L5.11558 9.49994L5.11557 9.50018L5.61523 9.51855ZM5.8457 9.2959L5.84441 8.7959L5.84426 8.7959L5.8457 9.2959ZM11.6406 9.2793L11.6419 9.7793L11.6421 9.77929L11.6406 9.2793ZM11.8555 9.50098L12.3551 9.52011L12.3551 9.51935L11.8555 9.50098ZM11.625 9.72363L11.6263 10.2236L11.6274 10.2236L11.625 9.72363ZM10.8691 9.72559L10.8678 9.22559L10.8677 9.22559L10.8691 9.72559ZM10.6553 9.50391L10.1556 9.48512L10.1556 9.48553L10.6553 9.50391ZM10.8857 9.28125L10.8844 8.78125L10.8843 8.78125L10.8857 9.28125ZM6.57031 7.42578L6.25186 7.04031L6.25101 7.04102L6.57031 7.42578ZM6.91602 7.43848L7.2628 7.07828L7.26271 7.07819L6.91602 7.43848ZM7.41406 7.91797L7.06728 8.27817L7.06737 8.27825L7.41406 7.91797ZM7.40234 8.22754L7.72116 8.61271L7.72165 8.6123L7.40234 8.22754ZM7.05664 8.21484L6.70986 8.57504L6.70995 8.57513L7.05664 8.21484ZM6.55859 7.73535L6.90537 7.37515L6.90529 7.37507L6.55859 7.73535ZM10.5166 7.38867L10.1622 7.03597L10.1616 7.03653L10.5166 7.38867ZM10.8496 7.38184L11.1887 7.01441L11.1884 7.01407L10.8496 7.38184ZM10.8564 7.70215L11.2111 8.05464L11.2111 8.05456L10.8564 7.70215ZM10.3691 8.19238L10.0145 7.83989L10.0144 7.83997L10.3691 8.19238ZM10.0361 8.2002L9.69734 8.56791L9.69739 8.56796L10.0361 8.2002ZM10.0293 7.87988L9.67434 7.52774L9.67428 7.5278L10.0293 7.87988ZM8.73438 6.61523L8.75153 6.11553L8.75143 6.11553L8.73438 6.61523ZM8.97363 6.86328H9.47363L9.47363 6.86298L8.97363 6.86328ZM8.97363 7.49707L8.47363 7.49707L8.47363 7.49719L8.97363 7.49707ZM8.73438 7.72852L8.71657 8.2282L8.71722 8.22822L8.73438 7.72852ZM8.49512 7.48047L7.99512 7.48047L7.99512 7.48059L8.49512 7.48047ZM8.49512 6.84668L7.99512 6.84629V6.84668H8.49512ZM8.73535 11.291L8.7182 11.7907C8.5817 11.786 8.47482 11.6762 8.47461 11.5388L8.97461 11.5381L9.47461 11.5373C9.474 11.1356 9.15327 10.8051 8.75251 10.7913L8.73535 11.291ZM8.97461 11.5381L8.47461 11.5389L8.47559 12.1726L8.97559 12.1719L9.47559 12.1711L9.47461 11.5373L8.97461 11.5381ZM8.97559 12.1719L8.47559 12.172C8.47555 12.0208 8.60294 11.8987 8.75252 11.9036L8.73633 12.4033L8.72013 12.9031C9.13376 12.9165 9.47569 12.5872 9.47559 12.1718L8.97559 12.1719ZM8.73633 12.4033L8.75348 11.9036C8.88743 11.9082 8.99587 12.0155 8.99609 12.1554L8.49609 12.1562L7.99609 12.1571C7.99675 12.5613 8.32098 12.8894 8.71917 12.903L8.73633 12.4033ZM8.49609 12.1562H8.99609V11.5215H8.49609H7.99609V12.1562H8.49609ZM8.49609 11.5215L8.99609 11.5223C8.99584 11.6741 8.86741 11.7957 8.71861 11.7907L8.73535 11.291L8.75209 10.7913C8.33933 10.7775 7.9968 11.1048 7.99609 11.5206L8.49609 11.5215ZM7.10059 10.8262L7.45528 11.1786C7.35404 11.2805 7.19705 11.2811 7.09514 11.1874L7.43359 10.8193L7.77204 10.4513C7.48232 10.1849 7.02699 10.1908 6.74589 10.4738L7.10059 10.8262ZM7.43359 10.8193L7.09485 11.1871C6.98172 11.0829 6.97521 10.8998 7.08619 10.7878L7.44141 11.1396L7.79663 11.4915C8.08704 11.1984 8.07309 10.7286 7.77234 10.4516L7.43359 10.8193ZM7.44141 11.1396L7.08679 10.7872L6.59949 11.2774L6.9541 11.6299L7.30871 11.9824L7.79602 11.4921L7.44141 11.1396ZM6.9541 11.6299L6.59941 11.2775C6.69812 11.1781 6.8549 11.1735 6.95944 11.2696L6.62109 11.6377L6.28275 12.0058C6.5751 12.2745 7.03025 12.2626 7.30879 11.9823L6.9541 11.6299ZM6.62109 11.6377L6.95984 11.2699C7.07308 11.3742 7.07939 11.5573 6.96859 11.6692L6.61328 11.3174L6.25797 10.9656C5.96782 11.2587 5.98151 11.7284 6.28235 12.0055L6.62109 11.6377ZM6.61328 11.3174L6.96824 11.6695L7.45555 11.1783L7.10059 10.8262L6.74562 10.474L6.25832 10.9652L6.61328 11.3174ZM10.0674 10.792L10.3867 11.1768C10.3322 11.222 10.2721 11.2358 10.2242 11.234C10.1763 11.2323 10.1175 11.2141 10.0666 11.1652L10.4131 10.8047L10.7596 10.4442C10.484 10.1793 10.0427 10.1627 9.74808 10.4072L10.0674 10.792ZM10.4131 10.8047L10.0667 11.1652L10.5657 11.6447L10.9121 11.2842L11.2585 10.9236L10.7595 10.4441L10.4131 10.8047ZM10.9121 11.2842L10.565 11.6441C10.5112 11.5922 10.4746 11.5121 10.478 11.4219C10.4815 11.3319 10.5239 11.2555 10.5806 11.2084L10.9004 11.5928L11.2201 11.9772C11.5461 11.706 11.5669 11.221 11.2592 10.9243L10.9121 11.2842ZM10.9004 11.5928L10.5811 11.208C10.6354 11.1629 10.6955 11.149 10.7435 11.1508C10.7915 11.1525 10.8505 11.1708 10.9014 11.2198L10.5547 11.5801L10.208 11.9404C10.4838 12.2057 10.9252 12.2219 11.2197 11.9775L10.9004 11.5928ZM10.5547 11.5801L10.9015 11.2199L10.4034 10.7404L10.0566 11.1006L9.70986 11.4608L10.2079 11.9403L10.5547 11.5801ZM10.0566 11.1006L10.4033 10.7403C10.4563 10.7913 10.4933 10.8705 10.4902 10.9609C10.4871 11.0514 10.4445 11.1287 10.3871 11.1764L10.0674 10.792L9.74765 10.4076C9.41868 10.6812 9.40423 11.1667 9.70995 11.4609L10.0566 11.1006ZM8.73535 7.92383L8.73529 8.42383C9.38652 8.42391 9.88184 8.92765 9.88184 9.50977H10.3818H10.8818C10.8818 8.3404 9.9032 7.42398 8.73542 7.42383L8.73535 7.92383ZM10.3818 9.50977L9.88184 9.50973C9.88179 10.0919 9.38644 10.5956 8.73529 10.5957L8.73535 11.0957L8.73542 11.5957C9.9032 11.5956 10.8817 10.679 10.8818 9.5098L10.3818 9.50977ZM8.73535 11.0957V10.5957C8.08382 10.5957 7.58794 10.0916 7.58789 9.50973L7.08789 9.50977L6.58789 9.5098C6.58798 10.6794 7.56774 11.5957 8.73535 11.5957V11.0957ZM7.08789 9.50977H7.58789C7.58789 8.9279 8.08374 8.42383 8.73535 8.42383V7.92383V7.42383C7.56774 7.42383 6.58789 8.34001 6.58789 9.50977H7.08789ZM6.60156 9.29395L6.60198 9.79395C6.44115 9.79408 6.30985 9.65819 6.31577 9.49725L6.81543 9.51562L7.31509 9.534C7.33002 9.12802 7.00705 8.7936 6.60114 8.79395L6.60156 9.29395ZM6.81543 9.51562L6.3158 9.49632C6.32141 9.35129 6.43744 9.23884 6.58307 9.23828L6.58496 9.73828L6.58685 10.2383C6.97754 10.2368 7.29999 9.92478 7.31506 9.53493L6.81543 9.51562ZM6.58496 9.73828L6.58367 9.23828L5.82781 9.24024L5.8291 9.74023L5.83039 10.2402L6.58625 10.2383L6.58496 9.73828ZM5.8291 9.74023L5.8282 9.24024C5.98981 9.23994 6.12079 9.37656 6.1149 9.53693L5.61523 9.51855L5.11557 9.50018C5.10066 9.90573 5.42311 10.241 5.83 10.2402L5.8291 9.74023ZM5.61523 9.51855L6.11489 9.53717C6.10946 9.68276 5.9927 9.79548 5.84715 9.7959L5.8457 9.2959L5.84426 8.7959C5.45327 8.79703 5.13014 9.10909 5.11558 9.49994L5.61523 9.51855ZM5.8457 9.2959L5.84699 9.7959L6.60285 9.79394L6.60156 9.29395L6.60027 8.79395L5.84441 8.7959L5.8457 9.2959ZM11.6406 9.2793L11.6421 9.77929C11.4826 9.77976 11.3498 9.64534 11.3558 9.4826L11.8555 9.50098L12.3551 9.51935C12.3701 9.11126 12.0442 8.77813 11.6392 8.7793L11.6406 9.2793ZM11.8555 9.50098L11.3558 9.48184C11.3614 9.336 11.4779 9.22433 11.6226 9.22364L11.625 9.72363L11.6274 10.2236C12.017 10.2218 12.3401 9.9107 12.3551 9.52011L11.8555 9.50098ZM11.625 9.72363L11.6237 9.22363L10.8678 9.22559L10.8691 9.72559L10.8704 10.2256L11.6263 10.2236L11.625 9.72363ZM10.8691 9.72559L10.8677 9.22559C11.0302 9.22513 11.1608 9.36251 11.1549 9.52228L10.6553 9.50391L10.1556 9.48553C10.1407 9.89064 10.4626 10.2267 10.8705 10.2256L10.8691 9.72559ZM10.6553 9.50391L11.1549 9.5227C11.1495 9.66802 11.0329 9.78083 10.8872 9.78125L10.8857 9.28125L10.8843 8.78125C10.4932 8.78238 10.1703 9.09461 10.1556 9.48512L10.6553 9.50391ZM10.8857 9.28125L10.887 9.78125L11.6419 9.7793L11.6406 9.2793L11.6393 8.7793L10.8844 8.78125L10.8857 9.28125ZM6.57031 7.42578L6.88876 7.81125C6.83458 7.85602 6.77497 7.86969 6.72746 7.86797C6.6799 7.86624 6.62069 7.84819 6.56932 7.79876L6.91602 7.43848L7.26271 7.07819C6.98634 6.81225 6.54528 6.79791 6.25186 7.04031L6.57031 7.42578ZM6.91602 7.43848L6.56924 7.79868L7.06728 8.27817L7.41406 7.91797L7.76084 7.55777L7.2628 7.07828L6.91602 7.43848ZM7.41406 7.91797L7.06737 8.27825C7.01306 8.22599 6.97675 8.14582 6.98018 8.05626C6.9836 7.96688 7.02572 7.89034 7.08304 7.84277L7.40234 8.22754L7.72165 8.6123C8.04862 8.34096 8.06911 7.8544 7.76075 7.55768L7.41406 7.91797ZM7.40234 8.22754L7.08353 7.84237C7.13778 7.79746 7.1976 7.7837 7.24532 7.78543C7.29306 7.78717 7.35216 7.80532 7.40333 7.85456L7.05664 8.21484L6.70995 8.57513C6.98607 8.84083 7.4273 8.85595 7.72116 8.61271L7.40234 8.22754ZM7.05664 8.21484L7.40342 7.85464L6.90537 7.37515L6.55859 7.73535L6.21181 8.09555L6.70986 8.57504L7.05664 8.21484ZM6.55859 7.73535L6.90529 7.37507C6.95959 7.42733 6.9959 7.5075 6.99248 7.59706C6.98905 7.68644 6.94693 7.76298 6.88962 7.81055L6.57031 7.42578L6.25101 7.04102C5.92403 7.31236 5.90355 7.79892 6.2119 8.09564L6.55859 7.73535ZM10.5166 7.38867L10.871 7.74137C10.7704 7.84242 10.6135 7.84412 10.5109 7.7496L10.8496 7.38184L11.1884 7.01407C10.898 6.74666 10.4427 6.75406 10.1622 7.03597L10.5166 7.38867ZM10.8496 7.38184L10.5105 7.74926C10.3957 7.64335 10.3922 7.46 10.5018 7.34974L10.8564 7.70215L11.2111 8.05456C11.5005 7.76329 11.4909 7.29333 11.1887 7.01441L10.8496 7.38184ZM10.8564 7.70215L10.5018 7.34966L10.0145 7.83989L10.3691 8.19238L10.7238 8.54487L11.2111 8.05464L10.8564 7.70215ZM10.3691 8.19238L10.0144 7.83997C10.1127 7.74106 10.2698 7.73568 10.3749 7.83243L10.0361 8.2002L9.69739 8.56796C9.99022 8.83769 10.4456 8.82483 10.7238 8.54479L10.3691 8.19238ZM10.0361 8.2002L10.3749 7.83248C10.4907 7.93913 10.4929 8.12249 10.3843 8.23197L10.0293 7.87988L9.67428 7.5278C9.38609 7.81839 9.39393 8.28838 9.69734 8.56791L10.0361 8.2002ZM10.0293 7.87988L10.3843 8.23202L10.8716 7.74081L10.5166 7.38867L10.1616 7.03653L9.67434 7.52774L10.0293 7.87988ZM8.73438 6.61523L8.71722 7.11494C8.57872 7.11018 8.47372 6.99914 8.47363 6.86358L8.97363 6.86328L9.47363 6.86298C9.47339 6.46288 9.15444 6.12936 8.75153 6.11553L8.73438 6.61523ZM8.97363 6.86328H8.47363V7.49707H8.97363H9.47363V6.86328H8.97363ZM8.97363 7.49707L8.47363 7.49719C8.4736 7.34717 8.60043 7.22362 8.75153 7.22881L8.73438 7.72852L8.71722 8.22822C9.13279 8.24249 9.47374 7.91159 9.47363 7.49695L8.97363 7.49707ZM8.73438 7.72852L8.75218 7.22883C8.88949 7.23373 8.99508 7.34379 8.99512 7.48035L8.49512 7.48047L7.99512 7.48059C7.99522 7.88156 8.31509 8.21389 8.71657 8.2282L8.73438 7.72852ZM8.49512 7.48047H8.99512V6.84668H8.49512H7.99512V7.48047H8.49512ZM8.49512 6.84668L8.99512 6.84707C8.995 6.9964 8.86886 7.12011 8.71732 7.11494L8.73438 6.61523L8.75143 6.11553C8.33563 6.10134 7.99544 6.4326 7.99512 6.84629L8.49512 6.84668Z" fill="#FFBA58" mask="url(#path-3-outside-1_73_121)"/>
<path d="M5 18C5 18 6.30508 16.1091 7.76923 15.75C9.77823 15.2573 10.5938 17.5114 12.6923 17.5C15.1665 17.4866 16.0769 15 18.2308 15C20.3846 15 21 18 21 18V22H5V18Z" fill="#50E06F"/>
<path d="M20.5 17C22.9853 17 25 19.0147 25 21.5C25 23.9853 22.9853 26 20.5 26C18.0147 26 16 23.9853 16 21.5C16 19.0147 18.0147 17 20.5 17ZM20.5 18C18.567 18 17 19.567 17 21.5C17 23.433 18.567 25 20.5 25C22.433 25 24 23.433 24 21.5C24 19.567 22.433 18 20.5 18Z" fill="white" fill-opacity="0.5"/>
<path d="M20.5 19C21.8807 19 23 20.1193 23 21.5C23 22.8807 21.8807 24 20.5 24C19.1193 24 18 22.8807 18 21.5C18 20.1193 19.1193 19 20.5 19ZM20.5 19.5557C19.4261 19.5557 18.5557 20.4261 18.5557 21.5C18.5557 22.5739 19.4261 23.4443 20.5 23.4443C21.5739 23.4443 22.4443 22.5739 22.4443 21.5C22.4443 20.4261 21.5739 19.5557 20.5 19.5557Z" fill="white" fill-opacity="0.5"/>
<mask id="path-8-outside-2_73_121" maskUnits="userSpaceOnUse" x="18.861" y="19.8425" width="9.96956" height="9.82276" fill="black">
<rect fill="white" x="18.861" y="19.8425" width="9.96956" height="9.82276"/>
<path d="M25.3694 24.237L24.7501 24.8893L26.4328 26.4869L25.6582 27.3027L23.9755 25.7052L23.3562 26.3574L22.0066 23.0602L25.3694 24.237Z"/>
</mask>
<path d="M25.3694 24.237L24.7501 24.8893L26.4328 26.4869L25.6582 27.3027L23.9755 25.7052L23.3562 26.3574L22.0066 23.0602L25.3694 24.237Z" fill="black"/>
<path d="M25.3694 24.237L25.732 24.5813L26.2644 24.0205L25.5345 23.7651L25.3694 24.237ZM24.7501 24.8893L24.3875 24.545L24.0432 24.9076L24.4058 25.2519L24.7501 24.8893ZM26.4328 26.4869L26.7954 26.8311L27.1397 26.4685L26.7771 26.1243L26.4328 26.4869ZM25.6582 27.3027L25.314 27.6653L25.6766 28.0096L26.0209 27.647L25.6582 27.3027ZM23.9755 25.7052L24.3198 25.3425L23.9572 24.9983L23.6129 25.3609L23.9755 25.7052ZM23.3562 26.3574L22.8935 26.5468L23.1865 27.2625L23.7189 26.7017L23.3562 26.3574ZM22.0066 23.0602L22.1717 22.5883L21.1229 22.2212L21.5438 23.2496L22.0066 23.0602ZM25.3694 24.237L25.0068 23.8928L24.3875 24.545L24.7501 24.8893L25.1127 25.2335L25.732 24.5813L25.3694 24.237ZM24.7501 24.8893L24.4058 25.2519L26.0886 26.8495L26.4328 26.4869L26.7771 26.1243L25.0944 24.5267L24.7501 24.8893ZM26.4328 26.4869L26.0702 26.1426L25.2956 26.9585L25.6582 27.3027L26.0209 27.647L26.7954 26.8311L26.4328 26.4869ZM25.6582 27.3027L26.0025 26.9401L24.3198 25.3425L23.9755 25.7052L23.6313 26.0678L25.314 27.6653L25.6582 27.3027ZM23.9755 25.7052L23.6129 25.3609L22.9936 26.0132L23.3562 26.3574L23.7189 26.7017L24.3381 26.0494L23.9755 25.7052ZM23.3562 26.3574L23.819 26.168L22.4693 22.8708L22.0066 23.0602L21.5438 23.2496L22.8935 26.5468L23.3562 26.3574ZM22.0066 23.0602L21.8414 23.5321L25.2042 24.709L25.3694 24.237L25.5345 23.7651L22.1717 22.5883L22.0066 23.0602Z" fill="white" mask="url(#path-8-outside-2_73_121)"/>
</g>
<defs>
<filter id="filter0_d_73_121" x="-1" y="6" width="28" height="28" filterUnits="userSpaceOnUse" color-interpolation-filters="sRGB">
<feFlood flood-opacity="0" result="BackgroundImageFix"/>
<feColorMatrix in="SourceAlpha" type="matrix" values="0 0 0 0 0 0 0 0 0 0 0 0 0 0 0 0 0 0 127 0" result="hardAlpha"/>
<feOffset dy="4"/>
<feGaussianBlur stdDeviation="2"/>
<feComposite in2="hardAlpha" operator="out"/>
<feColorMatrix type="matrix" values="0 0 0 0 0 0 0 0 0 0 0 0 0 0 0 0 0 0 0.25 0"/>
<feBlend mode="normal" in2="BackgroundImageFix" result="effect1_dropShadow_73_121"/>
<feBlend mode="normal" in="SourceGraphic" in2="effect1_dropShadow_73_121" result="shape"/>
</filter>
<filter id="filter1_d_73_121" x="-1" y="4" width="28" height="28" filterUnits="userSpaceOnUse" color-interpolation-filters="sRGB">
<feFlood flood-opacity="0" result="BackgroundImageFix"/>
<feColorMatrix in="SourceAlpha" type="matrix" values="0 0 0 0 0 0 0 0 0 0 0 0 0 0 0 0 0 0 127 0" result="hardAlpha"/>
<feOffset dy="4"/>
<feGaussianBlur stdDeviation="2"/>
<feComposite in2="hardAlpha" operator="out"/>
<feColorMatrix type="matrix" values="0 0 0 0 0 0 0 0 0 0 0 0 0 0 0 0 0 0 0.25 0"/>
<feBlend mode="normal" in2="BackgroundImageFix" result="effect1_dropShadow_73_121"/>
<feBlend mode="normal" in="SourceGraphic" in2="effect1_dropShadow_73_121" result="shape"/>
</filter>
<radialGradient id="paint0_radial_73_121" cx="0" cy="0" r="1" gradientUnits="userSpaceOnUse" gradientTransform="translate(8.69231 11.3846) rotate(46.4321) scale(17.4111)">
<stop stop-color="#86BAFF"/>
<stop offset="0.336538" stop-color="#80ACFF"/>
<stop offset="1" stop-color="#5D4BFF"/>
</radialGradient>
<radialGradient id="paint1_radial_73_121" cx="0" cy="0" r="1" gradientUnits="userSpaceOnUse" gradientTransform="translate(8.69231 9.38462) rotate(46.4321) scale(17.4111)">
<stop stop-color="#86BAFF"/>
<stop offset="0.336538" stop-color="#80ACFF"/>
<stop offset="1" stop-color="#5D4BFF"/>
</radialGradient>
<linearGradient id="paint2_linear_73_121" x1="13" y1="6" x2="13" y2="22" gradientUnits="userSpaceOnUse">
<stop stop-color="#D8D8D8"/>
<stop offset="1" stop-color="#5B5B5B"/>
</linearGradient>
<linearGradient id="paint3_linear_73_121" x1="8.73564" y1="7.31793" x2="8.73564" y2="11.0709" gradientUnits="userSpaceOnUse">
<stop stop-color="#FCFFA3"/>
<stop offset="0.524038" stop-color="#FAFBA0"/>
<stop offset="1" stop-color="#D8AC66"/>
</linearGradient>
<clipPath id="clip0_73_121">
<rect width="32" height="32" fill="white"/>
</clipPath>
</defs>
</svg>
