<svg width="32" height="32" viewBox="0 0 32 32" fill="none" xmlns="http://www.w3.org/2000/svg">
<g clip-path="url(#clip0_65_125)">
<g filter="url(#filter0_d_65_125)">
<rect x="2" y="2" width="28" height="28" fill="url(#paint0_radial_65_125)" stroke="url(#paint1_linear_65_125)" stroke-width="2"/>
</g>
<mask id="path-2-outside-1_65_125" maskUnits="userSpaceOnUse" x="3" y="3" width="12" height="11" fill="black">
<rect fill="white" x="3" y="3" width="12" height="11"/>
<path d="M9.07056 11.5969C9.28533 11.6044 9.45917 11.7853 9.45923 12.0002L9.4602 13.0305C9.46002 13.2453 9.28529 13.4139 9.07056 13.4065C8.85576 13.399 8.68194 13.2181 8.68188 13.0032L8.68091 11.9729C8.68101 11.758 8.85577 11.5895 9.07056 11.5969ZM6.41431 10.843C6.56054 10.696 6.8028 10.6908 6.95532 10.8313C7.10768 10.9717 7.11286 11.2046 6.96704 11.3518L6.17505 12.1496C6.02891 12.2967 5.78663 12.3017 5.63403 12.1614C5.48145 12.0208 5.4761 11.787 5.62231 11.6399L6.41431 10.843ZM11.2346 10.7864C11.3949 10.6534 11.6471 10.6635 11.7971 10.8079L12.6067 11.5871C12.7565 11.7316 12.7483 11.9562 12.5881 12.0891C12.428 12.2219 12.1767 12.2127 12.0266 12.0686L11.2161 11.2893C11.066 11.1449 11.0744 10.9193 11.2346 10.7864ZM9.06958 6.12621C10.5477 6.12621 11.7463 7.28017 11.7463 8.70336C11.7462 10.1265 10.5476 11.2805 9.06958 11.2805C7.59152 11.2805 6.39293 10.1265 6.39282 8.70336C6.39282 7.28017 7.59146 6.12621 9.06958 6.12621ZM5.60181 8.3518C5.80127 8.35123 5.95678 8.51282 5.94946 8.71215C5.94213 8.91143 5.77483 9.07376 5.57544 9.07445L4.3479 9.07738C4.14847 9.07796 3.993 8.91728 4.00024 8.71801C4.00758 8.51866 4.17478 8.35628 4.37427 8.3557L5.60181 8.3518ZM13.7913 8.32836C13.9907 8.32778 14.1462 8.48936 14.1389 8.68871C14.1315 8.88795 13.9643 9.04946 13.7649 9.05004L12.5374 9.05394C12.338 9.0545 12.1826 8.89371 12.1897 8.69457C12.197 8.49529 12.3643 8.33296 12.5637 8.33226L13.7913 8.32836ZM5.55102 5.31762C5.71124 5.18465 5.96247 5.19382 6.11255 5.33812L6.92309 6.11742C7.07285 6.26176 7.06449 6.48642 6.90454 6.61937C6.74428 6.75237 6.4921 6.74327 6.34204 6.59887L5.53247 5.81957C5.3825 5.67521 5.39091 5.45061 5.55102 5.31762ZM11.9641 5.25707C12.1103 5.10992 12.3525 5.10485 12.5051 5.24535C12.6577 5.3859 12.6631 5.6187 12.5168 5.76586L11.7249 6.56273C11.5787 6.70987 11.3364 6.71589 11.1838 6.57543C11.0313 6.4349 11.026 6.20111 11.1721 6.05394L11.9641 5.25707ZM9.0686 4.00023C9.28327 4.0077 9.45701 4.1878 9.45727 4.40258L9.45825 5.43285C9.4583 5.64786 9.28348 5.8162 9.0686 5.80883C8.85386 5.8013 8.68001 5.62138 8.67993 5.40648L8.67895 4.37621C8.67893 4.16122 8.85374 3.99286 9.0686 4.00023Z"/>
</mask>
<path d="M9.07056 11.5969C9.28533 11.6044 9.45917 11.7853 9.45923 12.0002L9.4602 13.0305C9.46002 13.2453 9.28529 13.4139 9.07056 13.4065C8.85576 13.399 8.68194 13.2181 8.68188 13.0032L8.68091 11.9729C8.68101 11.758 8.85577 11.5895 9.07056 11.5969ZM6.41431 10.843C6.56054 10.696 6.8028 10.6908 6.95532 10.8313C7.10768 10.9717 7.11286 11.2046 6.96704 11.3518L6.17505 12.1496C6.02891 12.2967 5.78663 12.3017 5.63403 12.1614C5.48145 12.0208 5.4761 11.787 5.62231 11.6399L6.41431 10.843ZM11.2346 10.7864C11.3949 10.6534 11.6471 10.6635 11.7971 10.8079L12.6067 11.5871C12.7565 11.7316 12.7483 11.9562 12.5881 12.0891C12.428 12.2219 12.1767 12.2127 12.0266 12.0686L11.2161 11.2893C11.066 11.1449 11.0744 10.9193 11.2346 10.7864ZM9.06958 6.12621C10.5477 6.12621 11.7463 7.28017 11.7463 8.70336C11.7462 10.1265 10.5476 11.2805 9.06958 11.2805C7.59152 11.2805 6.39293 10.1265 6.39282 8.70336C6.39282 7.28017 7.59146 6.12621 9.06958 6.12621ZM5.60181 8.3518C5.80127 8.35123 5.95678 8.51282 5.94946 8.71215C5.94213 8.91143 5.77483 9.07376 5.57544 9.07445L4.3479 9.07738C4.14847 9.07796 3.993 8.91728 4.00024 8.71801C4.00758 8.51866 4.17478 8.35628 4.37427 8.3557L5.60181 8.3518ZM13.7913 8.32836C13.9907 8.32778 14.1462 8.48936 14.1389 8.68871C14.1315 8.88795 13.9643 9.04946 13.7649 9.05004L12.5374 9.05394C12.338 9.0545 12.1826 8.89371 12.1897 8.69457C12.197 8.49529 12.3643 8.33296 12.5637 8.33226L13.7913 8.32836ZM5.55102 5.31762C5.71124 5.18465 5.96247 5.19382 6.11255 5.33812L6.92309 6.11742C7.07285 6.26176 7.06449 6.48642 6.90454 6.61937C6.74428 6.75237 6.4921 6.74327 6.34204 6.59887L5.53247 5.81957C5.3825 5.67521 5.39091 5.45061 5.55102 5.31762ZM11.9641 5.25707C12.1103 5.10992 12.3525 5.10485 12.5051 5.24535C12.6577 5.3859 12.6631 5.6187 12.5168 5.76586L11.7249 6.56273C11.5787 6.70987 11.3364 6.71589 11.1838 6.57543C11.0313 6.4349 11.026 6.20111 11.1721 6.05394L11.9641 5.25707ZM9.0686 4.00023C9.28327 4.0077 9.45701 4.1878 9.45727 4.40258L9.45825 5.43285C9.4583 5.64786 9.28348 5.8162 9.0686 5.80883C8.85386 5.8013 8.68001 5.62138 8.67993 5.40648L8.67895 4.37621C8.67893 4.16122 8.85374 3.99286 9.0686 4.00023Z" fill="url(#paint2_linear_65_125)"/>
<path d="M9.07056 11.5969L9.08802 11.0972L9.08771 11.0972L9.07056 11.5969ZM9.45923 12.0002L8.95923 12.0004V12.0007L9.45923 12.0002ZM9.4602 13.0305L9.9602 13.0309L9.9602 13.03L9.4602 13.0305ZM9.07056 13.4065L9.05318 13.9062L9.0534 13.9062L9.07056 13.4065ZM8.68188 13.0032L9.18188 13.003L9.18188 13.0027L8.68188 13.0032ZM8.68091 11.9729L8.18091 11.9726L8.18091 11.9734L8.68091 11.9729ZM6.41431 10.843L6.05984 10.4904L6.05967 10.4905L6.41431 10.843ZM6.95532 10.8313L7.2942 10.4636L7.29407 10.4635L6.95532 10.8313ZM6.96704 11.3518L7.32189 11.704L7.32219 11.7037L6.96704 11.3518ZM6.17505 12.1496L6.52974 12.5021L6.5299 12.5019L6.17505 12.1496ZM5.63403 12.1614L5.29528 12.5291L5.29559 12.5294L5.63403 12.1614ZM5.62231 11.6399L5.26768 11.2874L5.26762 11.2875L5.62231 11.6399ZM11.2346 10.7864L10.9154 10.4016L10.9153 10.4016L11.2346 10.7864ZM11.7971 10.8079L12.1439 10.4476L12.1438 10.4476L11.7971 10.8079ZM12.6067 11.5871L12.9537 11.2272L12.9534 11.2269L12.6067 11.5871ZM12.5881 12.0891L12.9073 12.4739L12.9074 12.4739L12.5881 12.0891ZM12.0266 12.0686L11.6801 12.429L11.6803 12.4292L12.0266 12.0686ZM11.2161 11.2893L10.8693 11.6495L10.8695 11.6497L11.2161 11.2893ZM9.06958 6.12621V5.62621H9.06958L9.06958 6.12621ZM11.7463 8.70336L12.2463 8.7034V8.70336H11.7463ZM9.06958 11.2805L9.06958 11.7805H9.06958V11.2805ZM6.39282 8.70336H5.89282V8.7034L6.39282 8.70336ZM5.60181 8.3518L5.60039 7.8518L5.60021 7.8518L5.60181 8.3518ZM5.94946 8.71215L6.44912 8.73053L6.44913 8.73048L5.94946 8.71215ZM5.57544 9.07445L5.57663 9.57445L5.57717 9.57445L5.57544 9.07445ZM4.3479 9.07738L4.34671 8.57738L4.34645 8.57738L4.3479 9.07738ZM4.00024 8.71801L3.50058 8.69963L3.50057 8.69985L4.00024 8.71801ZM4.37427 8.3557L4.37571 8.8557L4.37586 8.8557L4.37427 8.3557ZM13.7913 8.32836L13.7898 7.82836L13.7897 7.82836L13.7913 8.32836ZM14.1389 8.68871L14.6386 8.7074L14.6386 8.70709L14.1389 8.68871ZM13.7649 9.05004L13.7634 8.55004L13.7633 8.55004L13.7649 9.05004ZM12.5374 9.05394L12.5388 9.55394L12.5389 9.55394L12.5374 9.05394ZM12.1897 8.69457L11.69 8.67619L11.69 8.67676L12.1897 8.69457ZM12.5637 8.33226L12.5621 7.83227L12.562 7.83227L12.5637 8.33226ZM5.55102 5.31762L5.23172 4.93285L5.23156 4.93299L5.55102 5.31762ZM6.11255 5.33812L5.76599 5.69854L5.76601 5.69856L6.11255 5.33812ZM6.92309 6.11742L7.27008 5.75742L7.26963 5.75699L6.92309 6.11742ZM6.90454 6.61937L7.22385 7.00414L7.22415 7.00388L6.90454 6.61937ZM6.34204 6.59887L5.99529 6.95909L5.99535 6.95915L6.34204 6.59887ZM5.53247 5.81957L5.87922 5.45934L5.87922 5.45934L5.53247 5.81957ZM11.9641 5.25707L12.3187 5.60953L12.3188 5.60948L11.9641 5.25707ZM12.5051 5.24535L12.8439 4.87759L12.8438 4.87753L12.5051 5.24535ZM12.5168 5.76586L12.8715 6.11832L12.8715 6.11827L12.5168 5.76586ZM11.7249 6.56273L11.3702 6.21027L11.3702 6.21032L11.7249 6.56273ZM11.1838 6.57543L10.8451 6.94319L10.8452 6.94329L11.1838 6.57543ZM11.1721 6.05394L10.8175 5.70148L10.8173 5.70161L11.1721 6.05394ZM9.0686 4.00023L9.08598 3.50054L9.08576 3.50053L9.0686 4.00023ZM9.45727 4.40258L9.95727 4.4021V4.40195L9.45727 4.40258ZM9.45825 5.43285L9.95825 5.43273L9.95825 5.43238L9.45825 5.43285ZM9.0686 5.80883L9.0511 6.30852L9.05145 6.30853L9.0686 5.80883ZM8.67993 5.40648L9.17993 5.4063L9.17993 5.40601L8.67993 5.40648ZM8.67895 4.37621L8.17895 4.37627L8.17895 4.37668L8.67895 4.37621ZM9.07056 11.5969L9.0531 12.0966C9.02279 12.0955 8.99932 12.0822 8.98523 12.0676C8.97122 12.053 8.95923 12.0297 8.95923 12.0004L9.45923 12.0002L9.95923 12.0001C9.95911 11.5173 9.57337 11.1142 9.08802 11.0972L9.07056 11.5969ZM9.45923 12.0002L8.95923 12.0007L8.9602 13.031L9.4602 13.0305L9.9602 13.03L9.95923 11.9998L9.45923 12.0002ZM9.4602 13.0305L8.9602 13.0301C8.96026 12.9619 9.02022 12.9045 9.08771 12.9068L9.07056 13.4065L9.0534 13.9062C9.55036 13.9233 9.95979 13.5287 9.9602 13.0309L9.4602 13.0305ZM9.07056 13.4065L9.08793 12.9068C9.11825 12.9078 9.14177 12.9212 9.15588 12.9358C9.16992 12.9504 9.18188 12.9738 9.18188 13.003L8.68188 13.0032L8.18188 13.0033C8.182 13.486 8.56764 13.8893 9.05318 13.9062L9.07056 13.4065ZM8.68188 13.0032L9.18188 13.0027L9.18091 11.9724L8.68091 11.9729L8.18091 11.9734L8.18188 13.0036L8.68188 13.0032ZM8.68091 11.9729L9.18091 11.9731C9.18087 12.0416 9.12066 12.0989 9.0534 12.0966L9.07056 11.5969L9.08771 11.0972C8.59088 11.0802 8.18115 11.4744 8.18091 11.9726L8.68091 11.9729ZM6.41431 10.843L6.76877 11.1956C6.74512 11.2194 6.71653 11.2287 6.69327 11.2292C6.67001 11.2297 6.64114 11.2217 6.61657 11.1991L6.95532 10.8313L7.29407 10.4635C6.94407 10.1411 6.39568 10.1528 6.05984 10.4904L6.41431 10.843ZM6.95532 10.8313L6.61644 11.1989C6.56042 11.1473 6.55847 11.0538 6.61189 10.9998L6.96704 11.3518L7.32219 11.7037C7.66726 11.3555 7.65495 10.7962 7.2942 10.4636L6.95532 10.8313ZM6.96704 11.3518L6.61219 10.9995L5.82019 11.7974L6.17505 12.1496L6.5299 12.5019L7.32189 11.704L6.96704 11.3518ZM6.17505 12.1496L5.82036 11.7972C5.84422 11.7732 5.87306 11.7639 5.89632 11.7634C5.9195 11.7629 5.94811 11.7709 5.97248 11.7933L5.63403 12.1614L5.29559 12.5294C5.64506 12.8508 6.19345 12.8405 6.52974 12.5021L6.17505 12.1496ZM5.63403 12.1614L5.97278 11.7936C6.02843 11.8449 6.03096 11.938 5.977 11.9923L5.62231 11.6399L5.26762 11.2875C4.92124 11.6361 4.93446 12.1968 5.29528 12.5291L5.63403 12.1614ZM5.62231 11.6399L5.97695 11.9923L6.76894 11.1955L6.41431 10.843L6.05967 10.4905L5.26768 11.2874L5.62231 11.6399ZM11.2346 10.7864L11.5539 11.1712C11.5296 11.1913 11.5087 11.1931 11.5004 11.1927C11.4921 11.1924 11.4723 11.1892 11.4504 11.1681L11.7971 10.8079L12.1438 10.4476C11.8116 10.1279 11.2728 10.105 10.9154 10.4016L11.2346 10.7864ZM11.7971 10.8079L11.4504 11.1681L12.2599 11.9474L12.6067 11.5871L12.9534 11.2269L12.1439 10.4476L11.7971 10.8079ZM12.6067 11.5871L12.2597 11.9471C12.235 11.9234 12.212 11.8792 12.214 11.824C12.216 11.7688 12.2423 11.7263 12.2688 11.7043L12.5881 12.0891L12.9074 12.4739C13.2973 12.1503 13.3179 11.5782 12.9537 11.2272L12.6067 11.5871ZM12.5881 12.0891L12.2689 11.7043C12.2925 11.6847 12.3131 11.6827 12.3219 11.683C12.3307 11.6834 12.3509 11.6868 12.3729 11.7079L12.0266 12.0686L11.6803 12.4292C12.0136 12.7493 12.5513 12.7693 12.9073 12.4739L12.5881 12.0891ZM12.0266 12.0686L12.3731 11.7082L11.5626 10.9289L11.2161 11.2893L10.8695 11.6497L11.6801 12.429L12.0266 12.0686ZM11.2161 11.2893L11.5628 10.9291C11.5879 10.9532 11.6107 10.9975 11.6087 11.052C11.6066 11.1065 11.5807 11.1489 11.5539 11.1711L11.2346 10.7864L10.9153 10.4016C10.5256 10.725 10.5044 11.2983 10.8693 11.6495L11.2161 11.2893ZM9.06958 6.12621V6.62621C10.2896 6.62621 11.2463 7.57402 11.2463 8.70336H11.7463H12.2463C12.2463 6.98631 10.8058 5.62621 9.06958 5.62621V6.12621ZM11.7463 8.70336L11.2463 8.70332C11.2463 9.83264 10.2895 10.7805 9.06958 10.7805V11.2805V11.7805C10.8058 11.7805 12.2462 10.4203 12.2463 8.7034L11.7463 8.70336ZM9.06958 11.2805L9.06958 10.7805C7.84965 10.7805 6.89291 9.83264 6.89282 8.70332L6.39282 8.70336L5.89282 8.7034C5.89295 10.4203 7.3334 11.7805 9.06958 11.7805L9.06958 11.2805ZM6.39282 8.70336H6.89282C6.89282 7.57402 7.84955 6.62621 9.06958 6.62621L9.06958 6.12621L9.06958 5.62621C7.33337 5.62621 5.89282 6.98631 5.89282 8.70336H6.39282ZM5.60181 8.3518L5.60322 8.85179C5.51746 8.85204 5.44675 8.77685 5.4498 8.69381L5.94946 8.71215L6.44913 8.73048C6.4668 8.24879 6.08507 7.85043 5.60039 7.8518L5.60181 8.3518ZM5.94946 8.71215L5.4498 8.69377C5.45116 8.65677 5.4673 8.62733 5.4865 8.60873C5.50573 8.59009 5.53605 8.57459 5.57371 8.57446L5.57544 9.07445L5.57717 9.57445C6.0458 9.57283 6.43197 9.19702 6.44912 8.73053L5.94946 8.71215ZM5.57544 9.07445L5.57425 8.57445L4.34671 8.57738L4.3479 9.07738L4.34909 9.57738L5.57663 9.57445L5.57544 9.07445ZM4.3479 9.07738L4.34645 8.57738C4.43069 8.57714 4.50299 8.65163 4.49991 8.73617L4.00024 8.71801L3.50057 8.69985C3.48302 9.18293 3.86625 9.57878 4.34935 9.57738L4.3479 9.07738ZM4.00024 8.71801L4.49991 8.73638C4.49855 8.77321 4.48249 8.80263 4.46322 8.82131C4.44389 8.84006 4.41343 8.85559 4.37571 8.8557L4.37427 8.3557L4.37282 7.8557C3.9036 7.85706 3.51773 8.23334 3.50058 8.69963L4.00024 8.71801ZM4.37427 8.3557L4.37586 8.8557L5.6034 8.85179L5.60181 8.3518L5.60021 7.8518L4.37268 7.8557L4.37427 8.3557ZM13.7913 8.32836L13.7927 8.82836C13.707 8.8286 13.6362 8.75339 13.6393 8.67033L14.1389 8.68871L14.6386 8.70709C14.6563 8.22533 14.2745 7.82696 13.7898 7.82836L13.7913 8.32836ZM14.1389 8.68871L13.6393 8.67002C13.6406 8.63303 13.6569 8.60322 13.6765 8.58428C13.6961 8.56533 13.7264 8.55015 13.7634 8.55004L13.7649 9.05004L13.7663 9.55004C14.2341 9.54868 14.6211 9.17476 14.6386 8.7074L14.1389 8.68871ZM13.7649 9.05004L13.7633 8.55004L12.5358 8.55395L12.5374 9.05394L12.5389 9.55394L13.7665 9.55004L13.7649 9.05004ZM12.5374 9.05394L12.536 8.55395C12.6206 8.55371 12.6924 8.6283 12.6894 8.71238L12.1897 8.69457L11.69 8.67676C11.6728 9.15913 12.0555 9.5553 12.5388 9.55394L12.5374 9.05394ZM12.1897 8.69457L12.6894 8.71295C12.688 8.74996 12.6719 8.7794 12.6527 8.798C12.6334 8.81663 12.6031 8.83213 12.5655 8.83226L12.5637 8.33226L12.562 7.83227C12.0934 7.8339 11.7072 8.20969 11.69 8.67619L12.1897 8.69457ZM12.5637 8.33226L12.5653 8.83226L13.7928 8.82836L13.7913 8.32836L13.7897 7.82836L12.5621 7.83227L12.5637 8.33226ZM5.55102 5.31762L5.87033 5.70238C5.84686 5.72186 5.82634 5.72389 5.81735 5.72356C5.80835 5.72323 5.78801 5.71971 5.76599 5.69854L6.11255 5.33812L6.45911 4.97771C6.12557 4.657 5.58771 4.63742 5.23172 4.93285L5.55102 5.31762ZM6.11255 5.33812L5.76601 5.69856L6.57656 6.47785L6.92309 6.11742L7.26963 5.75699L6.45908 4.97769L6.11255 5.33812ZM6.92309 6.11742L6.57611 6.47742C6.55124 6.45345 6.52826 6.40914 6.5303 6.35416C6.53233 6.29921 6.55849 6.25684 6.58493 6.23487L6.90454 6.61937L7.22415 7.00388C7.613 6.68066 7.63455 6.10871 7.27008 5.75742L6.92309 6.11742ZM6.90454 6.61937L6.58523 6.23461C6.60892 6.21496 6.62926 6.21317 6.63763 6.21347C6.64601 6.21378 6.66637 6.21706 6.68873 6.23858L6.34204 6.59887L5.99535 6.95915C6.32908 7.28029 6.868 7.29944 7.22385 7.00414L6.90454 6.61937ZM6.34204 6.59887L6.68879 6.23864L5.87922 5.45934L5.53247 5.81957L5.18572 6.17979L5.99529 6.95909L6.34204 6.59887ZM5.53247 5.81957L5.87922 5.45934C5.90403 5.48322 5.92717 5.52762 5.92512 5.58287C5.92307 5.63807 5.89677 5.68042 5.87049 5.70225L5.55102 5.31762L5.23156 4.93299C4.84246 5.25617 4.8206 5.82834 5.18572 6.17979L5.53247 5.81957ZM11.9641 5.25707L12.3188 5.60948C12.2951 5.63335 12.2663 5.64273 12.2429 5.64323C12.2196 5.64373 12.1908 5.63564 12.1664 5.61317L12.5051 5.24535L12.8438 4.87753C12.4941 4.55547 11.9455 4.56635 11.6094 4.90466L11.9641 5.25707ZM12.5051 5.24535L12.1664 5.61311C12.1108 5.56189 12.1082 5.46779 12.1622 5.41345L12.5168 5.76586L12.8715 6.11827C13.218 5.76961 13.2047 5.2099 12.8439 4.87759L12.5051 5.24535ZM12.5168 5.76586L12.1622 5.41339L11.3702 6.21027L11.7249 6.56273L12.0795 6.9152L12.8715 6.11832L12.5168 5.76586ZM11.7249 6.56273L11.3702 6.21032C11.3934 6.18696 11.4215 6.17763 11.4448 6.17707C11.4682 6.17651 11.4975 6.18458 11.5225 6.20756L11.1838 6.57543L10.8452 6.94329C11.1966 7.26677 11.745 7.25185 12.0795 6.91515L11.7249 6.56273ZM11.1838 6.57543L11.5226 6.20767C11.5783 6.25903 11.5807 6.35208 11.5269 6.40628L11.1721 6.05394L10.8173 5.70161C10.4712 6.05014 10.4842 6.61078 10.8451 6.94319L11.1838 6.57543ZM11.1721 6.05394L11.5268 6.40641L12.3187 5.60953L11.9641 5.25707L11.6095 4.9046L10.8175 5.70148L11.1721 6.05394ZM9.0686 4.00023L9.05123 4.49993C9.02143 4.4989 8.99797 4.48581 8.98365 4.47098C8.96937 4.45618 8.95731 4.43257 8.95727 4.4032L9.45727 4.40258L9.95727 4.40195C9.95667 3.91873 9.57031 3.51738 9.08598 3.50054L9.0686 4.00023ZM9.45727 4.40258L8.95727 4.40305L8.95825 5.43332L9.45825 5.43285L9.95825 5.43238L9.95727 4.4021L9.45727 4.40258ZM9.45825 5.43285L8.95825 5.43297C8.95823 5.36398 9.01898 5.30683 9.08576 5.30912L9.0686 5.80883L9.05145 6.30853C9.54799 6.32558 9.95837 5.93174 9.95825 5.43273L9.45825 5.43285ZM9.0686 5.80883L9.08611 5.30913C9.11559 5.31017 9.13896 5.32311 9.15337 5.33802C9.16777 5.35293 9.17992 5.37676 9.17993 5.4063L8.67993 5.40648L8.17993 5.40667C8.18011 5.89089 8.56734 6.29157 9.0511 6.30852L9.0686 5.80883ZM8.67993 5.40648L9.17993 5.40601L9.17895 4.37574L8.67895 4.37621L8.17895 4.37668L8.17993 5.40696L8.67993 5.40648ZM8.67895 4.37621L9.17895 4.37615C9.17896 4.44505 9.11831 4.50223 9.05145 4.49994L9.0686 4.00023L9.08576 3.50053C8.58917 3.48348 8.17889 3.8774 8.17895 4.37627L8.67895 4.37621Z" fill="#FFBA58" mask="url(#path-2-outside-1_65_125)"/>
<path d="M3 22.1429C3 22.1429 5.12075 18.9013 7.5 18.2857C10.7646 17.4411 12.09 21.3052 15.5 21.2857C19.5206 21.2627 21 17 24.5 17C28 17 29 22.1429 29 22.1429V29H3V22.1429Z" fill="#50E06F"/>
</g>
<defs>
<filter id="filter0_d_65_125" x="-3" y="1" width="38" height="38" filterUnits="userSpaceOnUse" color-interpolation-filters="sRGB">
<feFlood flood-opacity="0" result="BackgroundImageFix"/>
<feColorMatrix in="SourceAlpha" type="matrix" values="0 0 0 0 0 0 0 0 0 0 0 0 0 0 0 0 0 0 127 0" result="hardAlpha"/>
<feOffset dy="4"/>
<feGaussianBlur stdDeviation="2"/>
<feComposite in2="hardAlpha" operator="out"/>
<feColorMatrix type="matrix" values="0 0 0 0 0 0 0 0 0 0 0 0 0 0 0 0 0 0 0.25 0"/>
<feBlend mode="normal" in2="BackgroundImageFix" result="effect1_dropShadow_65_125"/>
<feBlend mode="normal" in="SourceGraphic" in2="effect1_dropShadow_65_125" result="shape"/>
</filter>
<radialGradient id="paint0_radial_65_125" cx="0" cy="0" r="1" gradientUnits="userSpaceOnUse" gradientTransform="translate(9 8.5) rotate(46.4321) scale(28.2931)">
<stop stop-color="#86BAFF"/>
<stop offset="0.336538" stop-color="#80ACFF"/>
<stop offset="1" stop-color="#5D4BFF"/>
</radialGradient>
<linearGradient id="paint1_linear_65_125" x1="16" y1="3" x2="16" y2="29" gradientUnits="userSpaceOnUse">
<stop stop-color="#533227"/>
<stop offset="1" stop-color="#3F241B"/>
</linearGradient>
<linearGradient id="paint2_linear_65_125" x1="9.07005" y1="5.14219" x2="9.07005" y2="11.2412" gradientUnits="userSpaceOnUse">
<stop stop-color="#FCFFA3"/>
<stop offset="0.524038" stop-color="#FAFBA0"/>
<stop offset="1" stop-color="#D8AC66"/>
</linearGradient>
<clipPath id="clip0_65_125">
<rect width="32" height="32" fill="white"/>
</clipPath>
</defs>
</svg>
