<svg width="32" height="32" viewBox="0 0 32 32" fill="none" xmlns="http://www.w3.org/2000/svg">
<rect x="1.75" y="2.75" width="14.5" height="5.5" fill="url(#paint0_linear_91_2)" stroke="#111B4B" stroke-width="0.5"/>
<rect x="1.75" y="18.75" width="14.5" height="5.5" fill="url(#paint1_linear_91_2)" stroke="#111B4B" stroke-width="0.5"/>
<rect x="1.75" y="25.75" width="14.5" height="5.5" fill="url(#paint2_linear_91_2)" stroke="#111B4B" stroke-width="0.5"/>
<mask id="path-4-outside-1_91_2" maskUnits="userSpaceOnUse" x="12" y="9" width="19" height="14" fill="black">
<rect fill="white" x="12" y="9" width="19" height="14"/>
<path d="M29 10C29.5523 10 30 10.4477 30 11V21C30 21.5523 29.5523 22 29 22H24C23.4477 22 23 21.5523 23 21V19H21C20.4823 19 20.0562 18.6067 20.0049 18.1025L20 18H16C15.4477 18 15 17.5523 15 17V16C15 15.4477 15.4477 15 16 15H20V12H14C13.4477 12 13 11.5523 13 11C13 10.4477 13.4477 10 14 10H29Z"/>
</mask>
<path d="M29 10C29.5523 10 30 10.4477 30 11V21C30 21.5523 29.5523 22 29 22H24C23.4477 22 23 21.5523 23 21V19H21C20.4823 19 20.0562 18.6067 20.0049 18.1025L20 18H16C15.4477 18 15 17.5523 15 17V16C15 15.4477 15.4477 15 16 15H20V12H14C13.4477 12 13 11.5523 13 11C13 10.4477 13.4477 10 14 10H29Z" fill="white"/>
<path d="M29 10V9.5V9.5V10ZM30 11H30.5H30ZM29 22V22.5V22.5V22ZM23 21H22.5V21H23ZM23 19H23.5V18.5H23V19ZM21 19V19.5V19.5V19ZM20.0049 18.1025L19.5054 18.1263L19.5061 18.1398L19.5075 18.1532L20.0049 18.1025ZM20 18L20.4994 17.9762L20.4768 17.5H20V18ZM16 18L16 18.5H16V18ZM15 17H14.5V17H15ZM16 15V14.5V14.5V15ZM20 15V15.5H20.5V15H20ZM20 12H20.5V11.5H20V12ZM29 10V10.5C29.2761 10.5 29.5 10.7239 29.5 11H30H30.5C30.5 10.1716 29.8284 9.5 29 9.5V10ZM30 11H29.5V21H30H30.5V11H30ZM30 21H29.5C29.5 21.2761 29.2761 21.5 29 21.5V22V22.5C29.8284 22.5 30.5 21.8284 30.5 21H30ZM29 22V21.5H24V22V22.5H29V22ZM24 22V21.5C23.7239 21.5 23.5 21.2761 23.5 21H23H22.5C22.5 21.8284 23.1716 22.5 24 22.5V22ZM23 21H23.5V19H23H22.5V21H23ZM23 19V18.5H21V19V19.5H23V19ZM21 19V18.5C20.7413 18.5 20.5279 18.3032 20.5023 18.0519L20.0049 18.1025L19.5075 18.1532C19.5845 18.9101 20.2234 19.5 21 19.5V19ZM20.0049 18.1025L20.5043 18.0788L20.4994 17.9762L20 18L19.5006 18.0238L19.5054 18.1263L20.0049 18.1025ZM20 18V17.5H16V18V18.5H20V18ZM16 18L16 17.5C15.7239 17.5 15.5 17.2761 15.5 17H15H14.5C14.5 17.8284 15.1716 18.5 16 18.5L16 18ZM15 17H15.5V16H15H14.5V17H15ZM15 16H15.5C15.5 15.7239 15.7239 15.5 16 15.5V15V14.5C15.1716 14.5 14.5 15.1716 14.5 16H15ZM16 15V15.5H20V15V14.5H16V15ZM20 15H20.5V12H20H19.5V15H20ZM20 12V11.5H14V12V12.5H20V12ZM14 12V11.5C13.7239 11.5 13.5 11.2761 13.5 11H13H12.5C12.5 11.8284 13.1716 12.5 14 12.5V12ZM13 11H13.5C13.5 10.7239 13.7239 10.5 14 10.5V10V9.5C13.1716 9.5 12.5 10.1716 12.5 11H13ZM14 10V10.5H29V10V9.5H14V10Z" fill="#181627" mask="url(#path-4-outside-1_91_2)"/>
<path d="M29 11C29.5523 11 30 11.4477 30 12V21C30 21.5523 29.5523 22 29 22H24C23.4477 22 23 21.5523 23 21V18H16C15.4477 18 15 17.5523 15 17V16C15 15.4477 15.4477 15 16 15H23V12C23 11.4477 23.4477 11 24 11H29Z" fill="url(#paint3_linear_91_2)"/>
<rect x="9.75" y="11.75" width="9.5" height="4.5" fill="url(#paint4_linear_91_2)" stroke="#111B4B" stroke-width="0.5"/>
<path d="M29 10C29.5523 10 30 10.4477 30 11V18C30 18.5523 29.5523 19 29 19H21C20.4477 19 20 18.5523 20 18V12H14C13.4477 12 13 11.5523 13 11C13 10.4477 13.4477 10 14 10H29Z" fill="url(#paint5_linear_91_2)"/>
<defs>
<linearGradient id="paint0_linear_91_2" x1="9" y1="3" x2="9" y2="8" gradientUnits="userSpaceOnUse">
<stop stop-color="#7779FF"/>
<stop offset="1" stop-color="#2E2C3F"/>
</linearGradient>
<linearGradient id="paint1_linear_91_2" x1="9" y1="19" x2="9" y2="24" gradientUnits="userSpaceOnUse">
<stop stop-color="#7779FF"/>
<stop offset="1" stop-color="#2E2C3F"/>
</linearGradient>
<linearGradient id="paint2_linear_91_2" x1="9" y1="26" x2="9" y2="31" gradientUnits="userSpaceOnUse">
<stop stop-color="#7779FF"/>
<stop offset="1" stop-color="#2E2C3F"/>
</linearGradient>
<linearGradient id="paint3_linear_91_2" x1="22.5" y1="11" x2="22.5" y2="22" gradientUnits="userSpaceOnUse">
<stop stop-color="#BBB8DD"/>
<stop offset="1" stop-color="#6A62AE"/>
</linearGradient>
<linearGradient id="paint4_linear_91_2" x1="14.5" y1="12" x2="14.5" y2="16" gradientUnits="userSpaceOnUse">
<stop stop-color="#7779FF"/>
<stop offset="1" stop-color="#2E2C3F"/>
</linearGradient>
<linearGradient id="paint5_linear_91_2" x1="21.5" y1="10" x2="21.5" y2="19" gradientUnits="userSpaceOnUse">
<stop stop-color="white"/>
<stop offset="1" stop-color="#A2A0E6"/>
</linearGradient>
</defs>
</svg>
