<svg width="32" height="32" viewBox="0 0 32 32" fill="none" xmlns="http://www.w3.org/2000/svg">
<g clip-path="url(#clip0_96_2)">
<g filter="url(#filter0_d_96_2)">
<path d="M24.7666 18.6367C29.1243 19.6293 17.8814 30.1416 19.1898 23.1602C20.4981 16.1788 12.4925 26.7352 11.4612 24.3214C10.4299 21.9076 8.17464 27.5096 8.01078 22.9412C7.84692 18.3728 6.37471 20.7858 5.90364 18.8463C5.43257 16.9067 10.1022 12.7708 5.78917 11.0456C1.47611 9.32033 9.80464 10.4004 11.2817 5.48773C12.7587 0.57507 15.114 10.2728 19.0946 5.36089C23.0751 0.449018 28.1869 13.2506 24.7811 11.1377C21.3752 9.02489 20.409 17.6441 24.7666 18.6367Z" fill="url(#paint0_linear_96_2)"/>
</g>
<g filter="url(#filter1_d_96_2)">
<path d="M10.4099 13.9651C9.81803 10.7725 19.959 15.8887 14.9848 16.6678C10.0107 17.447 19.2552 20.357 17.9596 21.6327C16.664 22.9084 20.9999 23.1008 18.0367 24.3025C15.0734 25.5041 17.0842 25.9267 15.9409 26.7092C14.7976 27.4917 10.7374 25.3117 10.8337 28.649C10.9301 31.9862 9.26057 26.0794 5.60131 26.2503C1.94205 26.4212 7.65851 22.5087 3.284 20.9814C-1.0905 19.4541 5.88303 12.9309 5.46462 15.7454C5.0462 18.5599 11.0017 17.1577 10.4099 13.9651Z" fill="url(#paint1_linear_96_2)"/>
</g>
<g filter="url(#filter2_d_96_2)">
<path d="M28.6411 19.5009C31.4842 19.2975 27.8532 28.0159 26.6441 23.3925C25.4351 18.7691 23.7197 26.9018 22.4295 25.5844C21.1392 24.2669 21.4006 28.2052 20.0098 25.373C18.619 22.5409 18.4372 24.3321 17.6107 23.2057C16.7841 22.0794 18.3576 18.6026 15.333 18.3384C12.3084 18.0742 17.5109 17.1734 16.9873 13.8146C16.4636 10.4558 20.5962 16.0875 21.5446 12.255C22.493 8.42244 29.1257 15.4773 26.5247 14.7983C23.9236 14.1193 25.7979 19.7044 28.6411 19.5009Z" fill="url(#paint2_linear_96_2)"/>
</g>
<path d="M5.62653 3.39703L6.56698 5.95657L9.12653 6.89703L6.56698 7.83748L5.62653 10.397L4.68607 7.83748L2.12653 6.89703L4.68607 5.95657L5.62653 3.39703Z" fill="white"/>
<path d="M25.6265 22.397L26.567 24.9566L29.1265 25.897L26.567 26.8375L25.6265 29.397L24.6861 26.8375L22.1265 25.897L24.6861 24.9566L25.6265 22.397Z" fill="white"/>
<path d="M7.12653 10.397L7.66393 11.8596L9.12653 12.397L7.66393 12.9344L7.12653 14.397L6.58912 12.9344L5.12653 12.397L6.58912 11.8596L7.12653 10.397Z" fill="white"/>
<path d="M22.1265 21.397L22.6639 22.8596L24.1265 23.397L22.6639 23.9344L22.1265 25.397L21.5891 23.9344L20.1265 23.397L21.5891 22.8596L22.1265 21.397Z" fill="white"/>
</g>
<defs>
<filter id="filter0_d_96_2" x="0.562268" y="4.05472" width="29.3345" height="29.484" filterUnits="userSpaceOnUse" color-interpolation-filters="sRGB">
<feFlood flood-opacity="0" result="BackgroundImageFix"/>
<feColorMatrix in="SourceAlpha" type="matrix" values="0 0 0 0 0 0 0 0 0 0 0 0 0 0 0 0 0 0 127 0" result="hardAlpha"/>
<feOffset dy="4"/>
<feGaussianBlur stdDeviation="2"/>
<feComposite in2="hardAlpha" operator="out"/>
<feColorMatrix type="matrix" values="0 0 0 0 0 0 0 0 0 0 0 0 0 0 0 0 0 0 0.25 0"/>
<feBlend mode="normal" in2="BackgroundImageFix" result="effect1_dropShadow_96_2"/>
<feBlend mode="normal" in="SourceGraphic" in2="effect1_dropShadow_96_2" result="shape"/>
</filter>
<filter id="filter1_d_96_2" x="-2.16377" y="12.9267" width="25.2591" height="24.7458" filterUnits="userSpaceOnUse" color-interpolation-filters="sRGB">
<feFlood flood-opacity="0" result="BackgroundImageFix"/>
<feColorMatrix in="SourceAlpha" type="matrix" values="0 0 0 0 0 0 0 0 0 0 0 0 0 0 0 0 0 0 127 0" result="hardAlpha"/>
<feOffset dy="4"/>
<feGaussianBlur stdDeviation="2"/>
<feComposite in2="hardAlpha" operator="out"/>
<feColorMatrix type="matrix" values="0 0 0 0 0 0 0 0 0 0 0 0 0 0 0 0 0 0 0.25 0"/>
<feBlend mode="normal" in2="BackgroundImageFix" result="effect1_dropShadow_96_2"/>
<feBlend mode="normal" in="SourceGraphic" in2="effect1_dropShadow_96_2" result="shape"/>
</filter>
<filter id="filter2_d_96_2" x="10.3819" y="11.1077" width="23.3214" height="23.316" filterUnits="userSpaceOnUse" color-interpolation-filters="sRGB">
<feFlood flood-opacity="0" result="BackgroundImageFix"/>
<feColorMatrix in="SourceAlpha" type="matrix" values="0 0 0 0 0 0 0 0 0 0 0 0 0 0 0 0 0 0 127 0" result="hardAlpha"/>
<feOffset dy="4"/>
<feGaussianBlur stdDeviation="2"/>
<feComposite in2="hardAlpha" operator="out"/>
<feColorMatrix type="matrix" values="0 0 0 0 0 0 0 0 0 0 0 0 0 0 0 0 0 0 0.25 0"/>
<feBlend mode="normal" in2="BackgroundImageFix" result="effect1_dropShadow_96_2"/>
<feBlend mode="normal" in="SourceGraphic" in2="effect1_dropShadow_96_2" result="shape"/>
</filter>
<linearGradient id="paint0_linear_96_2" x1="20.6448" y1="25.4723" x2="11.6083" y2="4.3218" gradientUnits="userSpaceOnUse">
<stop stop-color="#7779FF"/>
<stop offset="1" stop-color="#881819"/>
</linearGradient>
<linearGradient id="paint1_linear_96_2" x1="16.0923" y1="15.129" x2="4.73969" y2="26.3071" gradientUnits="userSpaceOnUse">
<stop stop-color="#77FF87"/>
<stop offset="1" stop-color="#FF56EE"/>
</linearGradient>
<linearGradient id="paint2_linear_96_2" x1="28.1547" y1="24.5659" x2="16.8489" y2="13.022" gradientUnits="userSpaceOnUse">
<stop stop-color="#FF0004"/>
<stop offset="1" stop-color="#4AE4FF"/>
</linearGradient>
<clipPath id="clip0_96_2">
<rect width="32" height="32" fill="white"/>
</clipPath>
</defs>
</svg>
