<svg width="32" height="32" viewBox="0 0 32 32" fill="none" xmlns="http://www.w3.org/2000/svg">
<circle cx="16" cy="16" r="12.25" fill="url(#paint0_linear_7_87)" stroke="#262A35" stroke-width="0.5"/>
<mask id="mask0_7_87" style="mask-type:alpha" maskUnits="userSpaceOnUse" x="4" y="4" width="24" height="24">
<circle cx="16" cy="16" r="12" fill="url(#paint1_linear_7_87)"/>
</mask>
<g mask="url(#mask0_7_87)">
<path d="M8 32H4V28H8V32ZM16 32H12V28H16V32ZM24 32H20V28H24V32ZM32 32H28V28H32V32ZM4 28H0V24H4V28ZM12 28H8V24H12V28ZM20 28H16V24H20V28ZM28 28H24V24H28V28ZM8 24H4V20H8V24ZM16 24H12V20H16V24ZM24 24H20V20H24V24ZM32 24H28V20H32V24ZM4 20H0V16H4V20ZM12 20H8V16H12V20ZM20 20H16V16H20V20ZM28 20H24V16H28V20ZM8 16H4V12H8V16ZM16 16H12V12H16V16ZM24 16H20V12H24V16ZM32 16H28V12H32V16ZM4 12H0V8H4V12ZM12 12H8V8H12V12ZM20 12H16V8H20V12ZM28 12H24V8H28V12ZM8 8H4V4H8V8ZM16 8H12V4H16V8ZM24 8H20V4H24V8ZM32 8H28V4H32V8ZM4 4H0V0H4V4ZM12 4H8V0H12V4ZM20 4H16V0H20V4ZM28 4H24V0H28V4Z" fill="url(#paint2_linear_7_87)"/>
</g>
<defs>
<linearGradient id="paint0_linear_7_87" x1="10.5" y1="5.5" x2="22" y2="26.5" gradientUnits="userSpaceOnUse">
<stop stop-color="#D9D9D9"/>
<stop offset="1" stop-color="#6D7382"/>
</linearGradient>
<linearGradient id="paint1_linear_7_87" x1="12.5" y1="4.5" x2="22" y2="26.5" gradientUnits="userSpaceOnUse">
<stop stop-color="#BCBCBC"/>
<stop offset="1" stop-color="#262A35"/>
</linearGradient>
<linearGradient id="paint2_linear_7_87" x1="11.3333" y1="0.666667" x2="24" y2="30" gradientUnits="userSpaceOnUse">
<stop stop-color="#BCBCBC"/>
<stop offset="1" stop-color="#262A35"/>
</linearGradient>
</defs>
</svg>
