<svg width="32" height="32" viewBox="0 0 32 32" fill="none" xmlns="http://www.w3.org/2000/svg">
<path d="M4 20C4.55228 20 5 20.4477 5 21V27H11C11.5523 27 12 27.4477 12 28V29C12 29.5523 11.5523 30 11 30H3C2.44772 30 2 29.5523 2 29V21C2 20.4477 2.44772 20 3 20H4ZM29 20C29.5523 20 30 20.4477 30 21V29C30 29.5523 29.5523 30 29 30H21C20.4477 30 20 29.5523 20 29V28C20 27.4477 20.4477 27 21 27H27V21C27 20.4477 27.4477 20 28 20H29ZM17.0234 10.8281C18.0443 10.8281 18.9219 11.013 19.6562 11.3828C20.3906 11.7474 20.9557 12.2682 21.3516 12.9453C21.7526 13.6172 21.9531 14.4193 21.9531 15.3516C21.9531 16.638 21.6797 17.8099 21.1328 18.8672C20.5807 19.9297 19.8125 20.7448 18.8281 21.3125C17.8438 21.875 16.7188 22.1562 15.4531 22.1562C14.4531 22.1562 13.5807 21.9688 12.8359 21.5938C12.0964 21.2188 11.5312 20.6823 11.1406 19.9844C10.75 19.2812 10.5547 18.4609 10.5547 17.5234C10.5547 16.2943 10.8307 15.151 11.3828 14.0938C11.9297 13.0365 12.6901 12.2292 13.6641 11.6719C14.638 11.1094 15.7578 10.8281 17.0234 10.8281ZM16.9141 12.6484C16.0703 12.6484 15.3516 12.8438 14.7578 13.2344C14.362 13.4948 14.026 13.849 13.75 14.2969C13.474 14.7396 13.263 15.2344 13.1172 15.7812C12.9714 16.3281 12.8984 16.888 12.8984 17.4609C12.8984 18.4193 13.1328 19.1406 13.6016 19.625C14.0703 20.1042 14.724 20.3438 15.5625 20.3438C16.401 20.3438 17.1172 20.1484 17.7109 19.7578C18.1068 19.4974 18.4427 19.1484 18.7188 18.7109C19 18.2734 19.2135 17.7812 19.3594 17.2344C19.5052 16.6875 19.5781 16.1224 19.5781 15.5391C19.5781 14.6224 19.349 13.9115 18.8906 13.4062C18.4375 12.901 17.7786 12.6484 16.9141 12.6484ZM11 2C11.5523 2 12 2.44772 12 3V4C12 4.55228 11.5523 5 11 5H5V11C5 11.5523 4.55228 12 4 12H3C2.44772 12 2 11.5523 2 11V3C2 2.44772 2.44772 2 3 2H11ZM29 2C29.5523 2 30 2.44772 30 3V11C30 11.5523 29.5523 12 29 12H28C27.4477 12 27 11.5523 27 11V5H21C20.4477 5 20 4.55228 20 4V3C20 2.44772 20.4477 2 21 2H29Z" fill="url(#paint0_linear_71_50)"/>
<defs>
<linearGradient id="paint0_linear_71_50" x1="16" y1="2" x2="16" y2="30" gradientUnits="userSpaceOnUse">
<stop stop-color="#D9D9D9"/>
<stop offset="1" stop-color="#737373"/>
</linearGradient>
</defs>
</svg>
