<svg width="32" height="32" viewBox="0 0 32 32" fill="none" xmlns="http://www.w3.org/2000/svg">
<mask id="path-1-outside-1_25_23" maskUnits="userSpaceOnUse" x="5" y="0" width="19" height="32" fill="black">
<rect fill="white" x="5" width="19" height="32"/>
<path d="M17 1C17.5523 1 18 1.44772 18 2V14H21V6C21 5.44772 21.4477 5 22 5C22.5523 5 23 5.44772 23 6V15C23 15.5523 22.5523 16 22 16H21V24C21 24.5523 20.5523 25 20 25H18V30C18 30.5523 17.5523 31 17 31H15C14.4477 31 14 30.5523 14 30V21H10C9.48232 21 9.05621 20.6067 9.00488 20.1025C9.00145 20.0688 9 20.0346 9 20V13H7C6.48232 13 6.05621 12.6067 6.00488 12.1025C6.00145 12.0688 6 12.0346 6 12V2C6 1.44772 6.44772 1 7 1C7.55228 1 8 1.44772 8 2V11H14V2C14 1.44772 14.4477 1 15 1H17ZM18 23H19V16H18V23ZM11 13V19H14V13H11Z"/>
</mask>
<path d="M17 1C17.5523 1 18 1.44772 18 2V14H21V6C21 5.44772 21.4477 5 22 5C22.5523 5 23 5.44772 23 6V15C23 15.5523 22.5523 16 22 16H21V24C21 24.5523 20.5523 25 20 25H18V30C18 30.5523 17.5523 31 17 31H15C14.4477 31 14 30.5523 14 30V21H10C9.48232 21 9.05621 20.6067 9.00488 20.1025C9.00145 20.0688 9 20.0346 9 20V13H7C6.48232 13 6.05621 12.6067 6.00488 12.1025C6.00145 12.0688 6 12.0346 6 12V2C6 1.44772 6.44772 1 7 1C7.55228 1 8 1.44772 8 2V11H14V2C14 1.44772 14.4477 1 15 1H17ZM18 23H19V16H18V23ZM11 13V19H14V13H11Z" fill="url(#paint0_linear_25_23)"/>
<path d="M18 2H18.5V2H18ZM18 14H17.5V14.5H18V14ZM21 14V14.5H21.5V14H21ZM21 6H20.5V6H21ZM23 15H23.5V15H23ZM21 16V15.5H20.5V16H21ZM21 24H21.5V24H21ZM18 25V24.5H17.5V25H18ZM18 30H18.5V30H18ZM14 30H13.5V30H14ZM14 21H14.5V20.5H14V21ZM9.00488 20.1025L8.50745 20.1532L9.00488 20.1025ZM9 13H9.5V12.5H9V13ZM6.00488 12.1025L5.50745 12.1532V12.1532L6.00488 12.1025ZM8 2H8.5V2H8ZM8 11H7.5V11.5H8V11ZM14 11V11.5H14.5V11H14ZM14 2L13.5 2V2H14ZM18 23H17.5V23.5H18V23ZM19 23V23.5H19.5V23H19ZM19 16H19.5V15.5H19V16ZM18 16V15.5H17.5V16H18ZM11 13V12.5H10.5V13H11ZM11 19H10.5V19.5H11V19ZM14 19V19.5H14.5V19H14ZM14 13H14.5V12.5H14V13ZM17 1V1.5C17.2761 1.5 17.5 1.72386 17.5 2H18H18.5C18.5 1.17157 17.8284 0.5 17 0.5V1ZM18 2H17.5V14H18H18.5V2H18ZM18 14V14.5H21V14V13.5H18V14ZM21 14H21.5V6H21H20.5V14H21ZM21 6H21.5C21.5 5.72386 21.7239 5.5 22 5.5V5V4.5C21.1716 4.5 20.5 5.17157 20.5 6H21ZM22 5V5.5C22.2761 5.5 22.5 5.72386 22.5 6H23H23.5C23.5 5.17157 22.8284 4.5 22 4.5V5ZM23 6H22.5V15H23H23.5V6H23ZM23 15H22.5C22.5 15.2761 22.2761 15.5 22 15.5V16V16.5C22.8284 16.5 23.5 15.8284 23.5 15H23ZM22 16V15.5H21V16V16.5H22V16ZM21 16H20.5V24H21H21.5V16H21ZM21 24H20.5C20.5 24.2761 20.2761 24.5 20 24.5V25V25.5C20.8284 25.5 21.5 24.8284 21.5 24H21ZM20 25V24.5H18V25V25.5H20V25ZM18 25H17.5V30H18H18.5V25H18ZM18 30H17.5C17.5 30.2761 17.2761 30.5 17 30.5V31V31.5C17.8284 31.5 18.5 30.8284 18.5 30H18ZM17 31V30.5H15V31V31.5H17V31ZM15 31V30.5C14.7239 30.5 14.5 30.2761 14.5 30H14H13.5C13.5 30.8284 14.1716 31.5 15 31.5V31ZM14 30H14.5V21H14H13.5V30H14ZM14 21V20.5H10V21V21.5H14V21ZM10 21V20.5C9.74126 20.5 9.5279 20.3032 9.50231 20.0519L9.00488 20.1025L8.50745 20.1532C8.58453 20.9101 9.22339 21.5 10 21.5V21ZM9.00488 20.1025L9.50231 20.0519C9.50088 20.0378 9.5 20.0208 9.5 20H9H8.5C8.5 20.0484 8.50202 20.0998 8.50745 20.1532L9.00488 20.1025ZM9 20H9.5V13H9H8.5V20H9ZM9 13V12.5H7V13V13.5H9V13ZM7 13V12.5C6.74126 12.5 6.5279 12.3032 6.50231 12.0519L6.00488 12.1025L5.50745 12.1532C5.58453 12.9101 6.22339 13.5 7 13.5V13ZM6.00488 12.1025L6.50231 12.0519C6.50088 12.0378 6.5 12.0208 6.5 12H6H5.5C5.5 12.0484 5.50202 12.0998 5.50745 12.1532L6.00488 12.1025ZM6 12H6.5V2H6H5.5V12H6ZM6 2H6.5C6.5 1.72386 6.72386 1.5 7 1.5V1V0.5C6.17157 0.5 5.5 1.17157 5.5 2H6ZM7 1V1.5C7.27614 1.5 7.5 1.72386 7.5 2H8H8.5C8.5 1.17157 7.82843 0.5 7 0.5V1ZM8 2H7.5V11H8H8.5V2H8ZM8 11V11.5H14V11V10.5H8V11ZM14 11H14.5V2H14H13.5V11H14ZM14 2L14.5 2C14.5 1.72386 14.7239 1.5 15 1.5V1V0.5C14.1716 0.5 13.5 1.17157 13.5 2L14 2ZM15 1V1.5H17V1V0.5H15V1ZM18 23V23.5H19V23V22.5H18V23ZM19 23H19.5V16H19H18.5V23H19ZM19 16V15.5H18V16V16.5H19V16ZM18 16H17.5V23H18H18.5V16H18ZM11 13H10.5V19H11H11.5V13H11ZM11 19V19.5H14V19V18.5H11V19ZM14 19H14.5V13H14H13.5V19H14ZM14 13V12.5H11V13V13.5H14V13Z" fill="#565656" mask="url(#path-1-outside-1_25_23)"/>
<defs>
<linearGradient id="paint0_linear_25_23" x1="14.5" y1="1" x2="14.5" y2="31" gradientUnits="userSpaceOnUse">
<stop stop-color="#D9D9D9"/>
<stop offset="0.5" stop-color="#D7D7D7"/>
<stop offset="1" stop-color="#737373"/>
</linearGradient>
</defs>
</svg>
