<svg width="32" height="32" viewBox="0 0 32 32" fill="none" xmlns="http://www.w3.org/2000/svg">
<mask id="path-1-outside-1_7_145" maskUnits="userSpaceOnUse" x="2" y="8" width="28" height="16" fill="black">
<rect fill="white" x="2" y="8" width="28" height="16"/>
<path d="M29 23H3V9H29V23Z"/>
</mask>
<path d="M29 23H3V9H29V23Z" fill="white"/>
<path d="M29 23V23.5H29.5V23H29ZM3 23H2.5V23.5H3V23ZM3 9V8.5H2.5V9H3ZM29 9H29.5V8.5H29V9ZM29 23V22.5H3V23V23.5H29V23ZM3 23H3.5V9H3H2.5V23H3ZM3 9V9.5H29V9V8.5H3V9ZM29 9H28.5V23H29H29.5V9H29Z" fill="#111B4B" mask="url(#path-1-outside-1_7_145)"/>
<rect x="3" y="11" width="26" height="12" fill="#C5C8EF"/>
<rect x="3" y="9" width="26" height="12" fill="white"/>
<path d="M11.9375 13.3867L11.0391 18H9.88672L10.7852 13.3867H9.00781L9.17969 12.4961H13.8906L13.7188 13.3867H11.9375ZM16.957 18L15.9688 15.9219L14.1914 18H12.9648L15.5117 15.125L14.1914 12.4961H15.3984L16.2734 14.3359L17.8438 12.4961H19.0664L16.7227 15.1406L18.1562 18H16.957ZM22.1641 13.3867L21.2656 18H20.1133L21.0117 13.3867H19.2344L19.4062 12.4961H24.1172L23.9453 13.3867H22.1641Z" fill="#748CFF"/>
</svg>
