<svg width="32" height="32" viewBox="0 0 32 32" fill="none" xmlns="http://www.w3.org/2000/svg">
<g clip-path="url(#clip0_73_106)">
<g filter="url(#filter0_d_73_106)">
<path d="M6.96582 10.0518H26V19.9482H6.96582V20L2 15L6.96582 10V10.0518ZM23.6211 14.293C22.8327 14.293 22.1935 14.768 22.1934 15.3535C22.1935 15.9391 22.8328 16.4141 23.6211 16.4141C24.4092 16.4139 25.0487 15.939 25.0488 15.3535C25.0487 14.7681 24.4093 14.2931 23.6211 14.293Z" fill="url(#paint0_linear_73_106)"/>
</g>
<path d="M10.5693 14.1167L10.0078 17H9.2876L9.84912 14.1167H8.73828L8.8457 13.5601H11.79L11.6826 14.1167H10.5693ZM13.7065 17L13.0889 15.7012L11.978 17H11.2114L12.8032 15.2031L11.978 13.5601H12.7324L13.2793 14.71L14.2607 13.5601H15.0249L13.5601 15.2129L14.4561 17H13.7065ZM16.9609 14.1167L16.3994 17H15.6792L16.2407 14.1167H15.1299L15.2373 13.5601H18.1816L18.0742 14.1167H16.9609ZM20.4131 17.4199V17.6104H17.5396V17.4199H20.4131Z" fill="#748CFF"/>
<rect x="26.9616" y="11.5124" width="2.24413" height="15.019" transform="rotate(46.479 26.9616 11.5124)" fill="url(#paint1_linear_73_106)"/>
<rect width="3.74021" height="0.715192" rx="0.357596" transform="matrix(0.68862 0.725122 0.725122 -0.68862 26.4464 10.97)" fill="#D5D7FF"/>
<rect width="2.24413" height="2.14558" transform="matrix(0.68862 0.725122 0.725122 -0.68862 27.4802 11.0199)" fill="url(#paint2_radial_73_106)"/>
<rect x="27.4767" y="12.0548" width="0.748043" height="15.019" transform="rotate(46.479 27.4767 12.0548)" fill="url(#paint3_linear_73_106)"/>
<path d="M15.2878 24.1459L17.6163 23.4821L16.0709 21.8548L15.2878 24.1459Z" fill="#D9D9D9"/>
<path d="M15.2878 24.1459L16.064 23.9247L15.5488 23.3822L15.2878 24.1459Z" fill="#0D0000"/>
</g>
<defs>
<filter id="filter0_d_73_106" x="-2" y="10" width="32" height="18" filterUnits="userSpaceOnUse" color-interpolation-filters="sRGB">
<feFlood flood-opacity="0" result="BackgroundImageFix"/>
<feColorMatrix in="SourceAlpha" type="matrix" values="0 0 0 0 0 0 0 0 0 0 0 0 0 0 0 0 0 0 127 0" result="hardAlpha"/>
<feOffset dy="4"/>
<feGaussianBlur stdDeviation="2"/>
<feComposite in2="hardAlpha" operator="out"/>
<feColorMatrix type="matrix" values="0 0 0 0 0 0 0 0 0 0 0 0 0 0 0 0 0 0 0.25 0"/>
<feBlend mode="normal" in2="BackgroundImageFix" result="effect1_dropShadow_73_106"/>
<feBlend mode="normal" in="SourceGraphic" in2="effect1_dropShadow_73_106" result="shape"/>
</filter>
<linearGradient id="paint0_linear_73_106" x1="14" y1="10" x2="14" y2="20" gradientUnits="userSpaceOnUse">
<stop stop-color="white"/>
<stop offset="1" stop-color="#CED6FF"/>
</linearGradient>
<linearGradient id="paint1_linear_73_106" x1="28.0836" y1="11.5124" x2="28.0836" y2="26.5314" gradientUnits="userSpaceOnUse">
<stop stop-color="#535CFF"/>
<stop offset="0.658654" stop-color="#4F58F3"/>
<stop offset="1" stop-color="#323799"/>
</linearGradient>
<radialGradient id="paint2_radial_73_106" cx="0" cy="0" r="1" gradientTransform="matrix(1.87011 -2.14558 9.29472 7.40545 0.374021 1.78798)" gradientUnits="userSpaceOnUse">
<stop stop-color="#FF60CA"/>
<stop offset="1" stop-color="#993979"/>
</radialGradient>
<linearGradient id="paint3_linear_73_106" x1="27.8507" y1="27.0739" x2="27.8507" y2="12.0548" gradientUnits="userSpaceOnUse">
<stop stop-color="#3E45CC"/>
<stop offset="1" stop-color="#1F2266"/>
</linearGradient>
<clipPath id="clip0_73_106">
<rect width="32" height="32" fill="white"/>
</clipPath>
</defs>
</svg>
