<svg width="32" height="32" viewBox="0 0 32 32" fill="none" xmlns="http://www.w3.org/2000/svg">
<rect x="3" y="3" width="26" height="26" fill="white"/>
<mask id="path-2-outside-1_1_19" maskUnits="userSpaceOnUse" x="6" y="6" width="20" height="20" fill="black">
<rect fill="white" x="6" y="6" width="20" height="20"/>
<path fill-rule="evenodd" clip-rule="evenodd" d="M19.3691 8.7998H25.0527V25.0996H7V8.7998H12.6846V7H19.3691V8.7998Z"/>
</mask>
<path fill-rule="evenodd" clip-rule="evenodd" d="M19.3691 8.7998H25.0527V25.0996H7V8.7998H12.6846V7H19.3691V8.7998Z" fill="url(#paint0_linear_1_19)"/>
<path d="M19.3691 8.7998H18.8691V9.2998H19.3691V8.7998ZM25.0527 8.7998H25.5527V8.2998H25.0527V8.7998ZM25.0527 25.0996V25.5996H25.5527V25.0996H25.0527ZM7 25.0996H6.5V25.5996H7V25.0996ZM7 8.7998V8.2998H6.5V8.7998H7ZM12.6846 8.7998V9.2998H13.1846V8.7998H12.6846ZM12.6846 7V6.5H12.1846V7H12.6846ZM19.3691 7H19.8691V6.5H19.3691V7ZM19.3691 8.7998V9.2998H25.0527V8.7998V8.2998H19.3691V8.7998ZM25.0527 8.7998H24.5527V25.0996H25.0527H25.5527V8.7998H25.0527ZM25.0527 25.0996V24.5996H7V25.0996V25.5996H25.0527V25.0996ZM7 25.0996H7.5V8.7998H7H6.5V25.0996H7ZM7 8.7998V9.2998H12.6846V8.7998V8.2998H7V8.7998ZM12.6846 8.7998H13.1846V7H12.6846H12.1846V8.7998H12.6846ZM12.6846 7V7.5H19.3691V7V6.5H12.6846V7ZM19.3691 7H18.8691V8.7998H19.3691H19.8691V7H19.3691Z" fill="black" mask="url(#path-2-outside-1_1_19)"/>
<rect x="3" y="3" width="26" height="1" fill="#434343"/>
<circle cx="16" cy="18" r="5.25" fill="url(#paint1_linear_1_19)" stroke="#0B0B0B" stroke-width="0.5"/>
<circle cx="21.5" cy="12.5" r="0.75" fill="black" stroke="black" stroke-width="0.5"/>
<rect x="3" y="3" width="1" height="1" fill="#FF3737"/>
<rect x="4" y="3" width="1" height="1" fill="#FFB937"/>
<rect x="5" y="3" width="1" height="1" fill="#37FF5C"/>
<mask id="path-10-outside-2_1_19" maskUnits="userSpaceOnUse" x="17" y="19" width="12" height="8" fill="black">
<rect fill="white" x="17" y="19" width="12" height="8"/>
<path d="M22.2227 25.0977L22.0508 26H18.2031L18.3477 25.2383C18.4128 25.1263 18.4818 25.0195 18.5547 24.918C18.6276 24.8164 18.7057 24.7201 18.7891 24.6289C18.901 24.5039 19.0156 24.3867 19.1328 24.2773C19.25 24.1654 19.401 24.0391 19.5859 23.8984C19.7734 23.7552 20.0234 23.5742 20.3359 23.3555C20.5286 23.2201 20.6901 23.1016 20.8203 23C20.9531 22.8958 21.0547 22.8086 21.125 22.7383C21.2656 22.5977 21.3737 22.4544 21.4492 22.3086C21.5273 22.1628 21.5664 22.0091 21.5664 21.8477C21.5664 21.6628 21.513 21.5234 21.4062 21.4297C21.3021 21.3359 21.1445 21.2891 20.9336 21.2891C20.7044 21.2891 20.5195 21.3464 20.3789 21.4609C20.2383 21.5755 20.1328 21.7578 20.0625 22.0078L19.0234 21.7773C19.1615 21.3112 19.3971 20.9674 19.7305 20.7461C20.0638 20.5247 20.4909 20.4141 21.0117 20.4141C21.3763 20.4141 21.6836 20.4648 21.9336 20.5664C22.1836 20.668 22.3724 20.819 22.5 21.0195C22.6302 21.2201 22.6953 21.4701 22.6953 21.7695C22.6953 22.0195 22.6406 22.2578 22.5312 22.4844C22.4583 22.6354 22.3633 22.7812 22.2461 22.9219C22.1289 23.0625 21.9688 23.2148 21.7656 23.3789C21.5625 23.543 21.2969 23.7357 20.9688 23.957C20.625 24.1914 20.3503 24.3971 20.1445 24.5742C19.9414 24.7513 19.7826 24.9258 19.668 25.0977H22.2227ZM24.3125 26.082C23.9115 26.082 23.5938 25.9492 23.3594 25.6836C23.125 25.418 23.0078 25.0625 23.0078 24.6172C23.0078 24.1172 23.0911 23.6302 23.2578 23.1562C23.4245 22.6797 23.6576 22.3177 23.957 22.0703C24.2591 21.8203 24.6224 21.6953 25.0469 21.6953C25.3802 21.6953 25.6484 21.7604 25.8516 21.8906C26.0573 22.0182 26.1979 22.2109 26.2734 22.4688H26.293C26.2982 22.4167 26.3086 22.3385 26.3242 22.2344C26.3398 22.1302 26.3633 21.9974 26.3945 21.8359L26.7227 20.2031H27.8047L26.875 25.0977C26.849 25.2435 26.8268 25.3919 26.8086 25.543C26.7904 25.694 26.7747 25.8464 26.7617 26H25.6641C25.6641 25.8359 25.6836 25.6276 25.7227 25.375H25.707C25.5221 25.6172 25.3216 25.7956 25.1055 25.9102C24.8919 26.0247 24.6276 26.082 24.3125 26.082ZM24.793 25.3281C25.2018 25.3281 25.5117 25.1445 25.7227 24.7773C25.7956 24.6523 25.8568 24.5052 25.9062 24.3359C25.9583 24.1641 25.9987 23.9909 26.0273 23.8164C26.056 23.6393 26.0703 23.4805 26.0703 23.3398C26.0703 23.0273 26.0091 22.8008 25.8867 22.6602C25.7643 22.5169 25.5807 22.4453 25.3359 22.4453C25.0729 22.4453 24.8568 22.5352 24.6875 22.7148C24.5755 22.8346 24.4805 22.9948 24.4023 23.1953C24.3268 23.3932 24.2682 23.6055 24.2266 23.832C24.1875 24.056 24.168 24.2669 24.168 24.4648C24.168 24.7513 24.2201 24.9674 24.3242 25.1133C24.4284 25.2565 24.5846 25.3281 24.793 25.3281Z"/>
</mask>
<path d="M22.2227 25.0977L22.0508 26H18.2031L18.3477 25.2383C18.4128 25.1263 18.4818 25.0195 18.5547 24.918C18.6276 24.8164 18.7057 24.7201 18.7891 24.6289C18.901 24.5039 19.0156 24.3867 19.1328 24.2773C19.25 24.1654 19.401 24.0391 19.5859 23.8984C19.7734 23.7552 20.0234 23.5742 20.3359 23.3555C20.5286 23.2201 20.6901 23.1016 20.8203 23C20.9531 22.8958 21.0547 22.8086 21.125 22.7383C21.2656 22.5977 21.3737 22.4544 21.4492 22.3086C21.5273 22.1628 21.5664 22.0091 21.5664 21.8477C21.5664 21.6628 21.513 21.5234 21.4062 21.4297C21.3021 21.3359 21.1445 21.2891 20.9336 21.2891C20.7044 21.2891 20.5195 21.3464 20.3789 21.4609C20.2383 21.5755 20.1328 21.7578 20.0625 22.0078L19.0234 21.7773C19.1615 21.3112 19.3971 20.9674 19.7305 20.7461C20.0638 20.5247 20.4909 20.4141 21.0117 20.4141C21.3763 20.4141 21.6836 20.4648 21.9336 20.5664C22.1836 20.668 22.3724 20.819 22.5 21.0195C22.6302 21.2201 22.6953 21.4701 22.6953 21.7695C22.6953 22.0195 22.6406 22.2578 22.5312 22.4844C22.4583 22.6354 22.3633 22.7812 22.2461 22.9219C22.1289 23.0625 21.9688 23.2148 21.7656 23.3789C21.5625 23.543 21.2969 23.7357 20.9688 23.957C20.625 24.1914 20.3503 24.3971 20.1445 24.5742C19.9414 24.7513 19.7826 24.9258 19.668 25.0977H22.2227ZM24.3125 26.082C23.9115 26.082 23.5938 25.9492 23.3594 25.6836C23.125 25.418 23.0078 25.0625 23.0078 24.6172C23.0078 24.1172 23.0911 23.6302 23.2578 23.1562C23.4245 22.6797 23.6576 22.3177 23.957 22.0703C24.2591 21.8203 24.6224 21.6953 25.0469 21.6953C25.3802 21.6953 25.6484 21.7604 25.8516 21.8906C26.0573 22.0182 26.1979 22.2109 26.2734 22.4688H26.293C26.2982 22.4167 26.3086 22.3385 26.3242 22.2344C26.3398 22.1302 26.3633 21.9974 26.3945 21.8359L26.7227 20.2031H27.8047L26.875 25.0977C26.849 25.2435 26.8268 25.3919 26.8086 25.543C26.7904 25.694 26.7747 25.8464 26.7617 26H25.6641C25.6641 25.8359 25.6836 25.6276 25.7227 25.375H25.707C25.5221 25.6172 25.3216 25.7956 25.1055 25.9102C24.8919 26.0247 24.6276 26.082 24.3125 26.082ZM24.793 25.3281C25.2018 25.3281 25.5117 25.1445 25.7227 24.7773C25.7956 24.6523 25.8568 24.5052 25.9062 24.3359C25.9583 24.1641 25.9987 23.9909 26.0273 23.8164C26.056 23.6393 26.0703 23.4805 26.0703 23.3398C26.0703 23.0273 26.0091 22.8008 25.8867 22.6602C25.7643 22.5169 25.5807 22.4453 25.3359 22.4453C25.0729 22.4453 24.8568 22.5352 24.6875 22.7148C24.5755 22.8346 24.4805 22.9948 24.4023 23.1953C24.3268 23.3932 24.2682 23.6055 24.2266 23.832C24.1875 24.056 24.168 24.2669 24.168 24.4648C24.168 24.7513 24.2201 24.9674 24.3242 25.1133C24.4284 25.2565 24.5846 25.3281 24.793 25.3281Z" fill="white"/>
<path d="M22.2227 25.0977L22.7138 25.1912L22.8269 24.5977H22.2227V25.0977ZM22.0508 26V26.5H22.4645L22.542 26.0936L22.0508 26ZM18.2031 26L17.7119 25.9068L17.5993 26.5H18.2031V26ZM18.3477 25.2383L17.9154 24.987L17.8724 25.061L17.8564 25.1451L18.3477 25.2383ZM18.7891 24.6289L19.1581 24.9663L19.1615 24.9625L18.7891 24.6289ZM19.1328 24.2773L19.474 24.6429L19.4782 24.6388L19.1328 24.2773ZM19.5859 23.8984L19.8886 24.2964L19.8895 24.2958L19.5859 23.8984ZM20.3359 23.3555L20.6227 23.7651L20.6234 23.7646L20.3359 23.3555ZM20.8203 23L21.1278 23.3943L21.1289 23.3934L20.8203 23ZM21.4492 22.3086L21.0084 22.0725L21.0052 22.0787L21.4492 22.3086ZM21.4062 21.4297L21.0717 21.8014L21.0763 21.8054L21.4062 21.4297ZM20.0625 22.0078L19.9542 22.4959L20.4158 22.5983L20.5438 22.1432L20.0625 22.0078ZM19.0234 21.7773L18.544 21.6354L18.3918 22.1494L18.9152 22.2655L19.0234 21.7773ZM22.5 21.0195L22.0782 21.288L22.0807 21.2918L22.5 21.0195ZM22.5312 22.4844L22.9815 22.7017L22.5312 22.4844ZM20.9688 23.957L20.6891 23.5425L20.6871 23.5439L20.9688 23.957ZM20.1445 24.5742L19.8183 24.1953L19.816 24.1973L20.1445 24.5742ZM19.668 25.0977L19.2519 24.8203L18.7337 25.5977H19.668V25.0977ZM22.2227 25.0977L21.7315 25.0041L21.5596 25.9064L22.0508 26L22.542 26.0936L22.7138 25.1912L22.2227 25.0977ZM22.0508 26V25.5H18.2031V26V26.5H22.0508V26ZM18.2031 26L18.6944 26.0932L18.8389 25.3315L18.3477 25.2383L17.8564 25.1451L17.7119 25.9068L18.2031 26ZM18.3477 25.2383L18.7799 25.4896C18.8373 25.391 18.8976 25.2977 18.9608 25.2096L18.5547 24.918L18.1485 24.6264C18.0659 24.7414 17.9883 24.8616 17.9154 24.987L18.3477 25.2383ZM18.5547 24.918L18.9608 25.2096C19.0224 25.1238 19.0882 25.0427 19.1581 24.9663L18.7891 24.6289L18.42 24.2915C18.3233 24.3974 18.2328 24.509 18.1485 24.6264L18.5547 24.918ZM18.7891 24.6289L19.1615 24.9625C19.264 24.8481 19.3682 24.7416 19.474 24.6429L19.1328 24.2773L18.7917 23.9118C18.6631 24.0318 18.5381 24.1597 18.4166 24.2953L18.7891 24.6289ZM19.1328 24.2773L19.4782 24.6388C19.5775 24.544 19.7128 24.4301 19.8886 24.2964L19.5859 23.8984L19.2833 23.5005C19.0892 23.648 18.9225 23.7867 18.7874 23.9158L19.1328 24.2773ZM19.5859 23.8984L19.8895 24.2958C20.0692 24.1585 20.3129 23.982 20.6227 23.7651L20.3359 23.3555L20.0492 22.9459C19.734 23.1665 19.4777 23.3519 19.2824 23.5011L19.5859 23.8984ZM20.3359 23.3555L20.6234 23.7646C20.8203 23.6262 20.989 23.5026 21.1278 23.3943L20.8203 23L20.5128 22.6057C20.3912 22.7006 20.237 22.8139 20.0485 22.9464L20.3359 23.3555ZM20.8203 23L21.1289 23.3934C21.2682 23.2841 21.3877 23.1827 21.4786 23.0918L21.125 22.7383L20.7714 22.3847C20.7217 22.4345 20.638 22.5075 20.5117 22.6066L20.8203 23ZM21.125 22.7383L21.4786 23.0918C21.6481 22.9223 21.7897 22.7384 21.8932 22.5385L21.4492 22.3086L21.0052 22.0787C20.9577 22.1705 20.8831 22.273 20.7714 22.3847L21.125 22.7383ZM21.4492 22.3086L21.89 22.5447C22.006 22.3281 22.0664 22.0936 22.0664 21.8477H21.5664H21.0664C21.0664 21.9246 21.0487 21.9974 21.0085 22.0725L21.4492 22.3086ZM21.5664 21.8477H22.0664C22.0664 21.565 21.9814 21.2693 21.7362 21.054L21.4062 21.4297L21.0763 21.8054C21.0721 21.8017 21.0678 21.7969 21.0642 21.7917C21.0607 21.7866 21.0594 21.7833 21.0595 21.7834C21.0597 21.7841 21.0664 21.8022 21.0664 21.8477H21.5664ZM21.4062 21.4297L21.7407 21.058C21.5079 20.8485 21.2074 20.7891 20.9336 20.7891V21.2891V21.7891C21.0037 21.7891 21.0458 21.797 21.0674 21.8035C21.0872 21.8094 21.0836 21.812 21.0718 21.8013L21.4062 21.4297ZM20.9336 21.2891V20.7891C20.6203 20.7891 20.3143 20.8686 20.0631 21.0733L20.3789 21.4609L20.6947 21.8486C20.7248 21.8241 20.7885 21.7891 20.9336 21.7891V21.2891ZM20.3789 21.4609L20.0631 21.0733C19.8149 21.2755 19.6678 21.5644 19.5812 21.8724L20.0625 22.0078L20.5438 22.1432C20.5978 21.9512 20.6616 21.8755 20.6947 21.8486L20.3789 21.4609ZM20.0625 22.0078L20.1708 21.5197L19.1317 21.2892L19.0234 21.7773L18.9152 22.2655L19.9542 22.4959L20.0625 22.0078ZM19.0234 21.7773L19.5029 21.9193C19.615 21.5405 19.7913 21.3059 20.0071 21.1626L19.7305 20.7461L19.4539 20.3296C19.003 20.629 18.7079 21.0819 18.544 21.6354L19.0234 21.7773ZM19.7305 20.7461L20.0071 21.1626C20.237 21.0099 20.56 20.9141 21.0117 20.9141V20.4141V19.9141C20.4218 19.9141 19.8906 20.0395 19.4539 20.3296L19.7305 20.7461ZM21.0117 20.4141V20.9141C21.3331 20.9141 21.5722 20.9593 21.7454 21.0296L21.9336 20.5664L22.1218 20.1032C21.795 19.9704 21.4195 19.9141 21.0117 19.9141V20.4141ZM21.9336 20.5664L21.7454 21.0296C21.9127 21.0976 22.0137 21.1866 22.0782 21.288L22.5 21.0195L22.9218 20.7511C22.7311 20.4514 22.4545 20.2383 22.1218 20.1032L21.9336 20.5664ZM22.5 21.0195L22.0807 21.2918C22.1464 21.393 22.1953 21.5423 22.1953 21.7695H22.6953H23.1953C23.1953 21.3978 23.1141 21.0471 22.9193 20.7472L22.5 21.0195ZM22.6953 21.7695H22.1953C22.1953 21.9438 22.1578 22.1078 22.081 22.267L22.5312 22.4844L22.9815 22.7017C23.1234 22.4078 23.1953 22.0953 23.1953 21.7695H22.6953ZM22.5312 22.4844L22.081 22.267C22.0274 22.378 21.9554 22.4897 21.862 22.6018L22.2461 22.9219L22.6302 23.242C22.7712 23.0728 22.8893 22.8928 22.9815 22.7017L22.5312 22.4844ZM22.2461 22.9219L21.862 22.6018C21.7726 22.7091 21.6389 22.8385 21.4515 22.9899L21.7656 23.3789L22.0798 23.7679C22.2986 23.5911 22.4852 23.4159 22.6302 23.242L22.2461 22.9219ZM21.7656 23.3789L21.4515 22.9899C21.2636 23.1417 21.0108 23.3256 20.6891 23.5425L20.9688 23.957L21.2484 24.3715C21.583 24.1458 21.8614 23.9443 22.0798 23.7679L21.7656 23.3789ZM20.9688 23.957L20.6871 23.5439C20.3351 23.7839 20.0436 24.0014 19.8183 24.1953L20.1445 24.5742L20.4707 24.9532C20.6569 24.7929 20.9149 24.5989 21.2504 24.3701L20.9688 23.957ZM20.1445 24.5742L19.816 24.1973C19.5889 24.3952 19.3973 24.6023 19.2519 24.8203L19.668 25.0977L20.084 25.375C20.1678 25.2493 20.2939 25.1074 20.4731 24.9511L20.1445 24.5742ZM19.668 25.0977V25.5977H22.2227V25.0977V24.5977H19.668V25.0977ZM23.2578 23.1562L23.7295 23.3221L23.7298 23.3213L23.2578 23.1562ZM23.957 22.0703L24.2755 22.4558L24.2758 22.4555L23.957 22.0703ZM25.8516 21.8906L25.5817 22.3116L25.588 22.3155L25.8516 21.8906ZM26.2734 22.4688L25.7936 22.6093L25.8989 22.9688H26.2734V22.4688ZM26.293 22.4688V22.9688H26.7455L26.7905 22.5185L26.293 22.4688ZM26.3945 21.8359L25.9043 21.7374L25.9036 21.7409L26.3945 21.8359ZM26.7227 20.2031V19.7031H26.3131L26.2325 20.1046L26.7227 20.2031ZM27.8047 20.2031L28.2959 20.2964L28.4086 19.7031H27.8047V20.2031ZM26.875 25.0977L26.3838 25.0043L26.3828 25.0098L26.875 25.0977ZM26.7617 26V26.5H27.2211L27.2599 26.0422L26.7617 26ZM25.6641 26H25.1641V26.5H25.6641V26ZM25.7227 25.375L26.2168 25.4514L26.3059 24.875H25.7227V25.375ZM25.707 25.375V24.875H25.4597L25.3096 25.0716L25.707 25.375ZM25.1055 25.9102L24.8713 25.4684L24.8691 25.4696L25.1055 25.9102ZM25.7227 24.7773L25.2908 24.5254L25.2891 24.5283L25.7227 24.7773ZM25.9062 24.3359L25.4277 24.1909L25.4263 24.1957L25.9062 24.3359ZM26.0273 23.8164L26.5207 23.8974L26.5209 23.8963L26.0273 23.8164ZM25.8867 22.6602L25.5066 22.985L25.5096 22.9884L25.8867 22.6602ZM24.6875 22.7148L24.3236 22.372L24.3222 22.3734L24.6875 22.7148ZM24.4023 23.1953L23.9364 23.0138L23.9352 23.0171L24.4023 23.1953ZM24.2266 23.832L23.7348 23.7416L23.734 23.7461L24.2266 23.832ZM24.3242 25.1133L23.9173 25.4039L23.9199 25.4074L24.3242 25.1133ZM24.3125 26.082V25.582C24.0338 25.582 23.8606 25.496 23.7343 25.3528L23.3594 25.6836L22.9845 26.0144C23.3269 26.4025 23.7891 26.582 24.3125 26.582V26.082ZM23.3594 25.6836L23.7343 25.3528C23.5997 25.2002 23.5078 24.9731 23.5078 24.6172H23.0078H22.5078C22.5078 25.1519 22.6503 25.6357 22.9845 26.0144L23.3594 25.6836ZM23.0078 24.6172H23.5078C23.5078 24.174 23.5815 23.743 23.7295 23.3221L23.2578 23.1562L22.7861 22.9904C22.6008 23.5174 22.5078 24.0604 22.5078 24.6172H23.0078ZM23.2578 23.1562L23.7298 23.3213C23.8752 22.9056 24.0644 22.6301 24.2755 22.4558L23.957 22.0703L23.6386 21.6848C23.2507 22.0053 22.9738 22.4538 22.7858 22.9912L23.2578 23.1562ZM23.957 22.0703L24.2758 22.4555C24.4806 22.286 24.7285 22.1953 25.0469 22.1953V21.6953V21.1953C24.5163 21.1953 24.0376 21.3546 23.6382 21.6851L23.957 22.0703ZM25.0469 21.6953V22.1953C25.3197 22.1953 25.4844 22.2491 25.5817 22.3116L25.8516 21.8906L26.1214 21.4697C25.8125 21.2717 25.4407 21.1953 25.0469 21.1953V21.6953ZM25.8516 21.8906L25.588 22.3155C25.6773 22.3709 25.7486 22.4557 25.7936 22.6093L26.2734 22.4688L26.7533 22.3282C26.6472 21.9662 26.4372 21.6655 26.1151 21.4657L25.8516 21.8906ZM26.2734 22.4688V22.9688H26.293V22.4688V21.9688H26.2734V22.4688ZM26.293 22.4688L26.7905 22.5185C26.7944 22.4791 26.8033 22.411 26.8187 22.3085L26.3242 22.2344L25.8298 22.1602C25.8139 22.2661 25.8019 22.3542 25.7955 22.419L26.293 22.4688ZM26.3242 22.2344L26.8187 22.3085C26.8329 22.2141 26.8549 22.0889 26.8854 21.9309L26.3945 21.8359L25.9036 21.7409C25.8717 21.9059 25.8468 22.0463 25.8298 22.1602L26.3242 22.2344ZM26.3945 21.8359L26.8847 21.9344L27.2129 20.3016L26.7227 20.2031L26.2325 20.1046L25.9043 21.7374L26.3945 21.8359ZM26.7227 20.2031V20.7031H27.8047V20.2031V19.7031H26.7227V20.2031ZM27.8047 20.2031L27.3135 20.1098L26.3838 25.0044L26.875 25.0977L27.3662 25.191L28.2959 20.2964L27.8047 20.2031ZM26.875 25.0977L26.3828 25.0098C26.355 25.1651 26.3315 25.3229 26.3122 25.4831L26.8086 25.543L27.305 25.6029C27.3221 25.461 27.3429 25.3219 27.3672 25.1856L26.875 25.0977ZM26.8086 25.543L26.3122 25.4831C26.2932 25.6401 26.277 25.7983 26.2635 25.9578L26.7617 26L27.2599 26.0422C27.2725 25.8944 27.2875 25.748 27.305 25.6029L26.8086 25.543ZM26.7617 26V25.5H25.6641V26V26.5H26.7617V26ZM25.6641 26H26.1641C26.1641 25.8715 26.1797 25.691 26.2168 25.4514L25.7227 25.375L25.2285 25.2986C25.1875 25.5642 25.1641 25.8004 25.1641 26H25.6641ZM25.7227 25.375V24.875H25.707V25.375V25.875H25.7227V25.375ZM25.707 25.375L25.3096 25.0716C25.158 25.2701 25.01 25.3948 24.8713 25.4684L25.1055 25.9102L25.3397 26.3519C25.6332 26.1963 25.8862 25.9643 26.1045 25.6784L25.707 25.375ZM25.1055 25.9102L24.8691 25.4696C24.7468 25.5352 24.5691 25.582 24.3125 25.582V26.082V26.582C24.6861 26.582 25.0371 26.5143 25.3419 26.3507L25.1055 25.9102ZM24.793 25.3281V25.8281C25.3886 25.8281 25.86 25.542 26.1562 25.0264L25.7227 24.7773L25.2891 24.5283C25.1634 24.7471 25.015 24.8281 24.793 24.8281V25.3281ZM25.7227 24.7773L26.1545 25.0293C26.2518 24.8625 26.3277 24.6764 26.3862 24.4762L25.9062 24.3359L25.4263 24.1957C25.3859 24.3341 25.3393 24.4422 25.2908 24.5254L25.7227 24.7773ZM25.9062 24.3359L26.3848 24.4809C26.4431 24.2884 26.4885 24.0939 26.5207 23.8974L26.0273 23.8164L25.5339 23.7354C25.5089 23.8879 25.4736 24.0397 25.4277 24.1909L25.9062 24.3359ZM26.0273 23.8164L26.5209 23.8963C26.5527 23.6996 26.5703 23.5133 26.5703 23.3398H26.0703H25.5703C25.5703 23.4476 25.5592 23.5791 25.5338 23.7366L26.0273 23.8164ZM26.0703 23.3398H26.5703C26.5703 22.9821 26.5039 22.6077 26.2639 22.3319L25.8867 22.6602L25.5096 22.9884C25.5143 22.9939 25.5703 23.0725 25.5703 23.3398H26.0703ZM25.8867 22.6602L26.2668 22.3353C26.0227 22.0497 25.6801 21.9453 25.3359 21.9453V22.4453V22.9453C25.4813 22.9453 25.5059 22.9842 25.5066 22.985L25.8867 22.6602ZM25.3359 22.4453V21.9453C24.9452 21.9453 24.594 22.0849 24.3236 22.372L24.6875 22.7148L25.0514 23.0577C25.1195 22.9854 25.2006 22.9453 25.3359 22.9453V22.4453ZM24.6875 22.7148L24.3222 22.3734C24.1556 22.5516 24.0308 22.7716 23.9365 23.0138L24.4023 23.1953L24.8682 23.3768C24.9301 23.218 24.9954 23.1176 25.0528 23.0563L24.6875 22.7148ZM24.4023 23.1953L23.9352 23.0171C23.8479 23.2458 23.7815 23.4876 23.7348 23.7416L24.2266 23.832L24.7183 23.9225C24.7549 23.7233 24.8057 23.5407 24.8695 23.3736L24.4023 23.1953ZM24.2266 23.832L23.734 23.7461C23.6907 23.9944 23.668 24.2343 23.668 24.4648H24.168H24.668C24.668 24.2996 24.6843 24.1176 24.7191 23.9179L24.2266 23.832ZM24.168 24.4648H23.668C23.668 24.7981 23.7261 25.1362 23.9174 25.4039L24.3242 25.1133L24.7311 24.8227C24.714 24.7987 24.668 24.7045 24.668 24.4648H24.168ZM24.3242 25.1133L23.9199 25.4074C24.1355 25.7039 24.4568 25.8281 24.793 25.8281V25.3281V24.8281C24.7457 24.8281 24.7283 24.8201 24.7279 24.8199C24.7275 24.8197 24.7288 24.8203 24.7303 24.8216C24.7318 24.8228 24.7311 24.8226 24.7286 24.8192L24.3242 25.1133Z" fill="black" mask="url(#path-10-outside-2_1_19)"/>
<defs>
<linearGradient id="paint0_linear_1_19" x1="16.0264" y1="25.0996" x2="16.0264" y2="7" gradientUnits="userSpaceOnUse">
<stop stop-color="#242424"/>
<stop offset="0.394231" stop-color="#2A2A2A"/>
<stop offset="1" stop-color="#8A8A8A"/>
</linearGradient>
<linearGradient id="paint1_linear_1_19" x1="13.5" y1="14" x2="18.5" y2="22.5" gradientUnits="userSpaceOnUse">
<stop stop-color="white"/>
<stop offset="0.475962" stop-color="#F7F7F7"/>
<stop offset="1" stop-color="#999999"/>
</linearGradient>
</defs>
</svg>
