<svg width="32" height="32" viewBox="0 0 32 32" fill="none" xmlns="http://www.w3.org/2000/svg">
<rect x="3" y="3" width="26" height="26" fill="white"/>
<mask id="path-2-outside-1_1_19" maskUnits="userSpaceOnUse" x="6" y="6" width="20" height="20" fill="black">
<rect fill="white" x="6" y="6" width="20" height="20"/>
<path fill-rule="evenodd" clip-rule="evenodd" d="M19.3691 8.7998H25.0527V25.0996H7V8.7998H12.6846V7H19.3691V8.7998Z"/>
</mask>
<path fill-rule="evenodd" clip-rule="evenodd" d="M19.3691 8.7998H25.0527V25.0996H7V8.7998H12.6846V7H19.3691V8.7998Z" fill="url(#paint0_linear_1_19)"/>
<path d="M19.3691 8.7998H18.8691V9.2998H19.3691V8.7998ZM25.0527 8.7998H25.5527V8.2998H25.0527V8.7998ZM25.0527 25.0996V25.5996H25.5527V25.0996H25.0527ZM7 25.0996H6.5V25.5996H7V25.0996ZM7 8.7998V8.2998H6.5V8.7998H7ZM12.6846 8.7998V9.2998H13.1846V8.7998H12.6846ZM12.6846 7V6.5H12.1846V7H12.6846ZM19.3691 7H19.8691V6.5H19.3691V7ZM19.3691 8.7998V9.2998H25.0527V8.7998V8.2998H19.3691V8.7998ZM25.0527 8.7998H24.5527V25.0996H25.0527H25.5527V8.7998H25.0527ZM25.0527 25.0996V24.5996H7V25.0996V25.5996H25.0527V25.0996ZM7 25.0996H7.5V8.7998H7H6.5V25.0996H7ZM7 8.7998V9.2998H12.6846V8.7998V8.2998H7V8.7998ZM12.6846 8.7998H13.1846V7H12.6846H12.1846V8.7998H12.6846ZM12.6846 7V7.5H19.3691V7V6.5H12.6846V7ZM19.3691 7H18.8691V8.7998H19.3691H19.8691V7H19.3691Z" fill="black" mask="url(#path-2-outside-1_1_19)"/>
<rect x="3" y="3" width="26" height="1" fill="#434343"/>
<circle cx="16" cy="18" r="5.25" fill="url(#paint1_linear_1_19)" stroke="#0B0B0B" stroke-width="0.5"/>
<circle cx="21.5" cy="12.5" r="0.75" fill="black" stroke="black" stroke-width="0.5"/>
<rect x="3" y="3" width="1" height="1" fill="#FF3737"/>
<rect x="4" y="3" width="1" height="1" fill="#FFB937"/>
<rect x="5" y="3" width="1" height="1" fill="#37FF5C"/>
<mask id="path-10-outside-2_1_19" maskUnits="userSpaceOnUse" x="17" y="19" width="12" height="8" fill="black">
<rect fill="white" x="17" y="19" width="12" height="8"/>
<path d="M20.418 22.7617C20.806 22.7617 21.0951 22.6862 21.2852 22.5352C21.4779 22.3841 21.5742 22.1706 21.5742 21.8945C21.5742 21.707 21.5234 21.5599 21.4219 21.4531C21.3229 21.3438 21.1693 21.2891 20.9609 21.2891C20.7188 21.2891 20.5208 21.349 20.3672 21.4688C20.2135 21.5885 20.1029 21.7682 20.0352 22.0078L18.9922 21.8047C19.125 21.3411 19.3594 20.9935 19.6953 20.7617C20.0312 20.5299 20.4674 20.4141 21.0039 20.4141C21.5326 20.4141 21.9453 20.5326 22.2422 20.7695C22.5391 21.0065 22.6875 21.3359 22.6875 21.7578C22.6875 22.1641 22.5612 22.4909 22.3086 22.7383C22.056 22.9857 21.7122 23.1289 21.2773 23.168L21.2734 23.1836C21.625 23.2383 21.8919 23.3685 22.0742 23.5742C22.2591 23.7773 22.3516 24.0417 22.3516 24.3672C22.3516 24.6901 22.2669 24.9831 22.0977 25.2461C21.9284 25.5117 21.6901 25.7174 21.3828 25.8633C21.0755 26.0065 20.7227 26.0781 20.3242 26.0781C19.9674 26.0781 19.6562 26.0326 19.3906 25.9414C18.7839 25.7305 18.4505 25.3034 18.3906 24.6602L19.4922 24.5117C19.5208 24.7461 19.6029 24.9193 19.7383 25.0312C19.8737 25.1406 20.0859 25.1953 20.375 25.1953C20.6458 25.1953 20.8568 25.1224 21.0078 24.9766C21.1615 24.8307 21.2383 24.6302 21.2383 24.375C21.2383 24.1328 21.1667 23.9518 21.0234 23.832C20.8802 23.7096 20.6654 23.6484 20.3789 23.6484H19.9609L20.1328 22.7617H20.418ZM24.3125 26.082C23.9115 26.082 23.5938 25.9492 23.3594 25.6836C23.125 25.418 23.0078 25.0625 23.0078 24.6172C23.0078 24.1172 23.0911 23.6302 23.2578 23.1562C23.4245 22.6797 23.6576 22.3177 23.957 22.0703C24.2591 21.8203 24.6224 21.6953 25.0469 21.6953C25.3802 21.6953 25.6484 21.7604 25.8516 21.8906C26.0573 22.0182 26.1979 22.2109 26.2734 22.4688H26.293C26.2982 22.4167 26.3086 22.3385 26.3242 22.2344C26.3398 22.1302 26.3633 21.9974 26.3945 21.8359L26.7227 20.2031H27.8047L26.875 25.0977C26.849 25.2435 26.8268 25.3919 26.8086 25.543C26.7904 25.694 26.7747 25.8464 26.7617 26H25.6641C25.6641 25.8359 25.6836 25.6276 25.7227 25.375H25.707C25.5221 25.6172 25.3216 25.7956 25.1055 25.9102C24.8919 26.0247 24.6276 26.082 24.3125 26.082ZM24.793 25.3281C25.2018 25.3281 25.5117 25.1445 25.7227 24.7773C25.7956 24.6523 25.8568 24.5052 25.9062 24.3359C25.9583 24.1641 25.9987 23.9909 26.0273 23.8164C26.056 23.6393 26.0703 23.4805 26.0703 23.3398C26.0703 23.0273 26.0091 22.8008 25.8867 22.6602C25.7643 22.5169 25.5807 22.4453 25.3359 22.4453C25.0729 22.4453 24.8568 22.5352 24.6875 22.7148C24.5755 22.8346 24.4805 22.9948 24.4023 23.1953C24.3268 23.3932 24.2682 23.6055 24.2266 23.832C24.1875 24.056 24.168 24.2669 24.168 24.4648C24.168 24.7513 24.2201 24.9674 24.3242 25.1133C24.4284 25.2565 24.5846 25.3281 24.793 25.3281Z"/>
</mask>
<path d="M20.418 22.7617C20.806 22.7617 21.0951 22.6862 21.2852 22.5352C21.4779 22.3841 21.5742 22.1706 21.5742 21.8945C21.5742 21.707 21.5234 21.5599 21.4219 21.4531C21.3229 21.3438 21.1693 21.2891 20.9609 21.2891C20.7188 21.2891 20.5208 21.349 20.3672 21.4688C20.2135 21.5885 20.1029 21.7682 20.0352 22.0078L18.9922 21.8047C19.125 21.3411 19.3594 20.9935 19.6953 20.7617C20.0312 20.5299 20.4674 20.4141 21.0039 20.4141C21.5326 20.4141 21.9453 20.5326 22.2422 20.7695C22.5391 21.0065 22.6875 21.3359 22.6875 21.7578C22.6875 22.1641 22.5612 22.4909 22.3086 22.7383C22.056 22.9857 21.7122 23.1289 21.2773 23.168L21.2734 23.1836C21.625 23.2383 21.8919 23.3685 22.0742 23.5742C22.2591 23.7773 22.3516 24.0417 22.3516 24.3672C22.3516 24.6901 22.2669 24.9831 22.0977 25.2461C21.9284 25.5117 21.6901 25.7174 21.3828 25.8633C21.0755 26.0065 20.7227 26.0781 20.3242 26.0781C19.9674 26.0781 19.6562 26.0326 19.3906 25.9414C18.7839 25.7305 18.4505 25.3034 18.3906 24.6602L19.4922 24.5117C19.5208 24.7461 19.6029 24.9193 19.7383 25.0312C19.8737 25.1406 20.0859 25.1953 20.375 25.1953C20.6458 25.1953 20.8568 25.1224 21.0078 24.9766C21.1615 24.8307 21.2383 24.6302 21.2383 24.375C21.2383 24.1328 21.1667 23.9518 21.0234 23.832C20.8802 23.7096 20.6654 23.6484 20.3789 23.6484H19.9609L20.1328 22.7617H20.418ZM24.3125 26.082C23.9115 26.082 23.5938 25.9492 23.3594 25.6836C23.125 25.418 23.0078 25.0625 23.0078 24.6172C23.0078 24.1172 23.0911 23.6302 23.2578 23.1562C23.4245 22.6797 23.6576 22.3177 23.957 22.0703C24.2591 21.8203 24.6224 21.6953 25.0469 21.6953C25.3802 21.6953 25.6484 21.7604 25.8516 21.8906C26.0573 22.0182 26.1979 22.2109 26.2734 22.4688H26.293C26.2982 22.4167 26.3086 22.3385 26.3242 22.2344C26.3398 22.1302 26.3633 21.9974 26.3945 21.8359L26.7227 20.2031H27.8047L26.875 25.0977C26.849 25.2435 26.8268 25.3919 26.8086 25.543C26.7904 25.694 26.7747 25.8464 26.7617 26H25.6641C25.6641 25.8359 25.6836 25.6276 25.7227 25.375H25.707C25.5221 25.6172 25.3216 25.7956 25.1055 25.9102C24.8919 26.0247 24.6276 26.082 24.3125 26.082ZM24.793 25.3281C25.2018 25.3281 25.5117 25.1445 25.7227 24.7773C25.7956 24.6523 25.8568 24.5052 25.9062 24.3359C25.9583 24.1641 25.9987 23.9909 26.0273 23.8164C26.056 23.6393 26.0703 23.4805 26.0703 23.3398C26.0703 23.0273 26.0091 22.8008 25.8867 22.6602C25.7643 22.5169 25.5807 22.4453 25.3359 22.4453C25.0729 22.4453 24.8568 22.5352 24.6875 22.7148C24.5755 22.8346 24.4805 22.9948 24.4023 23.1953C24.3268 23.3932 24.2682 23.6055 24.2266 23.832C24.1875 24.056 24.168 24.2669 24.168 24.4648C24.168 24.7513 24.2201 24.9674 24.3242 25.1133C24.4284 25.2565 24.5846 25.3281 24.793 25.3281Z" fill="white"/>
<path d="M21.2852 22.5352L20.9767 22.1416L20.9741 22.1437L21.2852 22.5352ZM21.4219 21.4531L21.051 21.7887L21.0596 21.7977L21.4219 21.4531ZM20.3672 21.4688L20.0598 21.0744L20.3672 21.4688ZM20.0352 22.0078L19.9396 22.4986L20.3912 22.5865L20.5163 22.1438L20.0352 22.0078ZM18.9922 21.8047L18.5115 21.667L18.3613 22.1912L18.8966 22.2955L18.9922 21.8047ZM22.3086 22.7383L21.9587 22.3811L22.3086 22.7383ZM21.2773 23.168L21.2326 22.67L20.8785 22.7018L20.7923 23.0467L21.2773 23.168ZM21.2734 23.1836L20.7884 23.0623L20.6556 23.5935L21.1966 23.6777L21.2734 23.1836ZM22.0742 23.5742L21.7 23.9058L21.7045 23.9108L22.0742 23.5742ZM22.0977 25.2461L21.6772 24.9755L21.676 24.9774L22.0977 25.2461ZM21.3828 25.8633L21.594 26.3165L21.5972 26.315L21.3828 25.8633ZM19.3906 25.9414L19.2264 26.4137L19.2283 26.4143L19.3906 25.9414ZM18.3906 24.6602L18.3239 24.1646L17.8483 24.2287L17.8928 24.7065L18.3906 24.6602ZM19.4922 24.5117L19.9885 24.4511L19.9271 23.9486L19.4254 24.0162L19.4922 24.5117ZM19.7383 25.0312L19.4196 25.4166L19.4241 25.4202L19.7383 25.0312ZM21.0078 24.9766L20.6636 24.6139L20.6605 24.6169L21.0078 24.9766ZM21.0234 23.832L20.6986 24.2122L20.7027 24.2156L21.0234 23.832ZM19.9609 23.6484L19.4701 23.5533L19.3547 24.1484H19.9609V23.6484ZM20.1328 22.7617V22.2617H19.7204L19.6419 22.6666L20.1328 22.7617ZM20.418 22.7617V23.2617C20.8559 23.2617 21.2785 23.1791 21.5962 22.9266L21.2852 22.5352L20.9741 22.1437C20.9116 22.1933 20.7561 22.2617 20.418 22.2617V22.7617ZM21.2852 22.5352L21.5936 22.9287C21.9237 22.6699 22.0742 22.302 22.0742 21.8945H21.5742H21.0742C21.0742 22.0392 21.032 22.0983 20.9767 22.1416L21.2852 22.5352ZM21.5742 21.8945H22.0742C22.0742 21.6152 21.9964 21.3316 21.7842 21.1085L21.4219 21.4531L21.0596 21.7977C21.0597 21.7978 21.0596 21.7978 21.0596 21.7977C21.0595 21.7976 21.0596 21.7977 21.0598 21.798C21.0601 21.7985 21.0615 21.801 21.0635 21.8067C21.0675 21.8183 21.0742 21.8453 21.0742 21.8945H21.5742ZM21.4219 21.4531L21.7926 21.1177C21.565 20.8661 21.2507 20.7891 20.9609 20.7891V21.2891V21.7891C21.0231 21.7891 21.0543 21.7974 21.0648 21.8011C21.0721 21.8037 21.0628 21.8015 21.0511 21.7886L21.4219 21.4531ZM20.9609 21.2891V20.7891C20.635 20.7891 20.3208 20.8709 20.0598 21.0744L20.3672 21.4688L20.6746 21.8631C20.7208 21.827 20.8025 21.7891 20.9609 21.7891V21.2891ZM20.3672 21.4688L20.0598 21.0744C19.8014 21.2758 19.6426 21.5584 19.554 21.8718L20.0352 22.0078L20.5163 22.1438C20.5632 21.978 20.6256 21.9013 20.6746 21.8631L20.3672 21.4688ZM20.0352 22.0078L20.1307 21.517L19.0878 21.3139L18.9922 21.8047L18.8966 22.2955L19.9396 22.4986L20.0352 22.0078ZM18.9922 21.8047L19.4728 21.9424C19.5798 21.5691 19.7553 21.3278 19.9793 21.1733L19.6953 20.7617L19.4114 20.3502C18.9635 20.6592 18.6702 21.1132 18.5115 21.667L18.9922 21.8047ZM19.6953 20.7617L19.9793 21.1733C20.2091 21.0147 20.5373 20.9141 21.0039 20.9141V20.4141V19.9141C20.3975 19.9141 19.8534 20.0452 19.4114 20.3502L19.6953 20.7617ZM21.0039 20.4141V20.9141C21.463 20.9141 21.751 21.0172 21.9303 21.1603L22.2422 20.7695L22.5541 20.3788C22.1396 20.0479 21.6022 19.9141 21.0039 19.9141V20.4141ZM22.2422 20.7695L21.9303 21.1603C22.0941 21.2911 22.1875 21.4689 22.1875 21.7578H22.6875H23.1875C23.1875 21.203 22.984 20.722 22.5541 20.3788L22.2422 20.7695ZM22.6875 21.7578H22.1875C22.1875 22.0514 22.1008 22.2419 21.9587 22.3811L22.3086 22.7383L22.6584 23.0955C23.0216 22.7398 23.1875 22.2767 23.1875 21.7578H22.6875ZM22.3086 22.7383L21.9587 22.3811C21.8065 22.5302 21.5804 22.6387 21.2326 22.67L21.2773 23.168L21.3221 23.666C21.8441 23.6191 22.3055 23.4412 22.6584 23.0955L22.3086 22.7383ZM21.2773 23.168L20.7923 23.0467L20.7884 23.0623L21.2734 23.1836L21.7585 23.3049L21.7624 23.2892L21.2773 23.168ZM21.2734 23.1836L21.1966 23.6777C21.4675 23.7198 21.6152 23.8101 21.7 23.9058L22.0742 23.5742L22.4484 23.2426C22.1687 22.9269 21.7825 22.7568 21.3503 22.6895L21.2734 23.1836ZM22.0742 23.5742L21.7045 23.9108C21.7905 24.0053 21.8516 24.1417 21.8516 24.3672H22.3516H22.8516C22.8516 23.9416 22.7278 23.5494 22.444 23.2376L22.0742 23.5742ZM22.3516 24.3672H21.8516C21.8516 24.5974 21.7928 24.7959 21.6772 24.9755L22.0977 25.2461L22.5181 25.5167C22.7411 25.1703 22.8516 24.7828 22.8516 24.3672H22.3516ZM22.0977 25.2461L21.676 24.9774C21.5613 25.1574 21.3979 25.3027 21.1684 25.4116L21.3828 25.8633L21.5972 26.315C21.9823 26.1322 22.2955 25.866 22.5193 25.5148L22.0977 25.2461ZM21.3828 25.8633L21.1716 25.4101C20.941 25.5175 20.6624 25.5781 20.3242 25.5781V26.0781V26.5781C20.783 26.5781 21.21 26.4955 21.594 26.3165L21.3828 25.8633ZM20.3242 26.0781V25.5781C20.0084 25.5781 19.7544 25.5376 19.5529 25.4685L19.3906 25.9414L19.2283 26.4143C19.5581 26.5275 19.9265 26.5781 20.3242 26.5781V26.0781ZM19.3906 25.9414L19.5548 25.4691C19.3252 25.3893 19.1769 25.2798 19.0797 25.1553C18.9824 25.0306 18.9113 24.8588 18.8885 24.6138L18.3906 24.6602L17.8928 24.7065C17.9299 25.1048 18.0554 25.4681 18.2914 25.7705C18.5275 26.0731 18.8493 26.2826 19.2264 26.4137L19.3906 25.9414ZM18.3906 24.6602L18.4574 25.1557L19.559 25.0072L19.4922 24.5117L19.4254 24.0162L18.3239 24.1646L18.3906 24.6602ZM19.4922 24.5117L18.9959 24.5724C19.0346 24.8891 19.1558 25.1984 19.4196 25.4166L19.7383 25.0312L20.0569 24.6459C20.05 24.6402 20.0071 24.6031 19.9885 24.4511L19.4922 24.5117ZM19.7383 25.0312L19.4241 25.4202C19.6906 25.6355 20.0411 25.6953 20.375 25.6953V25.1953V24.6953C20.1308 24.6953 20.0568 24.6458 20.0524 24.6423L19.7383 25.0312ZM20.375 25.1953V25.6953C20.7363 25.6953 21.0861 25.596 21.3551 25.3363L21.0078 24.9766L20.6605 24.6169C20.6274 24.6488 20.5553 24.6953 20.375 24.6953V25.1953ZM21.0078 24.9766L21.352 25.3392C21.6251 25.08 21.7383 24.7371 21.7383 24.375H21.2383H20.7383C20.7383 24.5233 20.6978 24.5815 20.6636 24.6139L21.0078 24.9766ZM21.2383 24.375H21.7383C21.7383 24.032 21.6329 23.6899 21.3442 23.4485L21.0234 23.832L20.7027 24.2156C20.7076 24.2197 20.7132 24.2252 20.7196 24.2416C20.7274 24.2611 20.7383 24.302 20.7383 24.375H21.2383ZM21.0234 23.832L21.3483 23.4519C21.0777 23.2207 20.7249 23.1484 20.3789 23.1484V23.6484V24.1484C20.6058 24.1484 20.6827 24.1986 20.6986 24.2121L21.0234 23.832ZM20.3789 23.6484V23.1484H19.9609V23.6484V24.1484H20.3789V23.6484ZM19.9609 23.6484L20.4518 23.7436L20.6237 22.8569L20.1328 22.7617L19.6419 22.6666L19.4701 23.5533L19.9609 23.6484ZM20.1328 22.7617V23.2617H20.418V22.7617V22.2617H20.1328V22.7617ZM23.2578 23.1562L23.7295 23.3221L23.7298 23.3213L23.2578 23.1562ZM23.957 22.0703L24.2755 22.4558L24.2758 22.4555L23.957 22.0703ZM25.8516 21.8906L25.5817 22.3116L25.588 22.3155L25.8516 21.8906ZM26.2734 22.4688L25.7936 22.6093L25.8989 22.9688H26.2734V22.4688ZM26.293 22.4688V22.9688H26.7455L26.7905 22.5185L26.293 22.4688ZM26.3945 21.8359L25.9043 21.7374L25.9036 21.7409L26.3945 21.8359ZM26.7227 20.2031V19.7031H26.3131L26.2325 20.1046L26.7227 20.2031ZM27.8047 20.2031L28.2959 20.2964L28.4086 19.7031H27.8047V20.2031ZM26.875 25.0977L26.3838 25.0043L26.3828 25.0098L26.875 25.0977ZM26.7617 26V26.5H27.2211L27.2599 26.0422L26.7617 26ZM25.6641 26H25.1641V26.5H25.6641V26ZM25.7227 25.375L26.2168 25.4514L26.3059 24.875H25.7227V25.375ZM25.707 25.375V24.875H25.4597L25.3096 25.0716L25.707 25.375ZM25.1055 25.9102L24.8713 25.4684L24.8691 25.4696L25.1055 25.9102ZM25.7227 24.7773L25.2908 24.5254L25.2891 24.5283L25.7227 24.7773ZM25.9062 24.3359L25.4277 24.1909L25.4263 24.1957L25.9062 24.3359ZM26.0273 23.8164L26.5207 23.8974L26.5209 23.8963L26.0273 23.8164ZM25.8867 22.6602L25.5066 22.985L25.5096 22.9884L25.8867 22.6602ZM24.6875 22.7148L24.3236 22.372L24.3222 22.3734L24.6875 22.7148ZM24.4023 23.1953L23.9364 23.0138L23.9352 23.0171L24.4023 23.1953ZM24.2266 23.832L23.7348 23.7416L23.734 23.7461L24.2266 23.832ZM24.3242 25.1133L23.9173 25.4039L23.9199 25.4074L24.3242 25.1133ZM24.3125 26.082V25.582C24.0338 25.582 23.8606 25.496 23.7343 25.3528L23.3594 25.6836L22.9845 26.0144C23.3269 26.4025 23.7891 26.582 24.3125 26.582V26.082ZM23.3594 25.6836L23.7343 25.3528C23.5997 25.2002 23.5078 24.9731 23.5078 24.6172H23.0078H22.5078C22.5078 25.1519 22.6503 25.6357 22.9845 26.0144L23.3594 25.6836ZM23.0078 24.6172H23.5078C23.5078 24.174 23.5815 23.743 23.7295 23.3221L23.2578 23.1562L22.7861 22.9904C22.6008 23.5174 22.5078 24.0604 22.5078 24.6172H23.0078ZM23.2578 23.1562L23.7298 23.3213C23.8752 22.9056 24.0644 22.6301 24.2755 22.4558L23.957 22.0703L23.6386 21.6848C23.2507 22.0053 22.9738 22.4538 22.7858 22.9912L23.2578 23.1562ZM23.957 22.0703L24.2758 22.4555C24.4806 22.286 24.7285 22.1953 25.0469 22.1953V21.6953V21.1953C24.5163 21.1953 24.0376 21.3546 23.6382 21.6851L23.957 22.0703ZM25.0469 21.6953V22.1953C25.3197 22.1953 25.4844 22.2491 25.5817 22.3116L25.8516 21.8906L26.1214 21.4697C25.8125 21.2717 25.4407 21.1953 25.0469 21.1953V21.6953ZM25.8516 21.8906L25.588 22.3155C25.6773 22.3709 25.7486 22.4557 25.7936 22.6093L26.2734 22.4688L26.7533 22.3282C26.6472 21.9662 26.4372 21.6655 26.1151 21.4657L25.8516 21.8906ZM26.2734 22.4688V22.9688H26.293V22.4688V21.9688H26.2734V22.4688ZM26.293 22.4688L26.7905 22.5185C26.7944 22.4791 26.8033 22.411 26.8187 22.3085L26.3242 22.2344L25.8298 22.1602C25.8139 22.2661 25.8019 22.3542 25.7955 22.419L26.293 22.4688ZM26.3242 22.2344L26.8187 22.3085C26.8329 22.2141 26.8549 22.0889 26.8854 21.9309L26.3945 21.8359L25.9036 21.7409C25.8717 21.9059 25.8468 22.0463 25.8298 22.1602L26.3242 22.2344ZM26.3945 21.8359L26.8847 21.9344L27.2129 20.3016L26.7227 20.2031L26.2325 20.1046L25.9043 21.7374L26.3945 21.8359ZM26.7227 20.2031V20.7031H27.8047V20.2031V19.7031H26.7227V20.2031ZM27.8047 20.2031L27.3135 20.1098L26.3838 25.0044L26.875 25.0977L27.3662 25.191L28.2959 20.2964L27.8047 20.2031ZM26.875 25.0977L26.3828 25.0098C26.355 25.1651 26.3315 25.3229 26.3122 25.4831L26.8086 25.543L27.305 25.6029C27.3221 25.461 27.3429 25.3219 27.3672 25.1856L26.875 25.0977ZM26.8086 25.543L26.3122 25.4831C26.2932 25.6401 26.277 25.7983 26.2635 25.9578L26.7617 26L27.2599 26.0422C27.2725 25.8944 27.2875 25.748 27.305 25.6029L26.8086 25.543ZM26.7617 26V25.5H25.6641V26V26.5H26.7617V26ZM25.6641 26H26.1641C26.1641 25.8715 26.1797 25.691 26.2168 25.4514L25.7227 25.375L25.2285 25.2986C25.1875 25.5642 25.1641 25.8004 25.1641 26H25.6641ZM25.7227 25.375V24.875H25.707V25.375V25.875H25.7227V25.375ZM25.707 25.375L25.3096 25.0716C25.158 25.2701 25.01 25.3948 24.8713 25.4684L25.1055 25.9102L25.3397 26.3519C25.6332 26.1963 25.8862 25.9643 26.1045 25.6784L25.707 25.375ZM25.1055 25.9102L24.8691 25.4696C24.7468 25.5352 24.5691 25.582 24.3125 25.582V26.082V26.582C24.6861 26.582 25.0371 26.5143 25.3419 26.3507L25.1055 25.9102ZM24.793 25.3281V25.8281C25.3886 25.8281 25.86 25.542 26.1562 25.0264L25.7227 24.7773L25.2891 24.5283C25.1634 24.7471 25.015 24.8281 24.793 24.8281V25.3281ZM25.7227 24.7773L26.1545 25.0293C26.2518 24.8625 26.3277 24.6764 26.3862 24.4762L25.9062 24.3359L25.4263 24.1957C25.3859 24.3341 25.3393 24.4422 25.2908 24.5254L25.7227 24.7773ZM25.9062 24.3359L26.3848 24.4809C26.4431 24.2884 26.4885 24.0939 26.5207 23.8974L26.0273 23.8164L25.5339 23.7354C25.5089 23.8879 25.4736 24.0397 25.4277 24.1909L25.9062 24.3359ZM26.0273 23.8164L26.5209 23.8963C26.5527 23.6996 26.5703 23.5133 26.5703 23.3398H26.0703H25.5703C25.5703 23.4476 25.5592 23.5791 25.5338 23.7366L26.0273 23.8164ZM26.0703 23.3398H26.5703C26.5703 22.9821 26.5039 22.6077 26.2639 22.3319L25.8867 22.6602L25.5096 22.9884C25.5143 22.9939 25.5703 23.0725 25.5703 23.3398H26.0703ZM25.8867 22.6602L26.2668 22.3353C26.0227 22.0497 25.6801 21.9453 25.3359 21.9453V22.4453V22.9453C25.4813 22.9453 25.5059 22.9842 25.5066 22.985L25.8867 22.6602ZM25.3359 22.4453V21.9453C24.9452 21.9453 24.594 22.0849 24.3236 22.372L24.6875 22.7148L25.0514 23.0577C25.1195 22.9854 25.2006 22.9453 25.3359 22.9453V22.4453ZM24.6875 22.7148L24.3222 22.3734C24.1556 22.5516 24.0308 22.7716 23.9365 23.0138L24.4023 23.1953L24.8682 23.3768C24.9301 23.218 24.9954 23.1176 25.0528 23.0563L24.6875 22.7148ZM24.4023 23.1953L23.9352 23.0171C23.8479 23.2458 23.7815 23.4876 23.7348 23.7416L24.2266 23.832L24.7183 23.9225C24.7549 23.7233 24.8057 23.5407 24.8695 23.3736L24.4023 23.1953ZM24.2266 23.832L23.734 23.7461C23.6907 23.9944 23.668 24.2343 23.668 24.4648H24.168H24.668C24.668 24.2996 24.6843 24.1176 24.7191 23.9179L24.2266 23.832ZM24.168 24.4648H23.668C23.668 24.7981 23.7261 25.1362 23.9174 25.4039L24.3242 25.1133L24.7311 24.8227C24.714 24.7987 24.668 24.7045 24.668 24.4648H24.168ZM24.3242 25.1133L23.9199 25.4074C24.1355 25.7039 24.4568 25.8281 24.793 25.8281V25.3281V24.8281C24.7457 24.8281 24.7283 24.8201 24.7279 24.8199C24.7275 24.8197 24.7288 24.8203 24.7303 24.8216C24.7318 24.8228 24.7311 24.8226 24.7286 24.8192L24.3242 25.1133Z" fill="black" mask="url(#path-10-outside-2_1_19)"/>
<defs>
<linearGradient id="paint0_linear_1_19" x1="16.0264" y1="25.0996" x2="16.0264" y2="7" gradientUnits="userSpaceOnUse">
<stop stop-color="#242424"/>
<stop offset="0.394231" stop-color="#2A2A2A"/>
<stop offset="1" stop-color="#8A8A8A"/>
</linearGradient>
<linearGradient id="paint1_linear_1_19" x1="13.5" y1="14" x2="18.5" y2="22.5" gradientUnits="userSpaceOnUse">
<stop stop-color="white"/>
<stop offset="0.475962" stop-color="#F7F7F7"/>
<stop offset="1" stop-color="#999999"/>
</linearGradient>
</defs>
</svg>
